{
.appVersion = "3414";
.formatVersion = 3;
DisplayStrings = (
"/o.sc/ohorn.sc"
);
axes = (
{
name = Weight;
tag = wght;
}
);
classes = (
{
automatic = 1;

glyphs = (
{
color = 4;
glyphname = A;
lastChange = "2025-07-26 01:54:46 +0000";
layers = (
{
anchors = (
{
name = bottom;
pos = (268,0);
},
{
name = center;
pos = (268,310);
},
{
name = ogonek;
pos = (486,0);
},
{
name = top;
pos = (268,620);
}
);
layerId = m01;
shapes = (
{
closed = 1;
nodes = (
(78,330,l),
(456,330,l),
(456,390,l),
(78,390,l)
);
},
{
closed = 1;
nodes = (
(426,0,l),
(486,0,l),
(485,500,l),
(486,568,o),
(434,620,o),
(366,620,cs),
(169,620,ls),
(101,620,o),
(49,568,o),
(50,500,c),
(51,0,l),
(111,0,l),
(110,500,l),
(109,534,o),
(135,560,o),
(169,560,cs),
(366,560,ls),
(400,560,o),
(426,534,o),
(425,500,c)
);
}
);
width = 536;
},
{
anchors = (
{
name = bottom;
pos = (268,0);
},
{
name = center;
pos = (268,310);
},
{
name = ogonek;
pos = (486,0);
},
{
name = top;
pos = (268,620);
}
);
layerId = "BDCBA76E-5474-4BD3-A1CC-9641C626CFE7";
shapes = (
{
closed = 1;
nodes = (
(94,290,l),
(446,290,l),
(446,380,l),
(94,380,l)
);
},
{
closed = 1;
nodes = (
(396,0,l),
(486,0,l),
(485,500,ls),
(486,568,o),
(434,620,o),
(366,620,cs),
(168,620,ls),
(100,620,o),
(48,568,o),
(49,500,cs),
(50,0,l),
(140,0,l),
(139,500,ls),
(139,517,o),
(152,530,o),
(169,530,cs),
(365,530,ls),
(382,530,o),
(395,517,o),
(395,500,cs)
);
}
);
width = 536;
},
{
anchors = (
{
name = bottom;
pos = (268,0);
},
{
name = center;
pos = (268,310);
},
{
name = ogonek;
pos = (486,0);
},
{
name = top;
pos = (268,620);
}
);
layerId = "D8CC3DFA-F3EA-4C7D-84FB-05FCEA5C6558";
shapes = (
{
closed = 1;
nodes = (
(65,350,l),
(472,350,l),
(472,380,l),
(65,380,l)
);
},
{
closed = 1;
nodes = (
(456,0,l),
(486,0,l),
(485,500,ls),
(486,568,o),
(434,620,o),
(366,620,cs),
(168,620,ls),
(100,620,o),
(48,568,o),
(49,500,cs),
(50,0,l),
(80,0,l),
(79,500,ls),
(78,551,o),
(117,590,o),
(168,590,cs),
(366,590,ls),
(417,590,o),
(455,551,o),
(455,500,cs)
);
}
);
width = 536;
}
);
unicode = 65;
},
{
glyphname = "Alpha-latin";
lastChange = "2025-07-27 17:53:39 +0000";
layers = (
{
anchors = (
{
name = bottom;
pos = (268,0);
},
{
name = top;
pos = (268,620);
}
);
layerId = m01;
shapes = (
{
closed = 1;
nodes = (
(139,620,ls),
(71,620,o),
(19,568,o),
(20,500,cs),
(20,120,ls),
(19,52,o),
(71,0,o),
(139,0,cs),
(287,0,ls),
(323,0,o),
(355,15,o),
(376,38,c),
(398,14,o),
(429,0,o),
(465,0,cs),
(517,0,l),
(517,60,l),
(465,60,ls),
(432,60,o),
(406,83,o),
(406,116,cs),
(406,504,ls),
(406,537,o),
(432,560,o),
(465,560,cs),
(517,560,l),
(517,620,l),
(465,620,ls),
(429,620,o),
(397,605,o),
(376,582,c),
(354,606,o),
(323,620,o),
(287,620,cs)
);
},
{
closed = 1;
nodes = (
(320,560,o),
(346,537,o),
(346,504,cs),
(346,116,ls),
(346,83,o),
(320,60,o),
(287,60,cs),
(139,60,ls),
(105,60,o),
(79,86,o),
(80,120,cs),
(80,500,ls),
(79,534,o),
(105,560,o),
(139,560,cs),
(287,560,l)
);
}
);
width = 536;
},
{
anchors = (
{
name = bottom;
pos = (268,0);
},
{
name = top;
pos = (268,620);
}
);
layerId = "BDCBA76E-5474-4BD3-A1CC-9641C626CFE7";
shapes = (
{
closed = 1;
nodes = (
(132,620,ls),
(64,620,o),
(12,568,o),
(13,500,cs),
(13,120,ls),
(12,52,o),
(64,0,o),
(132,0,cs),
(295,0,ls),
(323,0,o),
(349,9,o),
(369,24,c),
(389,9,o),
(415,0,o),
(443,0,cs),
(522,0,l),
(522,90,l),
(444,90,ls),
(427,90,o),
(414,103,o),
(414,120,cs),
(414,500,ls),
(414,517,o),
(427,530,o),
(444,530,cs),
(522,530,l),
(522,620,l),
(443,620,ls),
(415,620,o),
(389,611,o),
(369,596,c),
(349,611,o),
(323,620,o),
(295,620,cs)
);
},
{
closed = 1;
nodes = (
(311,530,o),
(324,517,o),
(324,500,cs),
(324,120,ls),
(324,103,o),
(311,90,o),
(294,90,cs),
(133,90,ls),
(116,90,o),
(103,103,o),
(103,120,cs),
(103,500,ls),
(103,517,o),
(116,530,o),
(133,530,cs),
(294,530,ls)
);
}
);
width = 536;
},
{
anchors = (
{
name = bottom;
pos = (268,0);
},
{
name = top;
pos = (268,620);
}
);
layerId = "D8CC3DFA-F3EA-4C7D-84FB-05FCEA5C6558";
shapes = (
{
closed = 1;
nodes = (
(146,620,ls),
(78,620,o),
(26,568,o),
(27,500,cs),
(27,120,ls),
(26,52,o),
(78,0,o),
(146,0,cs),
(264,0,ls),
(310,0,o),
(348,23,o),
(368,59,c),
(388,23,o),
(426,0,o),
(472,0,cs),
(509,0,l),
(509,30,l),
(472,30,ls),
(422,30,o),
(383,66,o),
(383,116,cs),
(383,504,ls),
(383,554,o),
(422,590,o),
(472,590,cs),
(509,590,l),
(509,620,l),
(472,620,ls),
(426,620,o),
(388,597,o),
(368,561,c),
(348,597,o),
(310,620,o),
(264,620,cs)
);
},
{
closed = 1;
nodes = (
(314,590,o),
(353,554,o),
(353,504,cs),
(353,116,ls),
(353,66,o),
(314,30,o),
(264,30,cs),
(146,30,ls),
(95,30,o),
(56,69,o),
(57,120,cs),
(57,500,ls),
(56,551,o),
(95,590,o),
(146,590,cs),
(264,590,ls)
);
}
);
width = 536;
}
);
unicode = 11373;
},
{
glyphname = AE;
lastChange = "2025-07-27 18:34:23 +0000";
layers = (
{
anchors = (
{
name = bottom;
pos = (268,0);
},
{
name = top;
pos = (268,620);
}
);
layerId = m01;
shapes = (
{
closed = 1;
nodes = (
(101,0,l),
(100,500,ls),
(99,534,o),
(125,560,o),
(159,560,cs),
(496,560,l),
(496,620,l),
(159,620,ls),
(91,620,o),
(39,568,o),
(40,500,cs),
(41,0,l)
);
},
{
closed = 1;
nodes = (
(460,330,l),
(460,390,l),
(69,390,l),
(69,330,l)
);
},
{
closed = 1;
nodes = (
(496,0,l),
(496,60,l),
(287,60,l),
(317,25,l),
(316,595,l),
(256,595,l),
(257,0,l)
);
}
);
width = 536;
},
{
anchors = (
{
name = bottom;
pos = (268,0);
},
{
name = top;
pos = (268,620);
}
);
layerId = "BDCBA76E-5474-4BD3-A1CC-9641C626CFE7";
shapes = (
{
closed = 1;
nodes = (
(131,0,l),
(130,500,ls),
(130,517,o),
(143,530,o),
(160,530,cs),
(496,530,l),
(496,620,l),
(159,620,ls),
(91,620,o),
(39,568,o),
(40,500,cs),
(41,0,l)
);
},
{
closed = 1;
nodes = (
(460,290,l),
(460,380,l),
(82,380,l),
(82,290,l)
);
},
{
closed = 1;
nodes = (
(496,0,l),
(496,90,l),
(287,90,l),
(332,45,l),
(331,588,l),
(241,588,l),
(242,0,l)
);
}
);
width = 536;
},
{
anchors = (
{
name = bottom;
pos = (268,0);
},
{
name = top;
pos = (268,620);
}
);
layerId = "D8CC3DFA-F3EA-4C7D-84FB-05FCEA5C6558";
shapes = (
{
closed = 1;
nodes = (
(71,0,l),
(70,500,ls),
(69,551,o),
(108,590,o),
(159,590,cs),
(496,590,l),
(496,620,l),
(159,620,ls),
(91,620,o),
(39,568,o),
(40,500,cs),
(41,0,l)
);
},
{
closed = 1;
nodes = (
(460,346,l),
(460,376,l),
(56,376,l),
(56,346,l)
);
},
{
closed = 1;
nodes = (
(496,0,l),
(496,30,l),
(288,30,l),
(302,15,l),
(301,607,l),
(271,607,l),
(272,0,l)
);
}
);
width = 536;
}
);
unicode = 198;
},
{
color = 4;
glyphname = B;
lastChange = "2025-07-29 22:36:48 +0000";
layers = (
{
anchors = (
{
name = bottom;
pos = (268,0);
},
{
name = center;
pos = (134,155);
},
{
name = top;
pos = (268,620);
}
);
layerId = m01;
shapes = (
{
closed = 1;
nodes = (
(367,0,ls),
(435,0,o),
(487,52,o),
(486,120,cs),
(486,270,ls),
(487,307,o),
(471,339,o),
(448,360,c),
(471,381,o),
(487,413,o),
(486,450,cs),
(486,500,ls),
(487,568,o),
(435,620,o),
(367,620,cs),
(50,620,l),
(50,0,l)
);
},
{
closed = 1;
nodes = (
(110,587,l),
(82,560,l),
(367,560,ls),
(401,560,o),
(427,534,o),
(426,500,cs),
(426,450,ls),
(427,416,o),
(401,390,o),
(367,390,cs),
(80,390,l),
(80,330,l),
(367,330,ls),
(401,330,o),
(427,304,o),
(426,270,cs),
(426,120,ls),
(427,86,o),
(401,60,o),
(367,60,cs),
(80,60,l),
(110,30,l)
);
}
);
width = 536;
},
{
anchors = (
{
name = bottom;
pos = (268,0);
},
{
name = center;
pos = (134,155);
},
{
name = top;
pos = (268,620);
}
);
layerId = "BDCBA76E-5474-4BD3-A1CC-9641C626CFE7";
shapes = (
{
closed = 1;
nodes = (
(367,0,ls),
(435,0,o),
(487,52,o),
(486,120,cs),
(486,260,ls),
(486,288,o),
(478,314,o),
(462,335,c),
(477,355,o),
(486,382,o),
(486,410,cs),
(486,500,ls),
(487,568,o),
(435,620,o),
(367,620,cs),
(50,620,l),
(50,0,l)
);
},
{
closed = 1;
nodes = (
(140,575,l),
(95,530,l),
(366,530,ls),
(383,530,o),
(396,517,o),
(396,500,cs),
(396,410,ls),
(396,393,o),
(383,380,o),
(366,380,cs),
(96,380,l),
(96,290,l),
(366,290,ls),
(383,290,o),
(396,277,o),
(396,260,cs),
(396,120,ls),
(396,103,o),
(383,90,o),
(366,90,cs),
(95,90,l),
(140,45,l)
);
}
);
width = 536;
},
{
anchors = (
{
name = bottom;
pos = (268,0);
},
{
name = center;
pos = (134,155);
},
{
name = top;
pos = (268,620);
}
);
layerId = "D8CC3DFA-F3EA-4C7D-84FB-05FCEA5C6558";
shapes = (
{
closed = 1;
nodes = (
(367,0,ls),
(435,0,o),
(487,52,o),
(486,120,cs),
(486,270,ls),
(487,317,o),
(463,355,o),
(427,375,c),
(463,395,o),
(487,433,o),
(486,480,cs),
(486,500,ls),
(487,568,o),
(435,620,o),
(367,620,cs),
(50,620,l),
(50,0,l)
);
},
{
closed = 1;
nodes = (
(80,606,l),
(65,590,l),
(367,590,ls),
(418,590,o),
(457,551,o),
(456,500,cs),
(456,480,ls),
(457,429,o),
(418,390,o),
(367,390,cs),
(65,390,l),
(65,360,l),
(367,360,ls),
(418,360,o),
(457,321,o),
(456,270,cs),
(456,120,ls),
(457,69,o),
(418,30,o),
(367,30,cs),
(64,30,l),
(80,14,l)
);
}
);
width = 536;
}
);
unicode = 66;
},
{
glyphname = Bhook;
lastChange = "2025-07-27 18:36:17 +0000";
layers = (
{
anchors = (
{
name = bottom;
pos = (268,0);
},
{
name = top;
pos = (268,620);
}
);
layerId = m01;
shapes = (
{
closed = 1;
nodes = (
(399,0,ls),
(467,0,o),
(519,52,o),
(518,120,cs),
(518,270,ls),
(519,307,o),
(503,339,o),
(480,360,c),
(503,381,o),
(519,413,o),
(518,450,cs),
(518,500,ls),
(519,568,o),
(467,620,o),
(399,620,cs),
(127,620,ls),
(59,620,o),
(7,568,o),
(7,500,cs),
(7,466,l),
(67,466,l),
(67,500,ls),
(67,534,o),
(93,560,o),
(127,560,cs),
(132,560,l),
(132,0,l)
);
},
{
closed = 1;
nodes = (
(192,592,l),
(161,560,l),
(399,560,ls),
(433,560,o),
(459,534,o),
(458,500,cs),
(458,450,ls),
(459,416,o),
(433,390,o),
(399,390,cs),
(161,390,l),
(161,330,l),
(399,330,ls),
(433,330,o),
(459,304,o),
(458,270,cs),
(458,120,ls),
(459,86,o),
(433,60,o),
(399,60,cs),
(161,60,l),
(192,31,l)
);
}
);
width = 536;
},
{
anchors = (
{
name = bottom;
pos = (268,0);
},
{
name = top;
pos = (268,620);
}
);
layerId = "BDCBA76E-5474-4BD3-A1CC-9641C626CFE7";
shapes = (
{
closed = 1;
nodes = (
(408,0,ls),
(476,-1,o),
(528,51,o),
(528,119,cs),
(528,271,ls),
(528,299,o),
(519,325,o),
(504,345,c),
(519,365,o),
(528,391,o),
(528,419,cs),
(528,501,ls),
(528,569,o),
(476,621,o),
(408,620,cs),
(151,620,ls),
(69,620,o),
(7,558,o),
(7,476,cs),
(7,466,l),
(97,466,l),
(97,470,ls),
(97,504,o),
(123,530,o),
(157,530,cs),
(162,530,l),
(162,0,l)
);
},
{
closed = 1;
nodes = (
(252,575,l),
(207,530,l),
(408,530,ls),
(425,530,o),
(438,517,o),
(438,500,cs),
(438,420,ls),
(438,403,o),
(425,390,o),
(408,390,cs),
(207,390,l),
(207,300,l),
(408,300,ls),
(425,300,o),
(438,287,o),
(438,270,cs),
(438,120,ls),
(438,103,o),
(425,90,o),
(408,90,cs),
(207,90,l),
(252,45,l)
);
}
);
width = 536;
},
{
anchors = (
{
name = bottom;
pos = (268,0);
},
{
name = top;
pos = (268,620);
}
);
layerId = "D8CC3DFA-F3EA-4C7D-84FB-05FCEA5C6558";
shapes = (
{
closed = 1;
nodes = (
(399,0,ls),
(467,0,o),
(519,52,o),
(518,120,cs),
(518,270,ls),
(519,317,o),
(495,355,o),
(459,375,c),
(495,395,o),
(519,433,o),
(518,480,cs),
(518,500,ls),
(519,568,o),
(467,620,o),
(399,620,cs),
(127,620,ls),
(59,620,o),
(7,568,o),
(7,500,cs),
(7,466,l),
(37,466,l),
(37,500,ls),
(37,551,o),
(76,590,o),
(127,590,cs),
(132,590,l),
(132,0,l)
);
},
{
closed = 1;
nodes = (
(162,605,l),
(147,590,l),
(399,590,ls),
(450,590,o),
(489,551,o),
(488,500,cs),
(488,480,ls),
(489,429,o),
(450,390,o),
(399,390,cs),
(145,390,l),
(145,360,l),
(399,360,ls),
(450,360,o),
(489,321,o),
(488,270,cs),
(488,120,ls),
(489,69,o),
(450,30,o),
(399,30,cs),
(145,30,l),
(162,13,l)
);
}
);
width = 536;
}
);
unicode = 385;
},
{
glyphname = Bstroke;
lastChange = "2025-07-22 00:40:40 +0000";
layers = (
{
layerId = m01;
shapes = (
{
ref = B;
},
{
closed = 1;
nodes = (
(10,220,l),
(10,170,l),
(250,170,l),
(250,220,l)
);
}
);
width = 536;
},
{
layerId = "BDCBA76E-5474-4BD3-A1CC-9641C626CFE7";
shapes = (
{
ref = B;
},
{
closed = 1;
nodes = (
(10,240,l),
(10,150,l),
(250,150,l),
(250,240,l)
);
}
);
width = 536;
},
{
layerId = "D8CC3DFA-F3EA-4C7D-84FB-05FCEA5C6558";
shapes = (
{
ref = B;
},
{
closed = 1;
nodes = (
(10,209,l),
(10,179,l),
(250,179,l),
(250,209,l)
);
}
);
width = 536;
}
);
unicode = 579;
},
{
color = 4;
glyphname = C;
lastChange = "2025-07-26 02:24:09 +0000";
layers = (
{
anchors = (
{
name = bottom;
pos = (325,0);
},
{
name = top;
pos = (268,620);
}
);
layerId = m01;
shapes = (
{
closed = 1;
nodes = (
(101,620,o),
(49,568,o),
(50,500,cs),
(50,120,ls),
(49,52,o),
(101,0,o),
(169,0,cs),
(486,0,l),
(486,60,l),
(169,60,ls),
(135,60,o),
(109,86,o),
(110,120,cs),
(110,500,ls),
(109,534,o),
(135,560,o),
(169,560,cs),
(486,560,l),
(486,620,l),
(169,620,ls)
);
}
);
width = 536;
},
{
anchors = (
{
name = bottom;
pos = (325,0);
},
{
name = top;
pos = (268,620);
}
);
layerId = "BDCBA76E-5474-4BD3-A1CC-9641C626CFE7";
shapes = (
{
closed = 1;
nodes = (
(101,620,o),
(49,568,o),
(50,500,cs),
(50,120,ls),
(49,52,o),
(101,0,o),
(169,0,cs),
(486,0,l),
(486,90,l),
(170,90,ls),
(153,90,o),
(140,103,o),
(140,120,cs),
(140,500,ls),
(140,517,o),
(153,530,o),
(170,530,cs),
(486,530,l),
(486,620,l),
(169,620,ls)
);
}
);
width = 536;
},
{
anchors = (
{
name = bottom;
pos = (325,0);
},
{
name = top;
pos = (268,620);
}
);
layerId = "D8CC3DFA-F3EA-4C7D-84FB-05FCEA5C6558";
shapes = (
{
closed = 1;
nodes = (
(101,620,o),
(49,568,o),
(50,500,cs),
(50,120,ls),
(49,52,o),
(101,0,o),
(169,0,cs),
(486,0,l),
(486,30,l),
(169,30,ls),
(118,30,o),
(79,69,o),
(80,120,cs),
(80,500,ls),
(79,551,o),
(118,590,o),
(169,590,cs),
(486,590,l),
(486,620,l),
(169,620,ls)
);
}
);
width = 536;
}
);
unicode = 67;
},
{
glyphname = Chook;
lastChange = "2025-07-27 18:38:41 +0000";
layers = (
{
anchors = (
{
name = bottom;
pos = (268,0);
},
{
name = top;
pos = (268,620);
}
);
layerId = m01;
shapes = (
{
closed = 1;
nodes = (
(461,0,l),
(461,60,l),
(144,60,ls),
(110,60,o),
(84,86,o),
(85,120,cs),
(85,500,ls),
(84,534,o),
(110,560,o),
(144,560,cs),
(461,560,l),
(461,654,ls),
(461,688,o),
(487,714,o),
(521,714,cs),
(526,714,l),
(526,774,l),
(521,774,ls),
(453,774,o),
(401,722,o),
(401,654,cs),
(401,595,l),
(432,620,l),
(144,620,ls),
(76,620,o),
(24,568,o),
(25,500,cs),
(25,120,ls),
(24,52,o),
(76,0,o),
(144,0,cs)
);
}
);
width = 536;
},
{
anchors = (
{
name = bottom;
pos = (268,0);
},
{
name = top;
pos = (268,620);
}
);
layerId = "BDCBA76E-5474-4BD3-A1CC-9641C626CFE7";
shapes = (
{
closed = 1;
nodes = (
(461,0,l),
(461,90,l),
(145,90,ls),
(128,90,o),
(115,103,o),
(115,120,cs),
(115,500,ls),
(115,517,o),
(128,530,o),
(145,530,cs),
(461,530,l),
(461,624,ls),
(461,658,o),
(487,684,o),
(521,684,cs),
(526,684,l),
(526,774,l),
(515,774,ls),
(433,774,o),
(371,712,o),
(371,630,cs),
(371,575,l),
(416,620,l),
(144,620,ls),
(76,620,o),
(24,568,o),
(25,500,cs),
(25,120,ls),
(24,52,o),
(76,0,o),
(144,0,cs)
);
}
);
width = 536;
},
{
anchors = (
{
name = bottom;
pos = (268,0);
},
{
name = top;
pos = (268,620);
}
);
layerId = "D8CC3DFA-F3EA-4C7D-84FB-05FCEA5C6558";
shapes = (
{
closed = 1;
nodes = (
(461,0,l),
(461,30,l),
(144,30,ls),
(93,30,o),
(54,69,o),
(55,120,cs),
(55,500,ls),
(54,551,o),
(93,590,o),
(144,590,cs),
(431,590,l),
(431,654,ls),
(431,705,o),
(470,744,o),
(521,744,cs),
(526,744,l),
(526,774,l),
(521,774,ls),
(453,774,o),
(401,722,o),
(401,654,cs),
(401,607,l),
(416,620,l),
(144,620,ls),
(76,620,o),
(24,568,o),
(25,500,cs),
(25,120,ls),
(24,52,o),
(76,0,o),
(144,0,cs)
);
}
);
width = 536;
}
);
unicode = 391;
},
{
color = 4;
glyphname = D;
lastChange = "2025-07-26 02:28:23 +0000";
layers = (
{
anchors = (
{
name = bottom;
pos = (268,0);
},
{
name = center;
pos = (268,310);
},
{
name = top;
pos = (268,620);
}
);
layerId = m01;
shapes = (
{
closed = 1;
nodes = (
(401,560,o),
(427,534,o),
(426,500,cs),
(426,120,ls),
(427,86,o),
(401,60,o),
(367,60,cs),
(77,60,l),
(110,33,l),
(110,585,l),
(77,560,l),
(367,560,ls)
);
},
{
closed = 1;
nodes = (
(50,620,l),
(50,0,l),
(367,0,ls),
(435,0,o),
(487,52,o),
(486,120,cs),
(486,500,ls),
(487,568,o),
(435,620,o),
(367,620,cs)
);
}
);
width = 536;
},
{
anchors = (
{
name = bottom;
pos = (268,0);
},
{
name = center;
pos = (268,310);
},
{
name = top;
pos = (268,620);
}
);
layerId = "BDCBA76E-5474-4BD3-A1CC-9641C626CFE7";
shapes = (
{
closed = 1;
nodes = (
(383,530,o),
(396,517,o),
(396,500,cs),
(396,120,ls),
(396,103,o),
(383,90,o),
(366,90,cs),
(95,90,l),
(140,45,l),
(140,575,l),
(95,530,l),
(366,530,ls)
);
},
{
closed = 1;
nodes = (
(50,620,l),
(50,0,l),
(366,0,ls),
(434,-1,o),
(486,51,o),
(486,119,cs),
(486,501,ls),
(486,569,o),
(434,621,o),
(366,620,cs)
);
}
);
width = 536;
},
{
anchors = (
{
name = bottom;
pos = (268,0);
},
{
name = center;
pos = (268,310);
},
{
name = top;
pos = (268,620);
}
);
layerId = "D8CC3DFA-F3EA-4C7D-84FB-05FCEA5C6558";
shapes = (
{
closed = 1;
nodes = (
(418,590,o),
(457,551,o),
(456,500,cs),
(456,120,ls),
(457,69,o),
(418,30,o),
(367,30,cs),
(64,30,l),
(80,16,l),
(80,605,l),
(65,590,l),
(367,590,ls)
);
},
{
closed = 1;
nodes = (
(50,620,l),
(50,0,l),
(367,0,ls),
(435,0,o),
(487,52,o),
(486,120,cs),
(486,500,ls),
(487,568,o),
(435,620,o),
(367,620,cs)
);
}
);
width = 536;
}
);
unicode = 68;
},
{
glyphname = Dcroat;
lastChange = "2025-07-22 00:41:04 +0000";
layers = (
{
layerId = m01;
shapes = (
{
pos = (30,0);
ref = D;
},
{
closed = 1;
nodes = (
(20,335,l),
(20,285,l),
(302,285,l),
(302,335,l)
);
}
);
width = 536;
},
{
layerId = "BDCBA76E-5474-4BD3-A1CC-9641C626CFE7";
shapes = (
{
pos = (30,0);
ref = D;
},
{
closed = 1;
nodes = (
(20,355,l),
(20,265,l),
(302,265,l),
(302,355,l)
);
}
);
width = 536;
},
{
layerId = "D8CC3DFA-F3EA-4C7D-84FB-05FCEA5C6558";
shapes = (
{
pos = (30,0);
ref = D;
},
{
closed = 1;
nodes = (
(20,325,l),
(20,295,l),
(302,295,l),
(302,325,l)
);
}
);
width = 536;
}
);
unicode = 272;
},
{
glyphname = Dhook;
lastChange = "2025-07-27 18:49:56 +0000";
layers = (
{
anchors = (
{
name = bottom;
pos = (268,0);
},
{
name = top;
pos = (268,620);
}
);
layerId = m01;
shapes = (
{
closed = 1;
nodes = (
(76,500,ls),
(76,534,o),
(102,560,o),
(136,560,cs),
(160,560,l),
(140,582,l),
(140,0,l),
(397,0,ls),
(465,0,o),
(517,52,o),
(516,120,cs),
(516,500,ls),
(517,568,o),
(465,620,o),
(397,620,cs),
(136,620,ls),
(68,620,o),
(16,568,o),
(16,500,cs),
(16,466,l),
(76,466,l)
);
},
{
closed = 1;
nodes = (
(200,582,l),
(178,560,l),
(397,560,ls),
(431,560,o),
(457,534,o),
(456,500,cs),
(456,120,ls),
(457,86,o),
(431,60,o),
(397,60,cs),
(174,60,l),
(200,31,l)
);
}
);
width = 536;
},
{
anchors = (
{
name = bottom;
pos = (268,0);
},
{
name = top;
pos = (268,620);
}
);
layerId = "BDCBA76E-5474-4BD3-A1CC-9641C626CFE7";
shapes = (
{
closed = 1;
nodes = (
(96,470,ls),
(96,504,o),
(122,530,o),
(156,530,cs),
(190,530,l),
(160,575,l),
(160,0,l),
(396,0,ls),
(464,-1,o),
(516,51,o),
(516,119,cs),
(516,501,ls),
(516,569,o),
(464,621,o),
(396,620,cs),
(150,620,ls),
(68,620,o),
(6,558,o),
(6,476,cs),
(6,466,l),
(96,466,l)
);
},
{
closed = 1;
nodes = (
(250,575,l),
(226,530,l),
(396,530,ls),
(413,530,o),
(426,517,o),
(426,500,cs),
(426,120,ls),
(426,103,o),
(413,90,o),
(396,90,cs),
(205,90,l),
(250,45,l)
);
}
);
width = 536;
},
{
anchors = (
{
name = bottom;
pos = (268,0);
},
{
name = top;
pos = (268,620);
}
);
layerId = "D8CC3DFA-F3EA-4C7D-84FB-05FCEA5C6558";
shapes = (
{
closed = 1;
nodes = (
(46,500,ls),
(46,551,o),
(85,590,o),
(136,590,cs),
(151,590,l),
(140,603,l),
(140,0,l),
(397,0,ls),
(465,0,o),
(517,52,o),
(516,120,cs),
(516,500,ls),
(517,568,o),
(465,620,o),
(397,620,cs),
(136,620,ls),
(68,620,o),
(16,568,o),
(16,500,cs),
(16,466,l),
(46,466,l)
);
},
{
closed = 1;
nodes = (
(170,603,l),
(158,590,l),
(397,590,ls),
(448,590,o),
(487,551,o),
(486,500,cs),
(486,120,ls),
(487,69,o),
(448,30,o),
(397,30,cs),
(154,30,l),
(170,14,l)
);
}
);
width = 536;
}
);
unicode = 394;
},
{
glyphname = Dtail;
lastChange = "2025-07-22 00:41:13 +0000";
layers = (
{
layerId = m01;
shapes = (
{
ref = D;
},
{
closed = 1;
nodes = (
(10,280,l),
(290,280,l),
(290,340,l),
(10,340,l)
);
}
);
width = 536;
},
{
layerId = "BDCBA76E-5474-4BD3-A1CC-9641C626CFE7";
shapes = (
{
ref = D;
},
{
closed = 1;
nodes = (
(10,260,l),
(290,260,l),
(290,360,l),
(10,360,l)
);
}
);
width = 536;
},
{
layerId = "D8CC3DFA-F3EA-4C7D-84FB-05FCEA5C6558";
shapes = (
{
ref = D;
},
{
closed = 1;
nodes = (
(10,295,l),
(290,295,l),
(290,325,l),
(10,325,l)
);
}
);
width = 536;
}
);
unicode = 393;
},
{
color = 4;
glyphname = E;
lastChange = "2025-07-09 22:43:11 +0000";
layers = (
{
anchors = (
{
name = bottom;
pos = (268,0);
},
{
name = ogonek;
pos = (482,10);
},
{
name = top;
pos = (268,620);
},
{
name = topleft;
pos = (20,620);
}
);
layerId = m01;
shapes = (
{
closed = 1;
nodes = (
(50,0,l),
(486,0,l),
(486,60,l),
(76,60,l),
(110,28,l),
(110,590,l),
(76,560,l),
(486,560,l),
(486,620,l),
(50,620,l)
);
},
{
closed = 1;
nodes = (
(76,330,l),
(410,330,l),
(410,390,l),
(76,390,l)
);
}
);
width = 536;
},
{
anchors = (
{
name = bottom;
pos = (268,0);
},
{
name = ogonek;
pos = (482,10);
},
{
name = top;
pos = (268,620);
},
{
name = topleft;
pos = (20,620);
}
);
layerId = "BDCBA76E-5474-4BD3-A1CC-9641C626CFE7";
shapes = (
{
closed = 1;
nodes = (
(50,0,l),
(486,0,l),
(486,90,l),
(116,90,l),
(140,28,l),
(140,590,l),
(116,530,l),
(486,530,l),
(486,620,l),
(50,620,l)
);
},
{
closed = 1;
nodes = (
(116,290,l),
(410,290,l),
(410,380,l),
(116,380,l)
);
}
);
width = 536;
},
{
anchors = (
{
name = bottom;
pos = (268,0);
},
{
name = ogonek;
pos = (486,0);
},
{
name = top;
pos = (268,620);
},
{
name = topleft;
pos = (20,620);
}
);
layerId = "D8CC3DFA-F3EA-4C7D-84FB-05FCEA5C6558";
shapes = (
{
closed = 1;
nodes = (
(50,0,l),
(486,0,l),
(486,30,l),
(66,30,l),
(80,12,l),
(80,607,l),
(66,590,l),
(486,590,l),
(486,620,l),
(50,620,l)
);
},
{
closed = 1;
nodes = (
(66,360,l),
(410,360,l),
(410,390,l),
(66,390,l)
);
}
);
width = 536;
}
);
unicode = 69;
},
{
glyphname = Eopen;
lastChange = "2025-07-26 22:35:32 +0000";
layers = (
{
anchors = (
{
name = bottom;
pos = (268,0);
},
{
name = top;
pos = (268,620);
}
);
layerId = m01;
shapes = (
{
closed = 1;
nodes = (
(486,620,l),
(169,620,ls),
(101,620,o),
(49,568,o),
(50,500,cs),
(50,450,ls),
(49,413,o),
(65,381,o),
(88,360,c),
(65,339,o),
(49,307,o),
(50,270,cs),
(50,120,ls),
(49,52,o),
(101,0,o),
(169,0,cs),
(486,0,l),
(486,60,l),
(169,60,ls),
(135,60,o),
(109,86,o),
(110,120,cs),
(110,270,ls),
(109,304,o),
(135,330,o),
(169,330,cs),
(410,330,l),
(410,390,l),
(169,390,ls),
(135,390,o),
(109,416,o),
(110,450,cs),
(110,500,ls),
(109,534,o),
(135,560,o),
(169,560,cs),
(486,560,l)
);
}
);
width = 536;
},
{
anchors = (
{
name = bottom;
pos = (268,0);
},
{
name = top;
pos = (268,620);
}
);
layerId = "BDCBA76E-5474-4BD3-A1CC-9641C626CFE7";
shapes = (
{
closed = 1;
nodes = (
(486,620,l),
(169,620,ls),
(101,620,o),
(49,568,o),
(50,500,cs),
(50,420,ls),
(50,392,o),
(58,366,o),
(74,345,c),
(59,325,o),
(50,298,o),
(50,270,cs),
(50,120,ls),
(49,52,o),
(101,0,o),
(169,0,cs),
(486,0,l),
(486,90,l),
(170,90,ls),
(153,90,o),
(140,103,o),
(140,120,cs),
(140,270,ls),
(140,287,o),
(153,300,o),
(170,300,cs),
(410,300,l),
(410,390,l),
(170,390,ls),
(153,390,o),
(140,403,o),
(140,420,cs),
(140,500,ls),
(140,517,o),
(153,530,o),
(170,530,cs),
(486,530,l)
);
}
);
width = 536;
},
{
anchors = (
{
name = bottom;
pos = (268,0);
},
{
name = top;
pos = (268,620);
}
);
layerId = "D8CC3DFA-F3EA-4C7D-84FB-05FCEA5C6558";
shapes = (
{
closed = 1;
nodes = (
(486,620,l),
(169,620,ls),
(101,620,o),
(49,568,o),
(50,500,cs),
(50,480,ls),
(49,433,o),
(73,395,o),
(109,375,c),
(73,355,o),
(49,317,o),
(50,270,cs),
(50,120,ls),
(49,52,o),
(101,0,o),
(169,0,cs),
(486,0,l),
(486,30,l),
(169,30,ls),
(118,30,o),
(79,69,o),
(80,120,cs),
(80,270,ls),
(79,321,o),
(118,360,o),
(169,360,cs),
(410,360,l),
(410,390,l),
(169,390,ls),
(118,390,o),
(79,429,o),
(80,480,cs),
(80,500,ls),
(79,551,o),
(118,590,o),
(169,590,cs),
(486,590,l)
);
}
);
width = 536;
}
);
unicode = 400;
},
{
glyphname = Esh;
lastChange = "2025-07-13 00:12:16 +0000";
layers = (
{
hints = (
{
name = _corner.round;
origin = (0,1);
scale = (0.5,0.5);
type = Corner;
},
{
name = _corner.round;
origin = (0,2);
scale = (0.5,0.5);
type = Corner;
},
{
name = _corner.round;
origin = (0,3);
scale = (0.5,0.5);
type = Corner;
}
);
layerId = m01;
shapes = (
{
attr = {
strokeWidth = 60;
};
closed = 0;
nodes = (
(483,587,l),
(59,587,l),
(295,353,l),
(59,31,l),
(483,31,l)
);
}
);
width = 536;
},
{
hints = (
{
name = _corner.round;
origin = (0,1);
scale = (0.5,0.5);
type = Corner;
},
{
name = _corner.round;
origin = (0,2);
scale = (0.2,0.2);
type = Corner;
},
{
name = _corner.round;
origin = (0,3);
scale = (0.5,0.5);
type = Corner;
}
);
layerId = "BDCBA76E-5474-4BD3-A1CC-9641C626CFE7";
shapes = (
{
attr = {
strokeWidth = 90;
};
closed = 0;
nodes = (
(483,575,l),
(59,575,l),
(295,353,l),
(59,45,l),
(483,45,l)
);
}
);
width = 536;
},
{
hints = (
{
name = _corner.round;
origin = (0,1);
scale = (0.5,0.5);
type = Corner;
},
{
name = _corner.round;
origin = (0,2);
scale = (0.5,0.5);
type = Corner;
},
{
name = _corner.round;
origin = (0,3);
scale = (0.5,0.5);
type = Corner;
}
);
layerId = "D8CC3DFA-F3EA-4C7D-84FB-05FCEA5C6558";
shapes = (
{
attr = {
strokeWidth = 30;
};
closed = 0;
nodes = (
(483,604,l),
(59,604,l),
(295,353,l),
(59,15,l),
(483,15,l)
);
}
);
width = 536;
}
);
unicode = 425;
},
{
glyphname = Schwa;
lastChange = "2025-07-26 22:43:30 +0000";
layers = (
{
anchors = (
{
name = bottom;
pos = (268,0);
},
{
name = top;
pos = (268,620);
}
);
layerId = m01;
shapes = (
{
closed = 1;
nodes = (
(367,560,ls),
(401,560,o),
(427,534,o),
(426,500,cs),
(426,120,ls),
(427,86,o),
(401,60,o),
(367,60,cs),
(169,60,ls),
(135,60,o),
(109,86,o),
(110,120,cs),
(110,220,ls),
(109,254,o),
(135,280,o),
(169,280,cs),
(454,280,l),
(454,340,l),
(169,340,ls),
(101,340,o),
(49,288,o),
(50,220,cs),
(50,120,ls),
(49,52,o),
(101,0,o),
(169,0,cs),
(367,0,ls),
(435,0,o),
(487,52,o),
(486,120,cs),
(486,500,ls),
(487,568,o),
(435,620,o),
(367,620,cs),
(50,620,l),
(50,560,l)
);
}
);
width = 536;
},
{
anchors = (
{
name = bottom;
pos = (268,0);
},
{
name = top;
pos = (268,620);
}
);
layerId = "BDCBA76E-5474-4BD3-A1CC-9641C626CFE7";
shapes = (
{
closed = 1;
nodes = (
(366,530,ls),
(383,530,o),
(396,517,o),
(396,500,cs),
(396,120,ls),
(396,103,o),
(383,90,o),
(366,90,cs),
(170,90,ls),
(153,90,o),
(140,103,o),
(140,120,cs),
(140,260,ls),
(140,277,o),
(153,290,o),
(170,290,cs),
(442,290,l),
(442,380,l),
(169,380,ls),
(101,380,o),
(49,328,o),
(50,260,cs),
(50,119,ls),
(50,51,o),
(102,-1,o),
(170,0,cs),
(366,0,ls),
(434,-1,o),
(486,51,o),
(486,119,cs),
(486,501,ls),
(486,569,o),
(434,621,o),
(366,620,cs),
(50,620,l),
(50,530,l)
);
}
);
width = 536;
},
{
anchors = (
{
name = bottom;
pos = (268,0);
},
{
name = top;
pos = (268,620);
}
);
layerId = "D8CC3DFA-F3EA-4C7D-84FB-05FCEA5C6558";
shapes = (
{
closed = 1;
nodes = (
(367,590,ls),
(418,590,o),
(457,551,o),
(456,500,cs),
(456,120,ls),
(457,69,o),
(418,30,o),
(367,30,cs),
(169,30,ls),
(118,30,o),
(79,69,o),
(80,120,cs),
(80,220,ls),
(79,271,o),
(118,310,o),
(169,310,cs),
(471,310,l),
(471,340,l),
(169,340,ls),
(101,340,o),
(49,288,o),
(50,220,cs),
(50,120,ls),
(49,52,o),
(101,0,o),
(169,0,cs),
(367,0,ls),
(435,0,o),
(487,52,o),
(486,120,cs),
(486,500,ls),
(487,568,o),
(435,620,o),
(367,620,cs),
(50,620,l),
(50,590,l)
);
}
);
width = 536;
}
);
unicode = 399;
},
{
glyphname = Ezh;
lastChange = "2025-07-26 22:51:09 +0000";
layers = (
{
anchors = (
{
name = bottom;
pos = (268,0);
},
{
name = top;
pos = (268,620);
}
);
layerId = m01;
shapes = (
{
closed = 1;
nodes = (
(54,0,l),
(371,0,ls),
(439,0,o),
(491,52,o),
(490,120,cs),
(490,270,ls),
(491,338,o),
(439,390,o),
(371,390,cs),
(252,390,l),
(264,359,l),
(467,548,ls),
(499,577,o),
(484,620,o),
(439,620,cs),
(45,620,l),
(45,560,l),
(438,560,l),
(426,591,l),
(210,390,l),
(210,330,l),
(371,330,ls),
(405,330,o),
(431,304,o),
(430,270,cs),
(430,120,ls),
(431,86,o),
(405,60,o),
(371,60,cs),
(54,60,l)
);
}
);
width = 536;
},
{
anchors = (
{
name = bottom;
pos = (268,0);
},
{
name = top;
pos = (268,620);
}
);
layerId = "BDCBA76E-5474-4BD3-A1CC-9641C626CFE7";
shapes = (
{
closed = 1;
nodes = (
(54,0,l),
(371,0,ls),
(439,0,o),
(491,52,o),
(490,120,cs),
(490,301,ls),
(490,369,o),
(438,421,o),
(370,420,cs),
(293,420,l),
(304,391,l),
(456,521,ls),
(501,562,o),
(477,620,o),
(419,620,cs),
(45,620,l),
(45,530,l),
(374,530,l),
(363,559,l),
(200,420,l),
(200,330,l),
(370,330,ls),
(387,330,o),
(400,317,o),
(400,300,cs),
(400,120,ls),
(400,103,o),
(387,90,o),
(370,90,cs),
(54,90,l)
);
}
);
width = 536;
},
{
anchors = (
{
name = bottom;
pos = (268,0);
},
{
name = top;
pos = (268,620);
}
);
layerId = "D8CC3DFA-F3EA-4C7D-84FB-05FCEA5C6558";
shapes = (
{
closed = 1;
nodes = (
(54,0,l),
(371,0,ls),
(439,0,o),
(491,52,o),
(490,120,cs),
(490,270,ls),
(491,338,o),
(439,390,o),
(371,390,cs),
(224,390,l),
(233,371,l),
(457,573,ls),
(479,593,o),
(470,619,o),
(439,619,cs),
(45,619,l),
(45,589,l),
(450,589,l),
(450,607,l),
(210,390,l),
(210,360,l),
(371,360,ls),
(422,360,o),
(461,321,o),
(460,270,cs),
(460,120,ls),
(461,69,o),
(422,30,o),
(371,30,cs),
(54,30,l)
);
}
);
width = 536;
}
);
unicode = 439;
},
{
color = 4;
glyphname = F;
lastChange = "2025-07-09 22:43:37 +0000";
layers = (
{
anchors = (
{
name = bottom;
pos = (268,0);
},
{
name = top;
pos = (268,620);
}
);
layerId = m01;
shapes = (
{
closed = 1;
nodes = (
(50,0,l),
(110,0,l),
(110,595,l),
(81,560,l),
(486,560,l),
(486,620,l),
(50,620,l)
);
},
{
closed = 1;
nodes = (
(81,330,l),
(410,330,l),
(410,390,l),
(81,390,l)
);
}
);
width = 536;
},
{
anchors = (
{
name = bottom;
pos = (268,0);
},
{
name = top;
pos = (268,620);
}
);
layerId = "BDCBA76E-5474-4BD3-A1CC-9641C626CFE7";
shapes = (
{
closed = 1;
nodes = (
(50,0,l),
(140,0,l),
(140,571,l),
(101,530,l),
(486,530,l),
(486,620,l),
(50,620,l)
);
},
{
closed = 1;
nodes = (
(101,290,l),
(410,290,l),
(410,380,l),
(101,380,l)
);
}
);
width = 536;
},
{
anchors = (
{
name = bottom;
pos = (268,0);
},
{
name = top;
pos = (268,620);
}
);
layerId = "D8CC3DFA-F3EA-4C7D-84FB-05FCEA5C6558";
shapes = (
{
closed = 1;
nodes = (
(50,0,l),
(80,0,l),
(80,605,l),
(64,590,l),
(486,590,l),
(486,620,l),
(50,620,l)
);
},
{
closed = 1;
nodes = (
(64,360,l),
(410,360,l),
(410,390,l),
(64,390,l)
);
}
);
width = 536;
}
);
unicode = 70;
},
{
glyphname = Fhook;
lastChange = "2025-07-27 18:53:06 +0000";
layers = (
{
layerId = m01;
shapes = (
{
closed = 1;
nodes = (
(83,-34,ls),
(83,-68,o),
(57,-94,o),
(23,-94,cs),
(18,-94,l),
(18,-154,l),
(23,-154,ls),
(91,-154,o),
(143,-102,o),
(143,-34,cs),
(143,596,l),
(114,560,l),
(519,560,l),
(519,620,l),
(83,620,l)
);
},
{
closed = 1;
nodes = (
(114,330,l),
(443,330,l),
(443,390,l),
(114,390,l)
);
}
);
width = 536;
},
{
layerId = "BDCBA76E-5474-4BD3-A1CC-9641C626CFE7";
shapes = (
{
closed = 1;
nodes = (
(83,-4,ls),
(83,-38,o),
(57,-64,o),
(23,-64,cs),
(18,-64,l),
(18,-154,l),
(29,-154,ls),
(111,-154,o),
(173,-92,o),
(173,-10,cs),
(173,575,l),
(128,530,l),
(519,530,l),
(519,620,l),
(83,620,l)
);
},
{
closed = 1;
nodes = (
(134,290,l),
(443,290,l),
(443,380,l),
(134,380,l)
);
}
);
width = 536;
},
{
layerId = "D8CC3DFA-F3EA-4C7D-84FB-05FCEA5C6558";
shapes = (
{
closed = 1;
nodes = (
(113,-34,ls),
(113,-85,o),
(74,-124,o),
(23,-124,cs),
(18,-124,l),
(18,-154,l),
(23,-154,ls),
(91,-154,o),
(143,-102,o),
(143,-34,cs),
(143,604,l),
(126,590,l),
(519,590,l),
(519,620,l),
(113,620,l)
);
},
{
closed = 1;
nodes = (
(127,360,l),
(443,360,l),
(443,390,l),
(127,390,l)
);
}
);
width = 536;
}
);
unicode = 401;
},
{
color = 4;
glyphname = G;
lastChange = "2025-07-26 14:20:36 +0000";
layers = (
{
anchors = (
{
name = bottom;
pos = (268,0);
},
{
name = top;
pos = (268,620);
}
);
layerId = m01;
shapes = (
{
closed = 1;
nodes = (
(101,620,o),
(49,568,o),
(50,500,cs),
(50,120,ls),
(49,52,o),
(101,0,o),
(169,0,cs),
(367,0,ls),
(435,0,o),
(487,52,o),
(486,120,cs),
(486,270,ls),
(487,338,o),
(435,390,o),
(367,390,cs),
(221,390,l),
(221,330,l),
(367,330,ls),
(401,330,o),
(427,304,o),
(426,270,cs),
(426,120,ls),
(427,86,o),
(401,60,o),
(367,60,cs),
(169,60,ls),
(135,60,o),
(109,86,o),
(110,120,cs),
(110,500,ls),
(109,534,o),
(135,560,o),
(169,560,cs),
(446,560,l),
(446,620,l),
(169,620,ls)
);
}
);
width = 536;
},
{
anchors = (
{
name = bottom;
pos = (268,0);
},
{
name = top;
pos = (268,620);
}
);
layerId = "BDCBA76E-5474-4BD3-A1CC-9641C626CFE7";
shapes = (
{
closed = 1;
nodes = (
(101,620,o),
(49,568,o),
(50,500,cs),
(50,120,ls),
(49,52,o),
(101,0,o),
(169,0,cs),
(367,0,ls),
(435,0,o),
(487,52,o),
(486,120,cs),
(486,260,ls),
(487,328,o),
(435,380,o),
(367,380,cs),
(221,380,l),
(221,290,l),
(366,290,ls),
(383,290,o),
(396,277,o),
(396,260,cs),
(396,120,ls),
(396,103,o),
(383,90,o),
(366,90,cs),
(170,90,ls),
(153,90,o),
(140,103,o),
(140,120,cs),
(140,500,ls),
(140,517,o),
(153,530,o),
(170,530,cs),
(446,530,l),
(446,620,l),
(169,620,ls)
);
}
);
width = 536;
},
{
anchors = (
{
name = bottom;
pos = (268,0);
},
{
name = top;
pos = (268,620);
}
);
layerId = "D8CC3DFA-F3EA-4C7D-84FB-05FCEA5C6558";
shapes = (
{
closed = 1;
nodes = (
(101,620,o),
(49,568,o),
(50,500,cs),
(50,120,ls),
(49,52,o),
(101,0,o),
(169,0,cs),
(367,0,ls),
(435,0,o),
(487,52,o),
(486,120,cs),
(486,270,ls),
(487,338,o),
(435,390,o),
(367,390,cs),
(221,390,l),
(221,360,l),
(367,360,ls),
(418,360,o),
(457,321,o),
(456,270,cs),
(456,120,ls),
(457,69,o),
(418,30,o),
(367,30,cs),
(169,30,ls),
(118,30,o),
(79,69,o),
(80,120,cs),
(80,500,ls),
(79,551,o),
(118,590,o),
(169,590,cs),
(446,590,l),
(446,620,l),
(169,620,ls)
);
}
);
width = 536;
}
);
unicode = 71;
},
{
glyphname = Gstroke;
lastChange = "2025-07-22 00:42:12 +0000";
layers = (
{
layerId = m01;
shapes = (
{
ref = G;
},
{
closed = 1;
nodes = (
(306,153,l),
(526,153,l),
(526,213,l),
(306,213,l)
);
}
);
width = 536;
},
{
layerId = "BDCBA76E-5474-4BD3-A1CC-9641C626CFE7";
shapes = (
{
ref = G;
},
{
closed = 1;
nodes = (
(306,147,l),
(526,147,l),
(526,237,l),
(306,237,l)
);
}
);
width = 536;
},
{
layerId = "D8CC3DFA-F3EA-4C7D-84FB-05FCEA5C6558";
shapes = (
{
ref = G;
},
{
closed = 1;
nodes = (
(306,167,l),
(526,167,l),
(526,197,l),
(306,197,l)
);
}
);
width = 536;
}
);
unicode = 484;
},
{
color = 4;
glyphname = H;
lastChange = "2025-07-09 22:44:45 +0000";
layers = (
{
anchors = (
{
name = bottom;
pos = (268,0);
},
{
name = center;
pos = (268,360);
},
{
name = top;
pos = (268,620);
},
{
name = topleft;
pos = (20,620);
}
);
layerId = m01;
shapes = (
{
closed = 1;
nodes = (
(50,0,l),
(110,0,l),
(110,620,l),
(50,620,l)
);
},
{
closed = 1;
nodes = (
(426,0,l),
(486,0,l),
(486,620,l),
(426,620,l)
);
},
{
closed = 1;
nodes = (
(82,330,l),
(457,330,l),
(457,390,l),
(82,390,l)
);
}
);
width = 536;
},
{
anchors = (
{
name = bottom;
pos = (268,0);
},
{
name = center;
pos = (268,360);
},
{
name = top;
pos = (268,620);
},
{
name = topleft;
pos = (20,620);
}
);
layerId = "BDCBA76E-5474-4BD3-A1CC-9641C626CFE7";
shapes = (
{
closed = 1;
nodes = (
(50,0,l),
(140,0,l),
(140,620,l),
(50,620,l)
);
},
{
closed = 1;
nodes = (
(396,0,l),
(486,0,l),
(486,620,l),
(396,620,l)
);
},
{
closed = 1;
nodes = (
(82,300,l),
(457,300,l),
(457,390,l),
(82,390,l)
);
}
);
width = 536;
},
{
anchors = (
{
name = bottom;
pos = (268,0);
},
{
name = center;
pos = (268,360);
},
{
name = top;
pos = (268,620);
},
{
name = topleft;
pos = (20,620);
}
);
layerId = "D8CC3DFA-F3EA-4C7D-84FB-05FCEA5C6558";
shapes = (
{
closed = 1;
nodes = (
(50,0,l),
(80,0,l),
(80,620,l),
(50,620,l)
);
},
{
closed = 1;
nodes = (
(456,0,l),
(486,0,l),
(486,620,l),
(456,620,l)
);
},
{
closed = 1;
nodes = (
(65,360,l),
(470,360,l),
(470,390,l),
(65,390,l)
);
}
);
width = 536;
}
);
unicode = 72;
},
{
glyphname = Hbar;
lastChange = "2025-07-22 00:42:23 +0000";
layers = (
{
layerId = m01;
shapes = (
{
ref = H;
},
{
closed = 1;
nodes = (
(18,461,l),
(518,461,l),
(518,516,l),
(18,516,l)
);
}
);
width = 536;
},
{
layerId = "BDCBA76E-5474-4BD3-A1CC-9641C626CFE7";
shapes = (
{
ref = H;
},
{
closed = 1;
nodes = (
(18,451,l),
(518,451,l),
(518,541,l),
(18,541,l)
);
}
);
width = 536;
},
{
layerId = "D8CC3DFA-F3EA-4C7D-84FB-05FCEA5C6558";
shapes = (
{
ref = H;
},
{
closed = 1;
nodes = (
(18,472,l),
(518,472,l),
(518,502,l),
(18,502,l)
);
}
);
width = 536;
}
);
unicode = 294;
},
{
glyphname = Hhook;
lastChange = "2025-07-13 00:17:20 +0000";
layers = (
{
anchors = (
{
name = bottom;
pos = (295,0);
},
{
name = center;
pos = (295,465);
},
{
name = top;
pos = (295,620);
},
{
name = topleft;
pos = (47,620);
}
);
layerId = m01;
shapes = (
{
closed = 1;
nodes = (
(140,0,l),
(200,0,l),
(200,620,l),
(140,620,l)
);
},
{
closed = 1;
nodes = (
(456,0,l),
(516,0,l),
(516,620,l),
(456,620,l)
);
},
{
closed = 1;
nodes = (
(185,330,l),
(470,330,l),
(470,390,l),
(185,390,l)
);
},
{
alignment = -1;
pos = (-395,0);
ref = _part.hook;
}
);
width = 536;
},
{
anchors = (
{
name = bottom;
pos = (295,0);
},
{
name = center;
pos = (295,465);
},
{
name = top;
pos = (295,620);
},
{
name = topleft;
pos = (47,620);
}
);
layerId = "BDCBA76E-5474-4BD3-A1CC-9641C626CFE7";
shapes = (
{
closed = 1;
nodes = (
(140,0,l),
(230,0,l),
(230,620,l),
(140,620,l)
);
},
{
closed = 1;
nodes = (
(426,0,l),
(516,0,l),
(516,620,l),
(426,620,l)
);
},
{
closed = 1;
nodes = (
(185,300,l),
(470,300,l),
(470,390,l),
(185,390,l)
);
},
{
alignment = -1;
pos = (-395,0);
ref = _part.hook;
}
);
width = 536;
},
{
anchors = (
{
name = bottom;
pos = (295,0);
},
{
name = center;
pos = (295,465);
},
{
name = top;
pos = (295,620);
},
{
name = topleft;
pos = (47,620);
}
);
layerId = "D8CC3DFA-F3EA-4C7D-84FB-05FCEA5C6558";
shapes = (
{
closed = 1;
nodes = (
(140,0,l),
(170,0,l),
(170,620,l),
(140,620,l)
);
},
{
closed = 1;
nodes = (
(486,0,l),
(516,0,l),
(516,620,l),
(486,620,l)
);
},
{
closed = 1;
nodes = (
(155,328,l),
(500,328,l),
(500,358,l),
(155,358,l)
);
},
{
alignment = -1;
pos = (-395,0);
ref = _part.hook;
}
);
width = 536;
}
);
unicode = 42922;
},
{
glyphname = Hturned;
lastChange = "2025-07-13 00:17:47 +0000";
layers = (
{
anchors = (
{
name = bottom;
pos = (268,0);
},
{
name = center;
pos = (268,465);
},
{
name = top;
pos = (268,620);
},
{
name = topleft;
pos = (20,620);
}
);
layerId = m01;
shapes = (
{
closed = 1;
nodes = (
(50,330,l),
(110,330,l),
(110,620,l),
(50,620,l)
);
},
{
closed = 1;
nodes = (
(426,0,l),
(486,0,l),
(486,620,l),
(426,620,l)
);
},
{
closed = 1;
nodes = (
(95,330,l),
(440,330,l),
(440,390,l),
(95,390,l)
);
}
);
width = 536;
},
{
anchors = (
{
name = bottom;
pos = (268,0);
},
{
name = center;
pos = (268,465);
},
{
name = top;
pos = (268,620);
},
{
name = topleft;
pos = (20,620);
}
);
layerId = "BDCBA76E-5474-4BD3-A1CC-9641C626CFE7";
shapes = (
{
closed = 1;
nodes = (
(50,300,l),
(140,300,l),
(140,620,l),
(50,620,l)
);
},
{
closed = 1;
nodes = (
(396,0,l),
(486,0,l),
(486,620,l),
(396,620,l)
);
},
{
closed = 1;
nodes = (
(95,300,l),
(440,300,l),
(440,390,l),
(95,390,l)
);
}
);
width = 536;
},
{
anchors = (
{
name = bottom;
pos = (268,0);
},
{
name = center;
pos = (268,465);
},
{
name = top;
pos = (268,620);
},
{
name = topleft;
pos = (20,620);
}
);
layerId = "D8CC3DFA-F3EA-4C7D-84FB-05FCEA5C6558";
shapes = (
{
closed = 1;
nodes = (
(50,330,l),
(80,330,l),
(80,620,l),
(50,620,l)
);
},
{
closed = 1;
nodes = (
(456,0,l),
(486,0,l),
(486,620,l),
(456,620,l)
);
},
{
closed = 1;
nodes = (
(65,330,l),
(470,330,l),
(470,360,l),
(65,360,l)
);
}
);
width = 536;
}
);
unicode = 42893;
},
{
color = 4;
glyphname = I;
lastChange = "2025-07-26 14:23:03 +0000";
layers = (
{
anchors = (
{
name = bottom;
pos = (268,0);
},
{
name = ogonek;
pos = (482,10);
},
{
name = top;
pos = (268,620);
},
{
name = topleft;
pos = (20,620);
}
);
layerId = m01;
shapes = (
{
closed = 1;
nodes = (
(486,620,l),
(50,620,l),
(50,560,l),
(486,560,l)
);
},
{
closed = 1;
nodes = (
(50,60,l),
(50,0,l),
(486,0,l),
(486,60,l)
);
},
{
closed = 1;
nodes = (
(238,592,l),
(238,27,l),
(298,27,l),
(298,592,l)
);
}
);
width = 536;
},
{
anchors = (
{
name = bottom;
pos = (268,0);
},
{
name = ogonek;
pos = (482,10);
},
{
name = top;
pos = (268,620);
},
{
name = topleft;
pos = (20,620);
}
);
layerId = "BDCBA76E-5474-4BD3-A1CC-9641C626CFE7";
shapes = (
{
closed = 1;
nodes = (
(486,620,l),
(50,620,l),
(50,530,l),
(486,530,l)
);
},
{
closed = 1;
nodes = (
(50,90,l),
(50,0,l),
(486,0,l),
(486,90,l)
);
},
{
closed = 1;
nodes = (
(223,576,l),
(223,48,l),
(313,48,l),
(313,576,l)
);
}
);
width = 536;
},
{
anchors = (
{
name = bottom;
pos = (268,0);
},
{
name = ogonek;
pos = (482,10);
},
{
name = top;
pos = (268,620);
},
{
name = topleft;
pos = (20,620);
}
);
layerId = "D8CC3DFA-F3EA-4C7D-84FB-05FCEA5C6558";
shapes = (
{
closed = 1;
nodes = (
(486,620,l),
(50,620,l),
(50,590,l),
(486,590,l)
);
},
{
closed = 1;
nodes = (
(50,30,l),
(50,0,l),
(486,0,l),
(486,30,l)
);
},
{
closed = 1;
nodes = (
(253,605,l),
(253,13,l),
(283,13,l),
(283,605,l)
);
}
);
width = 536;
}
);
unicode = 73;
},
{
glyphname = IJ;
lastChange = "2025-07-26 23:01:19 +0000";
layers = (
{
layerId = m01;
shapes = (
{
closed = 1;
nodes = (
(246,120,ls),
(245,52,o),
(297,0,o),
(365,0,cs),
(387,0,ls),
(455,0,o),
(507,52,o),
(506,120,cs),
(506,620,l),
(446,620,l),
(446,120,ls),
(447,86,o),
(421,60,o),
(387,60,cs),
(365,60,ls),
(331,60,o),
(305,86,o),
(306,120,cs),
(306,240,l),
(246,240,l)
);
},
{
closed = 1;
nodes = (
(246,560,l),
(246,620,l),
(30,620,l),
(30,560,l)
);
},
{
closed = 1;
nodes = (
(168,30,l),
(168,590,l),
(108,590,l),
(108,30,l)
);
},
{
closed = 1;
nodes = (
(30,60,l),
(30,0,l),
(236,0,l),
(236,60,l)
);
}
);
width = 536;
},
{
layerId = "BDCBA76E-5474-4BD3-A1CC-9641C626CFE7";
shapes = (
{
closed = 1;
nodes = (
(246,120,ls),
(245,52,o),
(297,0,o),
(365,0,cs),
(387,0,ls),
(455,0,o),
(507,52,o),
(506,120,cs),
(506,620,l),
(416,620,l),
(416,120,ls),
(416,103,o),
(403,90,o),
(386,90,cs),
(366,90,ls),
(349,90,o),
(336,103,o),
(336,120,cs),
(336,240,l),
(246,240,l)
);
},
{
closed = 1;
nodes = (
(246,530,l),
(246,620,l),
(30,620,l),
(30,530,l)
);
},
{
closed = 1;
nodes = (
(183,35,l),
(183,575,l),
(93,575,l),
(93,35,l)
);
},
{
closed = 1;
nodes = (
(30,90,l),
(30,0,l),
(226,0,l),
(226,90,l)
);
}
);
width = 536;
},
{
layerId = "D8CC3DFA-F3EA-4C7D-84FB-05FCEA5C6558";
shapes = (
{
closed = 1;
nodes = (
(246,120,ls),
(245,52,o),
(297,0,o),
(365,0,cs),
(387,0,ls),
(455,0,o),
(507,52,o),
(506,120,cs),
(506,620,l),
(476,620,l),
(476,120,ls),
(477,69,o),
(438,30,o),
(387,30,cs),
(365,30,ls),
(314,30,o),
(275,69,o),
(276,120,cs),
(276,240,l),
(246,240,l)
);
},
{
closed = 1;
nodes = (
(246,590,l),
(246,620,l),
(30,620,l),
(30,590,l)
);
},
{
closed = 1;
nodes = (
(153,15,l),
(153,605,l),
(123,605,l),
(123,15,l)
);
},
{
closed = 1;
nodes = (
(30,30,l),
(30,0,l),
(236,0,l),
(236,30,l)
);
}
);
width = 536;
}
);
unicode = 306;
},
{
glyphname = Iogonek;
lastChange = "2025-07-27 18:59:33 +0000";
layers = (
{
layerId = m01;
shapes = (
{
closed = 1;
nodes = (
(486,-161,l),
(438,-161,o),
(420,-147,o),
(420,-120,cs),
(420,-84,o),
(486,-53,o),
(486,0,cs),
(486,60,l),
(50,60,l),
(50,0,l),
(426,0,l),
(426,-11,o),
(360,-63,o),
(360,-120,cs),
(360,-184,o),
(409,-221,o),
(486,-221,c)
);
},
{
closed = 1;
nodes = (
(298,27,l),
(298,592,l),
(238,592,l),
(238,27,l)
);
},
{
closed = 1;
nodes = (
(486,560,l),
(486,620,l),
(50,620,l),
(50,560,l)
);
}
);
width = 536;
},
{
layerId = "BDCBA76E-5474-4BD3-A1CC-9641C626CFE7";
shapes = (
{
closed = 1;
nodes = (
(471,-146,l),
(432,-146,o),
(420,-137,o),
(420,-120,cs),
(420,-93,o),
(486,-59,o),
(486,0,cs),
(486,90,l),
(50,90,l),
(50,0,l),
(396,0,l),
(396,-3,o),
(330,-60,o),
(330,-120,cs),
(330,-185,o),
(376,-236,o),
(471,-236,c)
);
},
{
closed = 1;
nodes = (
(313,48,l),
(313,576,l),
(223,576,l),
(223,48,l)
);
},
{
closed = 1;
nodes = (
(486,530,l),
(486,620,l),
(50,620,l),
(50,530,l)
);
}
);
width = 536;
},
{
layerId = "D8CC3DFA-F3EA-4C7D-84FB-05FCEA5C6558";
shapes = (
{
closed = 1;
nodes = (
(482,-176,l),
(427,-176,o),
(401,-156,o),
(401,-120,cs),
(401,-75,o),
(467,-47,o),
(467,0,cs),
(467,30,l),
(50,30,l),
(50,0,l),
(437,0,l),
(437,-27,o),
(371,-63,o),
(371,-120,cs),
(371,-176,o),
(413,-206,o),
(482,-206,c)
);
},
{
closed = 1;
nodes = (
(283,13,l),
(283,605,l),
(253,605,l),
(253,13,l)
);
},
{
closed = 1;
nodes = (
(486,590,l),
(486,620,l),
(50,620,l),
(50,590,l)
);
}
);
width = 536;
}
);
unicode = 302;
},
{
glyphname = "Iota-latin";
lastChange = "2025-07-27 19:02:32 +0000";
layers = (
{
anchors = (
{
name = bottom;
pos = (238,0);
},
{
name = ogonek;
pos = (452,10);
},
{
name = top;
pos = (238,620);
},
{
name = topleft;
pos = (-10,620);
}
);
layerId = m01;
shapes = (
{
alignment = -1;
angle = 90;
pos = (979,-535);
ref = _part.hook;
},
{
closed = 1;
nodes = (
(419,560,l),
(419,620,l),
(23,620,l),
(23,560,l)
);
},
{
closed = 1;
nodes = (
(251,30,l),
(251,590,l),
(191,590,l),
(191,30,l)
);
},
{
closed = 1;
nodes = (
(23,60,l),
(23,0,l),
(419,0,l),
(419,60,l)
);
}
);
width = 536;
},
{
anchors = (
{
name = bottom;
pos = (238,0);
},
{
name = ogonek;
pos = (452,10);
},
{
name = top;
pos = (238,620);
},
{
name = topleft;
pos = (-10,620);
}
);
layerId = "BDCBA76E-5474-4BD3-A1CC-9641C626CFE7";
shapes = (
{
alignment = -1;
angle = 90;
pos = (979,-535);
ref = _part.hook;
},
{
closed = 1;
nodes = (
(449,530,l),
(449,620,l),
(23,620,l),
(23,530,l)
);
},
{
closed = 1;
nodes = (
(281,40,l),
(281,575,l),
(191,575,l),
(191,40,l)
);
},
{
closed = 1;
nodes = (
(23,90,l),
(23,0,l),
(449,0,l),
(449,90,l)
);
}
);
width = 536;
},
{
anchors = (
{
name = bottom;
pos = (238,0);
},
{
name = ogonek;
pos = (452,10);
},
{
name = top;
pos = (238,620);
},
{
name = topleft;
pos = (-10,620);
}
);
layerId = "D8CC3DFA-F3EA-4C7D-84FB-05FCEA5C6558";
shapes = (
{
alignment = -1;
angle = 90;
pos = (979,-535);
ref = _part.hook;
},
{
closed = 1;
nodes = (
(419,590,l),
(419,620,l),
(23,620,l),
(23,590,l)
);
},
{
closed = 1;
nodes = (
(236,15,l),
(236,605,l),
(206,605,l),
(206,15,l)
);
},
{
closed = 1;
nodes = (
(23,30,l),
(23,0,l),
(389,0,l),
(389,30,l)
);
}
);
width = 536;
}
);
unicode = 406;
},
{
glyphname = Istroke;
lastChange = "2025-07-22 00:43:02 +0000";
layers = (
{
layerId = m01;
shapes = (
{
ref = I;
},
{
closed = 1;
nodes = (
(90,280,l),
(446,280,l),
(446,340,l),
(90,340,l)
);
}
);
width = 536;
},
{
layerId = "BDCBA76E-5474-4BD3-A1CC-9641C626CFE7";
shapes = (
{
ref = I;
},
{
closed = 1;
nodes = (
(90,265,l),
(446,265,l),
(446,355,l),
(90,355,l)
);
}
);
width = 536;
},
{
layerId = "D8CC3DFA-F3EA-4C7D-84FB-05FCEA5C6558";
shapes = (
{
ref = I;
},
{
closed = 1;
nodes = (
(90,295,l),
(446,295,l),
(446,325,l),
(90,325,l)
);
}
);
width = 536;
}
);
unicode = 407;
},
{
color = 4;
glyphname = J;
lastChange = "2025-07-26 14:28:10 +0000";
layers = (
{
anchors = (
{
name = bottom;
pos = (268,0);
},
{
name = top;
pos = (268,620);
}
);
layerId = m01;
shapes = (
{
closed = 1;
nodes = (
(50,240,l),
(50,120,ls),
(49,52,o),
(101,0,o),
(169,0,cs),
(367,0,ls),
(435,0,o),
(487,52,o),
(486,120,cs),
(486,620,l),
(426,620,l),
(426,120,ls),
(427,86,o),
(401,60,o),
(367,60,cs),
(169,60,ls),
(135,60,o),
(109,86,o),
(110,120,cs),
(110,240,l)
);
}
);
width = 536;
},
{
anchors = (
{
name = bottom;
pos = (268,0);
},
{
name = top;
pos = (268,620);
}
);
layerId = "BDCBA76E-5474-4BD3-A1CC-9641C626CFE7";
shapes = (
{
closed = 1;
nodes = (
(50,240,l),
(50,119,ls),
(50,51,o),
(102,-1,o),
(170,0,cs),
(366,0,ls),
(434,-1,o),
(486,51,o),
(486,119,cs),
(486,620,l),
(396,620,l),
(396,120,ls),
(396,103,o),
(383,90,o),
(366,90,cs),
(170,90,ls),
(153,90,o),
(140,103,o),
(140,120,cs),
(140,240,l)
);
}
);
width = 536;
},
{
anchors = (
{
name = bottom;
pos = (268,0);
},
{
name = top;
pos = (268,620);
}
);
layerId = "D8CC3DFA-F3EA-4C7D-84FB-05FCEA5C6558";
shapes = (
{
closed = 1;
nodes = (
(50,240,l),
(50,120,ls),
(49,52,o),
(101,0,o),
(169,0,cs),
(367,0,ls),
(435,0,o),
(487,52,o),
(486,120,cs),
(486,620,l),
(456,620,l),
(456,120,ls),
(457,69,o),
(418,30,o),
(367,30,cs),
(169,30,ls),
(118,30,o),
(79,69,o),
(80,120,cs),
(80,240,l)
);
}
);
width = 536;
}
);
unicode = 74;
},
{
color = 4;
glyphname = K;
lastChange = "2025-07-09 22:46:36 +0000";
layers = (
{
anchors = (
{
name = bottom;
pos = (268,0);
},
{
name = top;
pos = (268,620);
}
);
layerId = m01;
shapes = (
{
closed = 1;
nodes = (
(50,0,l),
(110,0,l),
(110,620,l),
(50,620,l)
);
},
{
closed = 1;
nodes = (
(224,332,l),
(437,0,l),
(509,0,l),
(261,393,l)
);
},
{
closed = 1;
nodes = (
(466,620,l),
(394,620,l),
(79,232,l),
(78,123,l)
);
}
);
width = 536;
},
{
anchors = (
{
name = bottom;
pos = (268,0);
},
{
name = top;
pos = (268,620);
}
);
layerId = "BDCBA76E-5474-4BD3-A1CC-9641C626CFE7";
shapes = (
{
closed = 1;
nodes = (
(50,0,l),
(140,0,l),
(140,620,l),
(50,620,l)
);
},
{
closed = 1;
nodes = (
(191,332,l),
(403,0,l),
(510,0,l),
(259,393,l)
);
},
{
closed = 1;
nodes = (
(476,620,l),
(362,620,l),
(71,236,l),
(98,123,l)
);
}
);
width = 536;
},
{
anchors = (
{
name = bottom;
pos = (268,0);
},
{
name = top;
pos = (268,620);
}
);
layerId = "D8CC3DFA-F3EA-4C7D-84FB-05FCEA5C6558";
shapes = (
{
closed = 1;
nodes = (
(50,0,l),
(80,0,l),
(80,620,l),
(50,620,l)
);
},
{
closed = 1;
nodes = (
(244,363,l),
(474,0,l),
(509,0,l),
(261,393,l)
);
},
{
closed = 1;
nodes = (
(466,620,l),
(428,620,l),
(64,154,l),
(64,105,l)
);
}
);
width = 536;
}
);
unicode = 75;
},
{
glyphname = Khook;
lastChange = "2025-07-13 00:22:10 +0000";
layers = (
{
anchors = (
{
name = bottom;
pos = (268,0);
},
{
name = top;
pos = (268,620);
}
);
layerId = m01;
shapes = (
{
closed = 1;
nodes = (
(30,0,l),
(90,0,l),
(90,620,l),
(30,620,l)
);
},
{
closed = 1;
nodes = (
(204,332,l),
(417,0,l),
(489,0,l),
(241,393,l)
);
},
{
closed = 1;
nodes = (
(446,620,l),
(386,620,l),
(71,232,l),
(58,123,l)
);
},
{
alignment = -1;
pos = (-24,154);
ref = _part.hook;
}
);
width = 536;
},
{
anchors = (
{
name = bottom;
pos = (268,0);
},
{
name = top;
pos = (268,620);
}
);
layerId = "BDCBA76E-5474-4BD3-A1CC-9641C626CFE7";
shapes = (
{
closed = 1;
nodes = (
(30,0,l),
(120,0,l),
(120,620,l),
(30,620,l)
);
},
{
closed = 1;
nodes = (
(202,332,l),
(415,0,l),
(519,0,l),
(271,393,l)
);
},
{
closed = 1;
nodes = (
(465,620,l),
(352,620,l),
(41,224,l),
(77,123,l)
);
},
{
alignment = -1;
pos = (-24,154);
ref = _part.hook;
}
);
width = 536;
},
{
anchors = (
{
name = bottom;
pos = (268,0);
},
{
name = top;
pos = (268,620);
}
);
layerId = "D8CC3DFA-F3EA-4C7D-84FB-05FCEA5C6558";
shapes = (
{
closed = 1;
nodes = (
(30,0,l),
(60,0,l),
(60,620,l),
(30,620,l)
);
},
{
closed = 1;
nodes = (
(226,356,l),
(454,0,l),
(489,0,l),
(241,393,l)
);
},
{
closed = 1;
nodes = (
(446,620,l),
(411,620,l),
(49,161,l),
(58,123,l)
);
},
{
alignment = -1;
pos = (-24,154);
ref = _part.hook;
}
);
width = 536;
}
);
unicode = 408;
},
{
color = 4;
glyphname = L;
lastChange = "2025-07-09 22:46:46 +0000";
layers = (
{
anchors = (
{
name = bottom;
pos = (268,0);
},
{
name = center;
pos = (268,310);
},
{
name = top;
pos = (268,620);
},
{
name = topright;
pos = (516,620);
}
);
layerId = m01;
shapes = (
{
closed = 1;
nodes = (
(50,620,l),
(50,0,l),
(486,0,l),
(486,60,l),
(79,60,l),
(110,31,l),
(110,620,l)
);
}
);
width = 536;
},
{
anchors = (
{
name = bottom;
pos = (268,0);
},
{
name = center;
pos = (268,310);
},
{
name = top;
pos = (268,620);
},
{
name = topright;
pos = (516,620);
}
);
layerId = "BDCBA76E-5474-4BD3-A1CC-9641C626CFE7";
shapes = (
{
closed = 1;
nodes = (
(50,620,l),
(50,0,l),
(486,0,l),
(486,90,l),
(79,90,l),
(140,31,l),
(140,620,l)
);
}
);
width = 536;
},
{
anchors = (
{
name = bottom;
pos = (268,0);
},
{
name = center;
pos = (268,310);
},
{
name = top;
pos = (268,620);
},
{
name = topright;
pos = (516,620);
}
);
layerId = "D8CC3DFA-F3EA-4C7D-84FB-05FCEA5C6558";
shapes = (
{
closed = 1;
nodes = (
(50,620,l),
(50,0,l),
(486,0,l),
(486,30,l),
(64,30,l),
(80,12,l),
(80,620,l)
);
}
);
width = 536;
}
);
unicode = 76;
},
{
glyphname = Lslash;
lastChange = "2025-07-22 00:43:48 +0000";
layers = (
{
anchors = (
{
name = bottom;
pos = (268,0);
},
{
name = center;
pos = (268,310);
},
{
name = top;
pos = (268,620);
},
{
name = topright;
pos = (516,620);
}
);
layerId = m01;
shapes = (
{
closed = 1;
nodes = (
(110,620,l),
(110,0,l),
(496,0,l),
(496,60,l),
(143,60,l),
(170,31,l),
(170,620,l)
);
},
{
closed = 1;
nodes = (
(70,283,l),
(286,408,l),
(256,460,l),
(40,335,l)
);
}
);
width = 536;
},
{
anchors = (
{
name = bottom;
pos = (268,0);
},
{
name = center;
pos = (268,310);
},
{
name = top;
pos = (268,620);
},
{
name = topright;
pos = (516,620);
}
);
layerId = "BDCBA76E-5474-4BD3-A1CC-9641C626CFE7";
shapes = (
{
closed = 1;
nodes = (
(110,620,l),
(110,0,l),
(496,0,l),
(496,90,l),
(143,90,l),
(200,31,l),
(200,620,l)
);
},
{
closed = 1;
nodes = (
(77,270,l),
(294,395,l),
(249,473,l),
(32,348,l)
);
}
);
width = 536;
},
{
anchors = (
{
name = bottom;
pos = (268,0);
},
{
name = center;
pos = (268,310);
},
{
name = top;
pos = (268,620);
},
{
name = topright;
pos = (516,620);
}
);
layerId = "D8CC3DFA-F3EA-4C7D-84FB-05FCEA5C6558";
shapes = (
{
closed = 1;
nodes = (
(110,620,l),
(110,0,l),
(496,0,l),
(496,30,l),
(126,30,l),
(140,11,l),
(140,620,l)
);
},
{
closed = 1;
nodes = (
(61,294,l),
(278,419,l),
(263,445,l),
(47,320,l)
);
}
);
width = 536;
}
);
unicode = 321;
},
{
color = 4;
glyphname = M;
lastChange = "2025-07-26 14:33:24 +0000";
layers = (
{
anchors = (
{
name = bottom;
pos = (268,0);
},
{
name = top;
pos = (268,620);
}
);
guides = (
{
pos = (-199,630);
}
);
layerId = m01;
shapes = (
{
closed = 1;
nodes = (
(90,0,l),
(90,588,l),
(59,588,l),
(234,237,l),
(302,237,l),
(480,594,l),
(446,594,l),
(446,0,l),
(506,0,l),
(506,620,l),
(426,620,l),
(247,261,l),
(289,261,l),
(110,620,l),
(30,620,l),
(30,0,l)
);
}
);
width = 536;
},
{
anchors = (
{
name = bottom;
pos = (268,0);
},
{
name = top;
pos = (268,620);
}
);
guides = (
{
pos = (-199,630);
}
);
layerId = "BDCBA76E-5474-4BD3-A1CC-9641C626CFE7";
shapes = (
{
closed = 1;
nodes = (
(318,270,l),
(479,594,l),
(416,594,l),
(416,0,l),
(506,0,l),
(506,620,l),
(392,620,l),
(232,299,l),
(304,299,l),
(144,620,l),
(30,620,l),
(30,0,l),
(120,0,l),
(120,588,l),
(59,588,l),
(217,270,l)
);
}
);
width = 536;
},
{
anchors = (
{
name = bottom;
pos = (268,0);
},
{
name = top;
pos = (268,620);
}
);
guides = (
{
pos = (-199,630);
}
);
layerId = "D8CC3DFA-F3EA-4C7D-84FB-05FCEA5C6558";
shapes = (
{
closed = 1;
nodes = (
(60,0,l),
(60,611,l),
(51,610,l),
(254,203,l),
(285,203,l),
(489,613,l),
(476,613,l),
(476,0,l),
(506,0,l),
(506,620,l),
(462,620,l),
(260,222,l),
(278,222,l),
(77,620,l),
(30,620,l),
(30,0,l)
);
}
);
width = 536;
}
);
unicode = 77;
},
{
color = 4;
glyphname = N;
lastChange = "2025-07-26 14:34:40 +0000";
layers = (
{
anchors = (
{
name = bottom;
pos = (268,0);
},
{
name = top;
pos = (268,620);
}
);
layerId = m01;
shapes = (
{
closed = 1;
nodes = (
(486,0,l),
(486,620,l),
(426,620,l),
(426,20,l),
(446,20,l),
(145,620,l),
(54,620,l),
(50,0,l),
(110,0,l),
(114,589,l),
(94,589,l),
(389,0,l)
);
}
);
width = 536;
},
{
anchors = (
{
name = bottom;
pos = (268,0);
},
{
name = top;
pos = (268,620);
}
);
layerId = "BDCBA76E-5474-4BD3-A1CC-9641C626CFE7";
shapes = (
{
closed = 1;
nodes = (
(486,0,l),
(486,620,l),
(396,620,l),
(396,56,l),
(453,56,l),
(170,620,l),
(54,620,l),
(50,0,l),
(140,0,l),
(144,562,l),
(99,562,l),
(380,0,l)
);
}
);
width = 536;
},
{
anchors = (
{
name = bottom;
pos = (268,0);
},
{
name = top;
pos = (268,620);
}
);
layerId = "D8CC3DFA-F3EA-4C7D-84FB-05FCEA5C6558";
shapes = (
{
closed = 1;
nodes = (
(486,0,l),
(486,620,l),
(456,620,l),
(456,21,l),
(469,21,l),
(95,620,l),
(54,620,l),
(50,0,l),
(80,0,l),
(83,607,l),
(67,607,l),
(446,0,l)
);
}
);
width = 536;
}
);
unicode = 78;
},
{
glyphname = Nhookleft;
lastChange = "2025-07-26 14:35:02 +0000";
layers = (
{
anchors = (
{
name = bottom;
pos = (268,0);
},
{
name = top;
pos = (268,620);
}
);
layerId = m01;
shapes = (
{
closed = 1;
nodes = (
(225,620,l),
(161,620,l),
(432,0,l),
(496,0,l)
);
},
{
closed = 1;
nodes = (
(134,620,l),
(130,0,l),
(190,0,l),
(190,620,l)
);
},
{
closed = 1;
nodes = (
(526,0,l),
(526,620,l),
(466,620,l),
(466,0,l)
);
},
{
alignment = -1;
pos = (-401,0);
ref = _part.hook;
}
);
width = 536;
},
{
anchors = (
{
name = bottom;
pos = (268,0);
},
{
name = top;
pos = (268,620);
}
);
layerId = "BDCBA76E-5474-4BD3-A1CC-9641C626CFE7";
shapes = (
{
closed = 1;
nodes = (
(239,620,l),
(141,620,l),
(412,0,l),
(510,0,l)
);
},
{
closed = 1;
nodes = (
(134,620,l),
(130,0,l),
(221,0,l),
(221,620,l)
);
},
{
closed = 1;
nodes = (
(526,0,l),
(526,620,l),
(436,620,l),
(436,0,l)
);
},
{
alignment = -1;
pos = (-401,0);
ref = _part.hook;
}
);
width = 536;
},
{
anchors = (
{
name = bottom;
pos = (268,0);
},
{
name = top;
pos = (268,620);
}
);
layerId = "D8CC3DFA-F3EA-4C7D-84FB-05FCEA5C6558";
shapes = (
{
closed = 1;
nodes = (
(176,620,l),
(142,619,l),
(483,0,l),
(517,0,l)
);
},
{
closed = 1;
nodes = (
(134,620,l),
(130,0,l),
(160,0,l),
(164,620,l)
);
},
{
closed = 1;
nodes = (
(526,0,l),
(526,620,l),
(496,620,l),
(496,0,l)
);
},
{
alignment = -1;
pos = (-401,0);
ref = _part.hook;
}
);
width = 536;
}
);
unicode = 413;
},
{
glyphname = Eng;
lastChange = "2025-07-22 00:44:06 +0000";
layers = (
{
anchors = (
{
name = bottom;
pos = (268,0);
},
{
name = top;
pos = (268,620);
}
);
layerId = m01;
shapes = (
{
closed = 1;
nodes = (
(145,620,l),
(81,620,l),
(372,0,l),
(432,0,l)
);
},
{
closed = 1;
nodes = (
(54,620,l),
(50,0,l),
(110,0,l),
(110,620,l)
);
},
{
closed = 1;
nodes = (
(432,0,l),
(432,620,l),
(372,620,l),
(372,0,l)
);
},
{
alignment = -1;
angle = 90;
pos = (992,-535);
ref = _part.hook;
}
);
width = 536;
},
{
anchors = (
{
name = bottom;
pos = (268,0);
},
{
name = top;
pos = (268,620);
}
);
layerId = "BDCBA76E-5474-4BD3-A1CC-9641C626CFE7";
shapes = (
{
closed = 1;
nodes = (
(159,620,l),
(57,620,l),
(358,0,l),
(446,0,l)
);
},
{
closed = 1;
nodes = (
(54,620,l),
(50,0,l),
(141,0,l),
(141,620,l)
);
},
{
closed = 1;
nodes = (
(447,0,l),
(447,620,l),
(357,620,l),
(357,0,l)
);
},
{
alignment = -1;
angle = 90;
pos = (977,-535);
ref = _part.hook;
}
);
width = 536;
},
{
anchors = (
{
name = bottom;
pos = (268,0);
},
{
name = top;
pos = (268,620);
}
);
layerId = "D8CC3DFA-F3EA-4C7D-84FB-05FCEA5C6558";
shapes = (
{
closed = 1;
nodes = (
(92,620,l),
(58,620,l),
(372,0,l),
(402,0,l)
);
},
{
closed = 1;
nodes = (
(54,620,l),
(50,0,l),
(81,0,l),
(81,620,l)
);
},
{
closed = 1;
nodes = (
(402,0,l),
(402,620,l),
(372,620,l),
(372,0,l)
);
},
{
alignment = -1;
angle = 90;
pos = (992,-535);
ref = _part.hook;
}
);
width = 536;
}
);
unicode = 330;
},
{
color = 4;
glyphname = O;
lastChange = "2025-07-26 23:06:27 +0000";
layers = (
{
anchors = (
{
name = bottom;
pos = (268,0);
},
{
name = center;
pos = (268,310);
},
{
name = ogonek;
pos = (482,10);
},
{
name = top;
pos = (268,620);
},
{
name = topleft;
pos = (20,620);
},
{
name = topright;
pos = (516,620);
}
);
layerId = m01;
shapes = (
{
closed = 1;
nodes = (
(50,120,ls),
(49,52,o),
(101,0,o),
(169,0,cs),
(367,0,ls),
(435,0,o),
(487,52,o),
(486,120,cs),
(486,500,ls),
(487,568,o),
(435,620,o),
(367,620,cs),
(169,620,ls),
(101,620,o),
(49,568,o),
(50,500,cs)
);
},
{
closed = 1;
nodes = (
(109,534,o),
(135,560,o),
(169,560,cs),
(367,560,ls),
(401,560,o),
(427,534,o),
(426,500,cs),
(426,120,ls),
(427,86,o),
(401,60,o),
(367,60,cs),
(169,60,ls),
(135,60,o),
(109,86,o),
(110,120,cs),
(110,500,ls)
);
}
);
width = 536;
},
{
anchors = (
{
name = bottom;
pos = (268,0);
},
{
name = center;
pos = (268,310);
},
{
name = ogonek;
pos = (482,10);
},
{
name = top;
pos = (268,620);
},
{
name = topleft;
pos = (20,620);
},
{
name = topright;
pos = (516,620);
}
);
layerId = "BDCBA76E-5474-4BD3-A1CC-9641C626CFE7";
shapes = (
{
closed = 1;
nodes = (
(140,120,ls),
(140,103,o),
(153,90,o),
(170,90,cs),
(366,90,ls),
(383,90,o),
(396,103,o),
(396,120,cs),
(396,500,ls),
(396,517,o),
(383,530,o),
(366,530,cs),
(170,530,ls),
(153,530,o),
(140,517,o),
(140,500,cs)
);
},
{
closed = 1;
nodes = (
(50,568,o),
(101,620,o),
(169,620,cs),
(367,620,ls),
(435,620,o),
(487,568,o),
(486,500,cs),
(486,120,ls),
(487,52,o),
(435,0,o),
(367,0,cs),
(169,0,ls),
(101,0,o),
(50,52,o),
(50,120,cs),
(50,500,ls)
);
}
);
width = 536;
},
{
anchors = (
{
name = bottom;
pos = (268,0);
},
{
name = center;
pos = (268,310);
},
{
name = ogonek;
pos = (482,10);
},
{
name = top;
pos = (268,620);
},
{
name = topleft;
pos = (20,620);
},
{
name = topright;
pos = (516,620);
}
);
layerId = "D8CC3DFA-F3EA-4C7D-84FB-05FCEA5C6558";
shapes = (
{
closed = 1;
nodes = (
(80,120,ls),
(79,69,o),
(118,30,o),
(169,30,cs),
(367,30,ls),
(418,30,o),
(456,69,o),
(456,120,cs),
(456,500,ls),
(456,551,o),
(418,590,o),
(367,590,cs),
(169,590,ls),
(118,590,o),
(79,551,o),
(80,500,cs)
);
},
{
closed = 1;
nodes = (
(49,568,o),
(101,620,o),
(169,620,cs),
(367,620,ls),
(435,620,o),
(487,568,o),
(486,500,cs),
(486,120,ls),
(487,52,o),
(435,0,o),
(367,0,cs),
(169,0,ls),
(101,0,o),
(49,52,o),
(50,120,cs),
(50,500,l)
);
}
);
width = 536;
}
);
unicode = 79;
},
{
glyphname = Oopen;
lastChange = "2025-07-26 22:53:39 +0000";
layers = (
{
anchors = (
{
name = bottom;
pos = (268,0);
},
{
name = top;
pos = (268,620);
}
);
layerId = m01;
shapes = (
{
closed = 1;
nodes = (
(50,0,l),
(367,0,ls),
(435,0,o),
(487,52,o),
(486,120,cs),
(486,500,ls),
(487,568,o),
(435,620,o),
(367,620,cs),
(50,620,l),
(50,560,l),
(367,560,ls),
(401,560,o),
(427,534,o),
(426,500,cs),
(426,120,ls),
(427,86,o),
(401,60,o),
(367,60,cs),
(50,60,l)
);
}
);
width = 536;
},
{
anchors = (
{
name = bottom;
pos = (268,0);
},
{
name = top;
pos = (268,620);
}
);
layerId = "BDCBA76E-5474-4BD3-A1CC-9641C626CFE7";
shapes = (
{
closed = 1;
nodes = (
(50,0,l),
(366,0,ls),
(434,-1,o),
(486,51,o),
(486,119,cs),
(486,501,ls),
(486,569,o),
(434,621,o),
(366,620,cs),
(50,620,l),
(50,530,l),
(366,530,ls),
(383,530,o),
(396,517,o),
(396,500,cs),
(396,120,ls),
(396,103,o),
(383,90,o),
(366,90,cs),
(50,90,l)
);
}
);
width = 536;
},
{
anchors = (
{
name = bottom;
pos = (268,0);
},
{
name = top;
pos = (268,620);
}
);
layerId = "D8CC3DFA-F3EA-4C7D-84FB-05FCEA5C6558";
shapes = (
{
closed = 1;
nodes = (
(50,0,l),
(367,0,ls),
(435,0,o),
(487,52,o),
(486,120,cs),
(486,500,ls),
(487,568,o),
(435,620,o),
(367,620,cs),
(50,620,l),
(50,590,l),
(367,590,ls),
(418,590,o),
(457,551,o),
(456,500,cs),
(456,120,ls),
(457,69,o),
(418,30,o),
(367,30,cs),
(50,30,l)
);
}
);
width = 536;
}
);
unicode = 390;
},
{
glyphname = Oslash;
lastChange = "2025-07-22 00:44:32 +0000";
layers = (
{
layerId = m01;
shapes = (
{
pos = (-7,0);
ref = O;
},
{
closed = 1;
nodes = (
(27,0,l),
(87,0,l),
(509,620,l),
(449,620,l)
);
}
);
width = 536;
},
{
layerId = "BDCBA76E-5474-4BD3-A1CC-9641C626CFE7";
shapes = (
{
pos = (-7,0);
ref = O;
},
{
closed = 1;
nodes = (
(7,0,l),
(107,0,l),
(529,620,l),
(429,620,l)
);
}
);
width = 536;
},
{
layerId = "D8CC3DFA-F3EA-4C7D-84FB-05FCEA5C6558";
shapes = (
{
pos = (-7,0);
ref = O;
},
{
closed = 1;
nodes = (
(39,0,l),
(75,0,l),
(497,620,l),
(461,620,l)
);
}
);
width = 536;
}
);
unicode = 216;
},
{
glyphname = OE;
lastChange = "2025-07-27 19:27:38 +0000";
layers = (
{
anchors = (
{
name = bottom;
pos = (268,0);
},
{
name = top;
pos = (268,620);
}
);
layerId = m01;
shapes = (
{
closed = 1;
nodes = (
(511,0,l),
(511,60,l),
(316,60,l),
(326,77,o),
(331,99,o),
(331,120,cs),
(331,500,ls),
(331,521,o),
(326,542,o),
(316,560,c),
(511,560,l),
(511,620,l),
(164,620,ls),
(96,620,o),
(44,568,o),
(45,500,cs),
(45,120,ls),
(44,52,o),
(96,0,o),
(164,0,cs)
);
},
{
closed = 1;
nodes = (
(271,120,ls),
(272,86,o),
(246,60,o),
(212,60,cs),
(164,60,ls),
(130,60,o),
(104,86,o),
(105,120,cs),
(105,500,ls),
(104,534,o),
(130,560,o),
(164,560,cs),
(212,560,ls),
(246,560,o),
(272,534,o),
(271,500,cs)
);
},
{
closed = 1;
nodes = (
(465,330,l),
(465,390,l),
(301,390,l),
(301,330,l)
);
}
);
width = 536;
},
{
anchors = (
{
name = bottom;
pos = (268,0);
},
{
name = top;
pos = (268,620);
}
);
layerId = "BDCBA76E-5474-4BD3-A1CC-9641C626CFE7";
shapes = (
{
closed = 1;
nodes = (
(511,0,l),
(511,90,l),
(358,90,l),
(360,99,o),
(361,110,o),
(361,120,cs),
(361,500,ls),
(361,510,o),
(360,521,o),
(358,530,c),
(511,530,l),
(511,620,l),
(165,620,ls),
(97,621,o),
(45,569,o),
(45,501,cs),
(45,119,ls),
(45,51,o),
(97,0,o),
(165,0,cs)
);
},
{
closed = 1;
nodes = (
(271,120,ls),
(271,103,o),
(258,90,o),
(241,90,cs),
(165,90,ls),
(148,90,o),
(135,103,o),
(135,120,cs),
(135,500,ls),
(135,517,o),
(148,530,o),
(165,530,cs),
(241,530,ls),
(258,530,o),
(271,517,o),
(271,500,cs)
);
},
{
closed = 1;
nodes = (
(465,290,l),
(465,380,l),
(316,380,l),
(316,290,l)
);
}
);
width = 536;
},
{
anchors = (
{
name = bottom;
pos = (268,0);
},
{
name = top;
pos = (268,620);
}
);
layerId = "D8CC3DFA-F3EA-4C7D-84FB-05FCEA5C6558";
shapes = (
{
closed = 1;
nodes = (
(511,0,l),
(511,30,l),
(278,30,l),
(301,51,o),
(317,83,o),
(316,120,cs),
(316,500,ls),
(317,537,o),
(301,569,o),
(278,590,c),
(511,590,l),
(511,620,l),
(164,620,ls),
(96,620,o),
(44,568,o),
(45,500,cs),
(45,120,ls),
(44,52,o),
(96,0,o),
(164,0,cs)
);
},
{
closed = 1;
nodes = (
(286,120,ls),
(287,69,o),
(248,30,o),
(197,30,cs),
(164,30,ls),
(113,30,o),
(74,69,o),
(75,120,cs),
(75,500,ls),
(74,551,o),
(113,590,o),
(164,590,cs),
(197,590,ls),
(248,590,o),
(287,551,o),
(286,500,cs)
);
},
{
closed = 1;
nodes = (
(465,345,l),
(465,375,l),
(301,375,l),
(301,345,l)
);
}
);
width = 536;
}
);
unicode = 338;
},
{
color = 4;
glyphname = P;
lastChange = "2025-07-26 15:22:13 +0000";
layers = (
{
anchors = (
{
name = bottom;
pos = (268,0);
},
{
name = top;
pos = (268,620);
}
);
layerId = m01;
shapes = (
{
closed = 1;
nodes = (
(367,330,ls),
(435,330,o),
(487,382,o),
(486,450,cs),
(486,500,ls),
(487,568,o),
(435,620,o),
(367,620,cs),
(50,620,l),
(50,0,l),
(110,0,l),
(110,590,l),
(80,560,l),
(367,560,ls),
(401,560,o),
(427,534,o),
(426,500,cs),
(426,450,ls),
(427,416,o),
(401,390,o),
(367,390,cs),
(80,390,l),
(80,330,l)
);
}
);
width = 536;
},
{
anchors = (
{
name = bottom;
pos = (268,0);
},
{
name = top;
pos = (268,620);
}
);
layerId = "BDCBA76E-5474-4BD3-A1CC-9641C626CFE7";
shapes = (
{
closed = 1;
nodes = (
(366,290,ls),
(434,290,o),
(486,341,o),
(486,409,cs),
(486,501,ls),
(486,569,o),
(434,621,o),
(366,620,cs),
(50,620,l),
(50,0,l),
(140,0,l),
(140,575,l),
(95,530,l),
(366,530,ls),
(383,530,o),
(396,517,o),
(396,500,cs),
(396,410,ls),
(396,393,o),
(383,380,o),
(366,380,cs),
(95,380,l),
(95,290,l)
);
}
);
width = 536;
},
{
anchors = (
{
name = bottom;
pos = (268,0);
},
{
name = top;
pos = (268,620);
}
);
layerId = "D8CC3DFA-F3EA-4C7D-84FB-05FCEA5C6558";
shapes = (
{
closed = 1;
nodes = (
(367,360,ls),
(435,360,o),
(487,412,o),
(486,480,cs),
(486,500,ls),
(487,568,o),
(435,620,o),
(367,620,cs),
(50,620,l),
(50,0,l),
(80,0,l),
(80,607,l),
(65,590,l),
(367,590,ls),
(418,590,o),
(457,551,o),
(456,500,cs),
(456,480,ls),
(457,429,o),
(418,390,o),
(367,390,cs),
(65,390,l),
(65,360,l)
);
}
);
width = 536;
}
);
unicode = 80;
},
{
glyphname = Phook;
lastChange = "2025-07-27 19:33:29 +0000";
layers = (
{
layerId = m01;
shapes = (
{
closed = 1;
nodes = (
(195,590,l),
(165,560,l),
(407,560,ls),
(441,560,o),
(467,534,o),
(466,500,cs),
(466,450,ls),
(467,416,o),
(441,390,o),
(407,390,cs),
(165,390,l),
(165,330,l),
(407,330,ls),
(475,330,o),
(527,382,o),
(526,450,cs),
(526,500,ls),
(527,568,o),
(475,620,o),
(407,620,cs),
(135,620,l),
(135,0,l),
(195,0,l)
);
},
{
alignment = -1;
pos = (-400,0);
ref = _part.hook;
}
);
width = 536;
},
{
layerId = "BDCBA76E-5474-4BD3-A1CC-9641C626CFE7";
shapes = (
{
closed = 1;
nodes = (
(255,575,l),
(210,530,l),
(406,530,ls),
(423,530,o),
(436,517,o),
(436,500,cs),
(436,410,ls),
(436,393,o),
(423,380,o),
(406,380,cs),
(210,380,l),
(210,290,l),
(406,290,ls),
(474,290,o),
(526,341,o),
(526,409,cs),
(526,501,ls),
(526,569,o),
(474,621,o),
(406,620,cs),
(165,620,l),
(165,0,l),
(255,0,l)
);
},
{
alignment = -1;
pos = (-370,0);
ref = _part.hook;
}
);
width = 536;
},
{
layerId = "D8CC3DFA-F3EA-4C7D-84FB-05FCEA5C6558";
shapes = (
{
closed = 1;
nodes = (
(165,605,l),
(150,590,l),
(407,590,ls),
(458,590,o),
(497,551,o),
(496,500,cs),
(496,449,ls),
(496,399,o),
(458,360,o),
(407,360,cs),
(150,360,l),
(150,330,l),
(407,330,ls),
(475,330,o),
(527,382,o),
(526,450,cs),
(526,500,ls),
(527,568,o),
(475,620,o),
(407,620,cs),
(135,620,l),
(135,0,l),
(165,0,l)
);
},
{
alignment = -1;
pos = (-400,0);
ref = _part.hook;
}
);
width = 536;
}
);
unicode = 420;
},
{
glyphname = Thorn;
lastChange = "2025-07-27 17:56:57 +0000";
layers = (
{
anchors = (
{
name = bottom;
pos = (268,0);
},
{
name = top;
pos = (268,620);
}
);
layerId = m01;
shapes = (
{
closed = 1;
nodes = (
(87,0,l),
(147,0,l),
(147,620,l),
(87,620,l)
);
},
{
closed = 1;
nodes = (
(331,165,ls),
(399,165,o),
(451,217,o),
(450,285,cs),
(450,335,ls),
(451,403,o),
(399,455,o),
(331,455,cs),
(129,455,l),
(129,395,l),
(331,395,ls),
(365,395,o),
(391,369,o),
(390,335,cs),
(390,285,ls),
(391,251,o),
(365,225,o),
(331,225,cs),
(129,225,l),
(129,165,l)
);
}
);
width = 536;
},
{
anchors = (
{
name = bottom;
pos = (268,0);
},
{
name = top;
pos = (268,620);
}
);
layerId = "BDCBA76E-5474-4BD3-A1CC-9641C626CFE7";
shapes = (
{
closed = 1;
nodes = (
(87,0,l),
(177,0,l),
(177,620,l),
(87,620,l)
);
},
{
closed = 1;
nodes = (
(331,155,ls),
(399,155,o),
(451,207,o),
(450,275,cs),
(450,346,ls),
(450,414,o),
(398,466,o),
(330,465,cs),
(129,465,l),
(129,375,l),
(330,375,ls),
(347,375,o),
(360,362,o),
(360,345,cs),
(360,275,ls),
(360,258,o),
(347,245,o),
(330,245,cs),
(129,245,l),
(129,155,l)
);
}
);
width = 536;
},
{
anchors = (
{
name = bottom;
pos = (268,0);
},
{
name = top;
pos = (268,620);
}
);
layerId = "D8CC3DFA-F3EA-4C7D-84FB-05FCEA5C6558";
shapes = (
{
closed = 1;
nodes = (
(87,0,l),
(117,0,l),
(117,620,l),
(87,620,l)
);
},
{
closed = 1;
nodes = (
(330,165,ls),
(398,164,o),
(450,216,o),
(450,284,cs),
(450,336,ls),
(450,404,o),
(398,456,o),
(330,455,cs),
(101,455,l),
(101,425,l),
(330,425,ls),
(381,426,o),
(420,387,o),
(420,336,cs),
(420,284,ls),
(420,233,o),
(381,194,o),
(330,195,cs),
(101,195,l),
(101,165,l)
);
}
);
width = 536;
}
);
unicode = 222;
},
{
color = 4;
glyphname = Q;
lastChange = "2025-07-26 23:06:21 +0000";
layers = (
{
anchors = (
{
name = bottom;
pos = (268,0);
},
{
name = top;
pos = (268,620);
}
);
layerId = m01;
shapes = (
{
closed = 1;
nodes = (
(306,30,l),
(306,-112,l),
(366,-112,l),
(366,30,l)
);
},
{
closed = 1;
nodes = (
(109,534,o),
(135,560,o),
(169,560,cs),
(367,560,ls),
(401,560,o),
(427,534,o),
(426,500,cs),
(426,120,ls),
(427,86,o),
(401,60,o),
(367,60,cs),
(169,60,ls),
(135,60,o),
(109,86,o),
(110,120,cs),
(110,500,ls)
);
},
{
closed = 1;
nodes = (
(50,120,ls),
(49,52,o),
(101,0,o),
(169,0,cs),
(367,0,ls),
(435,0,o),
(487,52,o),
(486,120,cs),
(486,500,ls),
(487,568,o),
(435,620,o),
(367,620,cs),
(169,620,ls),
(101,620,o),
(49,568,o),
(50,500,cs)
);
}
);
width = 536;
},
{
anchors = (
{
name = bottom;
pos = (268,0);
},
{
name = top;
pos = (268,620);
}
);
layerId = "BDCBA76E-5474-4BD3-A1CC-9641C626CFE7";
shapes = (
{
closed = 1;
nodes = (
(286,25,l),
(286,-112,l),
(386,-112,l),
(386,25,l)
);
},
{
closed = 1;
nodes = (
(140,517,o),
(153,530,o),
(170,530,cs),
(366,530,ls),
(383,530,o),
(396,517,o),
(396,500,cs),
(396,120,ls),
(396,103,o),
(383,90,o),
(366,90,cs),
(170,90,ls),
(153,90,o),
(140,103,o),
(140,120,cs),
(140,500,ls)
);
},
{
closed = 1;
nodes = (
(50,120,ls),
(50,52,o),
(101,0,o),
(169,0,cs),
(367,0,ls),
(435,0,o),
(487,52,o),
(486,120,cs),
(486,500,ls),
(487,568,o),
(435,620,o),
(367,620,cs),
(169,620,ls),
(101,620,o),
(50,568,o),
(50,500,cs)
);
}
);
width = 536;
},
{
anchors = (
{
name = bottom;
pos = (268,0);
},
{
name = top;
pos = (268,620);
}
);
layerId = "D8CC3DFA-F3EA-4C7D-84FB-05FCEA5C6558";
shapes = (
{
closed = 1;
nodes = (
(321,15,l),
(321,-112,l),
(351,-112,l),
(351,15,l)
);
},
{
closed = 1;
nodes = (
(79,551,o),
(118,590,o),
(169,590,cs),
(367,590,ls),
(418,590,o),
(456,551,o),
(456,500,cs),
(456,120,ls),
(456,69,o),
(418,30,o),
(367,30,cs),
(169,30,ls),
(118,30,o),
(79,69,o),
(80,120,cs),
(80,500,ls)
);
},
{
closed = 1;
nodes = (
(50,120,ls),
(49,52,o),
(101,0,o),
(169,0,cs),
(367,0,ls),
(435,0,o),
(487,52,o),
(486,120,cs),
(486,500,ls),
(487,568,o),
(435,620,o),
(367,620,cs),
(169,620,ls),
(101,620,o),
(49,568,o),
(50,500,c)
);
}
);
width = 536;
}
);
unicode = 81;
},
{
color = 4;
glyphname = R;
lastChange = "2025-07-26 15:50:37 +0000";
layers = (
{
anchors = (
{
name = bottom;
pos = (268,0);
},
{
name = top;
pos = (268,620);
}
);
layerId = m01;
shapes = (
{
closed = 1;
nodes = (
(367,330,ls),
(401,330,o),
(427,304,o),
(426,270,cs),
(426,0,l),
(486,0,l),
(486,270,ls),
(487,307,o),
(471,339,o),
(448,360,c),
(471,381,o),
(487,413,o),
(486,450,cs),
(486,500,ls),
(487,568,o),
(435,620,o),
(367,620,cs),
(50,620,l),
(50,0,l),
(110,0,l),
(110,590,l),
(80,560,l),
(367,560,ls),
(401,560,o),
(427,534,o),
(426,500,cs),
(426,450,ls),
(427,416,o),
(401,390,o),
(367,390,cs),
(80,390,l),
(80,330,l)
);
}
);
width = 536;
},
{
anchors = (
{
name = bottom;
pos = (268,0);
},
{
name = top;
pos = (268,620);
}
);
layerId = "BDCBA76E-5474-4BD3-A1CC-9641C626CFE7";
shapes = (
{
closed = 1;
nodes = (
(366,290,ls),
(383,290,o),
(396,277,o),
(396,260,cs),
(396,0,l),
(486,0,l),
(486,261,ls),
(486,289,o),
(477,315,o),
(462,335,c),
(477,355,o),
(486,381,o),
(486,409,cs),
(486,501,ls),
(486,569,o),
(434,621,o),
(366,620,cs),
(50,620,l),
(50,0,l),
(140,0,l),
(140,575,l),
(95,530,l),
(366,530,ls),
(383,530,o),
(396,517,o),
(396,500,cs),
(396,410,ls),
(396,393,o),
(383,380,o),
(366,380,cs),
(95,380,l),
(95,290,l)
);
}
);
width = 536;
},
{
anchors = (
{
name = bottom;
pos = (268,0);
},
{
name = top;
pos = (268,620);
}
);
layerId = "D8CC3DFA-F3EA-4C7D-84FB-05FCEA5C6558";
shapes = (
{
closed = 1;
nodes = (
(367,360,ls),
(418,360,o),
(457,321,o),
(456,270,cs),
(456,0,l),
(486,0,l),
(486,270,ls),
(487,317,o),
(463,355,o),
(427,375,c),
(463,395,o),
(487,433,o),
(486,480,cs),
(486,500,ls),
(487,568,o),
(435,620,o),
(367,620,cs),
(50,620,l),
(50,0,l),
(80,0,l),
(80,605,l),
(65,590,l),
(367,590,ls),
(418,590,o),
(457,551,o),
(456,500,cs),
(456,480,ls),
(457,429,o),
(418,390,o),
(367,390,cs),
(65,390,l),
(65,360,l)
);
}
);
width = 536;
}
);
unicode = 82;
},
{
glyphname = Rstroke;
lastChange = "2025-07-22 00:45:04 +0000";
layers = (
{
layerId = m01;
shapes = (
{
ref = R;
},
{
closed = 1;
nodes = (
(10,330,l),
(290,330,l),
(290,390,l),
(10,390,l)
);
}
);
width = 536;
},
{
layerId = "BDCBA76E-5474-4BD3-A1CC-9641C626CFE7";
shapes = (
{
ref = R;
},
{
closed = 1;
nodes = (
(10,290,l),
(290,290,l),
(290,380,l),
(10,380,l)
);
}
);
width = 536;
},
{
layerId = "D8CC3DFA-F3EA-4C7D-84FB-05FCEA5C6558";
shapes = (
{
ref = R;
},
{
closed = 1;
nodes = (
(10,360,l),
(290,360,l),
(290,390,l),
(10,390,l)
);
}
);
width = 536;
}
);
unicode = 588;
},
{
color = 4;
glyphname = S;
lastChange = "2025-07-26 15:54:49 +0000";
layers = (
{
anchors = (
{
name = bottom;
pos = (268,0);
},
{
name = top;
pos = (268,620);
}
);
layerId = m01;
shapes = (
{
closed = 1;
nodes = (
(456,620,l),
(169,620,ls),
(101,620,o),
(49,568,o),
(50,500,cs),
(50,450,ls),
(49,382,o),
(101,330,o),
(169,330,cs),
(367,330,ls),
(401,330,o),
(427,304,o),
(426,270,cs),
(426,120,ls),
(427,86,o),
(401,60,o),
(367,60,cs),
(50,60,l),
(50,0,l),
(367,0,ls),
(435,0,o),
(487,52,o),
(486,120,cs),
(486,270,ls),
(487,338,o),
(435,390,o),
(367,390,cs),
(169,390,ls),
(135,390,o),
(109,416,o),
(110,450,cs),
(110,500,ls),
(109,534,o),
(135,560,o),
(169,560,cs),
(456,560,l)
);
}
);
width = 536;
},
{
anchors = (
{
name = bottom;
pos = (268,0);
},
{
name = top;
pos = (268,620);
}
);
layerId = "BDCBA76E-5474-4BD3-A1CC-9641C626CFE7";
shapes = (
{
closed = 1;
nodes = (
(456,620,l),
(169,620,ls),
(101,620,o),
(49,568,o),
(50,500,cs),
(50,410,ls),
(49,342,o),
(101,290,o),
(169,290,cs),
(366,290,ls),
(383,290,o),
(396,277,o),
(396,260,cs),
(396,120,ls),
(396,103,o),
(383,90,o),
(366,90,cs),
(50,90,l),
(50,0,l),
(367,0,ls),
(435,0,o),
(487,52,o),
(486,120,cs),
(486,261,ls),
(486,329,o),
(434,381,o),
(366,380,cs),
(170,380,ls),
(153,380,o),
(140,393,o),
(140,410,cs),
(140,500,ls),
(140,517,o),
(153,530,o),
(170,530,cs),
(456,530,l)
);
}
);
width = 536;
},
{
anchors = (
{
name = bottom;
pos = (268,0);
},
{
name = top;
pos = (268,620);
}
);
layerId = "D8CC3DFA-F3EA-4C7D-84FB-05FCEA5C6558";
shapes = (
{
closed = 1;
nodes = (
(456,620,l),
(169,620,ls),
(101,620,o),
(49,568,o),
(50,500,cs),
(50,480,ls),
(49,412,o),
(101,360,o),
(169,360,cs),
(367,360,ls),
(418,360,o),
(457,321,o),
(456,270,cs),
(456,120,ls),
(457,69,o),
(418,30,o),
(367,30,cs),
(50,30,l),
(50,0,l),
(367,0,ls),
(435,0,o),
(487,52,o),
(486,120,cs),
(486,270,ls),
(487,338,o),
(435,390,o),
(367,390,cs),
(169,390,ls),
(118,390,o),
(79,429,o),
(80,480,cs),
(80,500,ls),
(79,551,o),
(118,590,o),
(169,590,cs),
(456,590,l)
);
}
);
width = 536;
}
);
unicode = 83;
},
{
glyphname = Germandbls;
lastChange = "2025-07-27 19:39:50 +0000";
layers = (
{
anchors = (
{
name = bottom;
pos = (268,0);
},
{
name = top;
pos = (268,620);
}
);
layerId = m01;
shapes = (
{
closed = 1;
nodes = (
(110,0,l),
(110,588,l),
(80,560,l),
(393,560,l),
(376,596,l),
(205,375,ls),
(181,342,o),
(199,303,o),
(241,303,cs),
(367,303,ls),
(401,303,o),
(427,277,o),
(426,243,cs),
(426,120,ls),
(427,86,o),
(401,60,o),
(367,60,cs),
(160,60,l),
(160,0,l),
(367,0,ls),
(435,0,o),
(487,52,o),
(486,120,cs),
(486,243,ls),
(487,311,o),
(435,363,o),
(367,363,cs),
(272,363,l),
(415,548,ls),
(439,581,o),
(421,620,o),
(379,620,cs),
(50,620,l),
(50,0,l)
);
}
);
width = 536;
},
{
anchors = (
{
name = bottom;
pos = (268,0);
},
{
name = top;
pos = (268,620);
}
);
layerId = "BDCBA76E-5474-4BD3-A1CC-9641C626CFE7";
shapes = (
{
closed = 1;
nodes = (
(140,0,l),
(140,575,l),
(95,530,l),
(387,530,l),
(371,564,l),
(196,370,ls),
(159,329,o),
(186,273,o),
(241,273,cs),
(366,273,ls),
(383,273,o),
(396,260,o),
(396,243,cs),
(396,120,ls),
(396,103,o),
(383,90,o),
(366,90,cs),
(180,90,l),
(180,0,l),
(367,0,ls),
(435,0,o),
(486,52,o),
(486,120,cs),
(486,244,ls),
(486,312,o),
(434,364,o),
(366,363,cs),
(308,363,l),
(454,523,ls),
(491,564,o),
(464,620,o),
(409,620,cs),
(50,620,l),
(50,0,l)
);
}
);
width = 536;
},
{
anchors = (
{
name = bottom;
pos = (268,0);
},
{
name = top;
pos = (268,620);
}
);
layerId = "D8CC3DFA-F3EA-4C7D-84FB-05FCEA5C6558";
shapes = (
{
closed = 1;
nodes = (
(80,0,l),
(80,604,l),
(65,590,l),
(397,590,l),
(389,604,l),
(217,366,ls),
(201,343,o),
(212,318,o),
(241,318,cs),
(366,318,ls),
(417,319,o),
(456,280,o),
(456,229,cs),
(456,119,ls),
(456,68,o),
(417,29,o),
(366,30,cs),
(160,30,l),
(160,0,l),
(366,0,ls),
(434,-1,o),
(486,51,o),
(486,119,cs),
(486,229,ls),
(486,297,o),
(434,349,o),
(366,348,cs),
(241,348,l),
(403,572,ls),
(420,594,o),
(408,620,o),
(379,620,cs),
(50,620,l),
(50,0,l)
);
}
);
width = 536;
}
);
unicode = 7838;
},
{
color = 4;
glyphname = T;
lastChange = "2025-07-09 22:50:03 +0000";
layers = (
{
anchors = (
{
name = bottom;
pos = (268,0);
},
{
name = center;
pos = (268,310);
},
{
name = top;
pos = (268,620);
}
);
layerId = m01;
shapes = (
{
closed = 1;
nodes = (
(516,560,l),
(516,620,l),
(20,620,l),
(20,560,l)
);
},
{
closed = 1;
nodes = (
(238,0,l),
(298,0,l),
(298,585,l),
(238,585,l)
);
}
);
width = 536;
},
{
anchors = (
{
name = bottom;
pos = (268,0);
},
{
name = center;
pos = (268,310);
},
{
name = top;
pos = (268,620);
}
);
layerId = "BDCBA76E-5474-4BD3-A1CC-9641C626CFE7";
shapes = (
{
closed = 1;
nodes = (
(516,530,l),
(516,620,l),
(20,620,l),
(20,530,l)
);
},
{
closed = 1;
nodes = (
(223,0,l),
(313,0,l),
(313,585,l),
(223,585,l)
);
}
);
width = 536;
},
{
anchors = (
{
name = bottom;
pos = (268,0);
},
{
name = center;
pos = (268,310);
},
{
name = top;
pos = (268,620);
}
);
layerId = "D8CC3DFA-F3EA-4C7D-84FB-05FCEA5C6558";
shapes = (
{
closed = 1;
nodes = (
(516,590,l),
(516,620,l),
(20,620,l),
(20,590,l)
);
},
{
closed = 1;
nodes = (
(253,0,l),
(283,0,l),
(283,607,l),
(253,607,l)
);
}
);
width = 536;
}
);
unicode = 84;
},
{
glyphname = Tcedilla;
lastChange = "2025-07-22 00:45:52 +0000";
layers = (
{
anchors = (
{
name = bottom;
pos = (308,-216);
}
);
layerId = m01;
shapes = (
{
ref = T;
},
{
attr = {
identifier = ID0x136ce20c0;
lineCapEnd = 3;
strokeWidth = 50;
};
closed = 0;
nodes = (
(263,0,l),
(263,-65,l),
(343,-65,o),
(353,-90,o),
(352,-128,cs),
(351,-170,o),
(322,-191,o),
(263,-191,cs)
);
},
{
closed = 1;
nodes = (
(238,-43,l),
(298,-43,l),
(298,0,l),
(238,0,l)
);
}
);
width = 536;
},
{
anchors = (
{
name = bottom;
pos = (308,-216);
}
);
layerId = "BDCBA76E-5474-4BD3-A1CC-9641C626CFE7";
shapes = (
{
ref = T;
},
{
attr = {
identifier = ID0x136ce20c0;
lineCapEnd = 3;
strokeWidth = 90;
};
closed = 0;
nodes = (
(268,0,l),
(268,-65,l),
(348,-65,o),
(358,-100,o),
(357,-131,cs),
(356,-180,o),
(327,-201,o),
(268,-201,cs)
);
},
{
closed = 1;
nodes = (
(238,-43,l),
(298,-43,l),
(298,0,l),
(238,0,l)
);
}
);
width = 536;
},
{
anchors = (
{
name = bottom;
pos = (308,-216);
}
);
layerId = "D8CC3DFA-F3EA-4C7D-84FB-05FCEA5C6558";
shapes = (
{
ref = T;
},
{
attr = {
identifier = ID0x136ce20c0;
lineCapEnd = 3;
strokeWidth = 30;
};
closed = 0;
nodes = (
(268,0,l),
(268,-65,l),
(348,-65,o),
(358,-90,o),
(357,-128,cs),
(356,-170,o),
(327,-191,o),
(268,-191,cs)
);
},
{
closed = 1;
nodes = (
(254,-43,l),
(283,-43,l),
(283,0,l),
(254,0,l)
);
}
);
width = 536;
}
);
unicode = 354;
},
{
glyphname = Thook;
lastChange = "2025-07-27 19:40:26 +0000";
layers = (
{
anchors = (
{
name = bottom;
pos = (268,0);
},
{
name = center;
pos = (268,310);
},
{
name = top;
pos = (268,620);
}
);
layerId = m01;
shapes = (
{
alignment = -1;
pos = (-390,0);
ref = _part.hook;
},
{
closed = 1;
nodes = (
(516,560,l),
(516,620,l),
(144,620,l),
(144,560,l)
);
},
{
closed = 1;
nodes = (
(238,595,l),
(238,0,l),
(298,0,l),
(298,595,l)
);
}
);
width = 536;
},
{
anchors = (
{
name = bottom;
pos = (268,0);
},
{
name = center;
pos = (268,310);
},
{
name = top;
pos = (268,620);
}
);
layerId = "BDCBA76E-5474-4BD3-A1CC-9641C626CFE7";
shapes = (
{
alignment = -1;
pos = (-390,0);
ref = _part.hook;
},
{
closed = 1;
nodes = (
(516,530,l),
(516,620,l),
(144,620,l),
(144,530,l)
);
},
{
closed = 1;
nodes = (
(223,575,l),
(223,0,l),
(313,0,l),
(313,575,l)
);
}
);
width = 536;
},
{
anchors = (
{
name = bottom;
pos = (268,0);
},
{
name = center;
pos = (268,310);
},
{
name = top;
pos = (268,620);
}
);
layerId = "D8CC3DFA-F3EA-4C7D-84FB-05FCEA5C6558";
shapes = (
{
alignment = -1;
pos = (-390,0);
ref = _part.hook;
},
{
closed = 1;
nodes = (
(516,590,l),
(516,620,l),
(144,620,l),
(144,590,l)
);
},
{
closed = 1;
nodes = (
(253,605,l),
(253,0,l),
(283,0,l),
(283,605,l)
);
}
);
width = 536;
}
);
unicode = 428;
},
{
color = 4;
glyphname = U;
lastChange = "2025-07-26 15:56:57 +0000";
layers = (
{
anchors = (
{
name = bottom;
pos = (268,0);
},
{
name = ogonek;
pos = (366,0);
},
{
name = top;
pos = (268,620);
},
{
name = topright;
pos = (516,620);
}
);
layerId = m01;
shapes = (
{
closed = 1;
nodes = (
(486,620,l),
(426,620,l),
(426,120,ls),
(427,86,o),
(401,60,o),
(367,60,cs),
(169,60,ls),
(135,60,o),
(109,86,o),
(110,120,cs),
(110,620,l),
(50,620,l),
(50,120,ls),
(49,52,o),
(101,0,o),
(169,0,cs),
(367,0,ls),
(435,0,o),
(487,52,o),
(486,120,cs)
);
}
);
width = 536;
},
{
anchors = (
{
name = bottom;
pos = (268,0);
},
{
name = ogonek;
pos = (366,0);
},
{
name = top;
pos = (268,620);
},
{
name = topright;
pos = (516,620);
}
);
layerId = "BDCBA76E-5474-4BD3-A1CC-9641C626CFE7";
shapes = (
{
closed = 1;
nodes = (
(486,620,l),
(396,620,l),
(396,120,ls),
(396,103,o),
(383,90,o),
(366,90,cs),
(170,90,ls),
(153,90,o),
(140,103,o),
(140,120,cs),
(140,620,l),
(50,620,l),
(50,120,ls),
(49,52,o),
(101,0,o),
(169,0,cs),
(367,0,ls),
(435,0,o),
(487,52,o),
(486,120,cs)
);
}
);
width = 536;
},
{
anchors = (
{
name = bottom;
pos = (268,0);
},
{
name = ogonek;
pos = (366,0);
},
{
name = top;
pos = (268,620);
},
{
name = topright;
pos = (516,620);
}
);
layerId = "D8CC3DFA-F3EA-4C7D-84FB-05FCEA5C6558";
shapes = (
{
closed = 1;
nodes = (
(486,620,l),
(456,620,l),
(456,120,ls),
(457,69,o),
(418,30,o),
(367,30,cs),
(169,30,ls),
(118,30,o),
(79,69,o),
(80,120,cs),
(80,620,l),
(50,620,l),
(50,120,ls),
(49,52,o),
(101,0,o),
(169,0,cs),
(367,0,ls),
(435,0,o),
(487,52,o),
(486,120,cs)
);
}
);
width = 536;
}
);
unicode = 85;
},
{
glyphname = Ubar;
lastChange = "2025-07-22 00:46:38 +0000";
layers = (
{
layerId = m01;
shapes = (
{
ref = U;
},
{
closed = 1;
nodes = (
(10,280,l),
(526,280,l),
(526,340,l),
(10,340,l)
);
}
);
width = 536;
},
{
layerId = "BDCBA76E-5474-4BD3-A1CC-9641C626CFE7";
shapes = (
{
ref = U;
},
{
closed = 1;
nodes = (
(10,265,l),
(526,265,l),
(526,355,l),
(10,355,l)
);
}
);
width = 536;
},
{
layerId = "D8CC3DFA-F3EA-4C7D-84FB-05FCEA5C6558";
shapes = (
{
ref = U;
},
{
closed = 1;
nodes = (
(10,295,l),
(526,295,l),
(526,325,l),
(10,325,l)
);
}
);
width = 536;
}
);
unicode = 580;
},
{
glyphname = Uhorn;
lastChange = "2025-07-27 19:41:34 +0000";
layers = (
{
anchors = (
{
name = bottom;
pos = (208,0);
},
{
name = ogonek;
pos = (422,10);
},
{
name = top;
pos = (208,620);
},
{
name = topright;
pos = (456,620);
}
);
layerId = m01;
shapes = (
{
closed = 1;
nodes = (
(80,120,l),
(80,620,l),
(20,620,l),
(20,120,l)
);
},
{
alignment = -1;
pos = (-90,0);
ref = "_part.horn-sm";
},
{
closed = 1;
nodes = (
(267,60,l),
(139,60,l),
(139,0,l),
(267,0,l)
);
},
{
closed = 1;
nodes = (
(386,120,l),
(386,620,l),
(326,620,l),
(326,120,l)
);
},
{
angle = 180;
pos = (436,620);
ref = "_part-rounded-corner";
},
{
pos = (-30,620);
ref = "_part-rounded-corner";
scale = (1,-1);
}
);
width = 536;
},
{
anchors = (
{
name = bottom;
pos = (208,0);
},
{
name = ogonek;
pos = (422,10);
},
{
name = top;
pos = (208,620);
},
{
name = topright;
pos = (456,620);
}
);
layerId = "BDCBA76E-5474-4BD3-A1CC-9641C626CFE7";
shapes = (
{
closed = 1;
nodes = (
(110,120,l),
(110,620,l),
(20,620,l),
(20,120,l)
);
},
{
alignment = -1;
pos = (-90,0);
ref = "_part.horn-sm";
},
{
closed = 1;
nodes = (
(266,90,l),
(140,90,l),
(140,0,l),
(266,0,l)
);
},
{
closed = 1;
nodes = (
(386,120,l),
(386,620,l),
(296,620,l),
(296,120,l)
);
},
{
angle = 180;
pos = (386,620);
ref = "_part-rounded-corner";
},
{
angle = 90;
pos = (640,0);
ref = "_part-rounded-corner";
}
);
width = 536;
},
{
anchors = (
{
name = bottom;
pos = (208,0);
},
{
name = ogonek;
pos = (422,10);
},
{
name = top;
pos = (208,620);
},
{
name = topright;
pos = (456,620);
}
);
layerId = "D8CC3DFA-F3EA-4C7D-84FB-05FCEA5C6558";
shapes = (
{
closed = 1;
nodes = (
(50,120,l),
(50,620,l),
(20,620,l),
(20,120,l)
);
},
{
alignment = -1;
pos = (-90,0);
ref = "_part.horn-sm";
},
{
closed = 1;
nodes = (
(386,120,l),
(386,620,l),
(356,620,l),
(356,120,l)
);
},
{
closed = 1;
nodes = (
(267,30,l),
(139,30,l),
(139,0,l),
(267,0,l)
);
},
{
angle = 180;
pos = (386,570);
ref = "_part-rounded-corner";
},
{
pos = (20,570);
ref = "_part-rounded-corner";
scale = (1,-1);
}
);
width = 536;
}
);
unicode = 431;
},
{
glyphname = Uhornacute;
lastChange = "2025-07-27 19:42:29 +0000";
layers = (
{
layerId = m01;
shapes = (
{
closed = 1;
nodes = (
(80,120,l),
(80,620,l),
(20,620,l),
(20,120,l)
);
},
{
alignment = -1;
pos = (-90,0);
ref = "_part.horn-sm";
},
{
pos = (-20,140);
ref = acutecomb;
},
{
closed = 1;
nodes = (
(267,60,l),
(139,60,l),
(139,0,l),
(267,0,l)
);
},
{
closed = 1;
nodes = (
(386,120,l),
(386,620,l),
(326,620,l),
(326,120,l)
);
},
{
angle = 180;
pos = (436,620);
ref = "_part-rounded-corner";
},
{
pos = (-30,620);
ref = "_part-rounded-corner";
scale = (1,-1);
}
);
width = 600;
},
{
layerId = "BDCBA76E-5474-4BD3-A1CC-9641C626CFE7";
shapes = (
{
closed = 1;
nodes = (
(110,120,l),
(110,620,l),
(20,620,l),
(20,120,l)
);
},
{
alignment = -1;
pos = (-70,0);
ref = "_part.horn-sm";
},
{
pos = (-20,140);
ref = acutecomb;
},
{
closed = 1;
nodes = (
(286,90,l),
(140,90,l),
(140,0,l),
(286,0,l)
);
},
{
closed = 1;
nodes = (
(406,120,l),
(406,620,l),
(316,620,l),
(316,120,l)
);
},
{
angle = 180;
pos = (406,620);
ref = "_part-rounded-corner";
},
{
pos = (20,620);
ref = "_part-rounded-corner";
scale = (1,-1);
}
);
width = 600;
},
{
layerId = "D8CC3DFA-F3EA-4C7D-84FB-05FCEA5C6558";
shapes = (
{
closed = 1;
nodes = (
(50,120,l),
(50,620,l),
(20,620,l),
(20,120,l)
);
},
{
alignment = -1;
pos = (-90,0);
ref = "_part.horn-sm";
},
{
pos = (-20,140);
ref = acutecomb;
},
{
closed = 1;
nodes = (
(267,30,l),
(139,30,l),
(139,0,l),
(267,0,l)
);
},
{
closed = 1;
nodes = (
(386,120,l),
(386,620,l),
(356,620,l),
(356,120,l)
);
},
{
angle = 180;
pos = (386,570);
ref = "_part-rounded-corner";
},
{
pos = (20,570);
ref = "_part-rounded-corner";
scale = (1,-1);
}
);
width = 600;
}
);
unicode = 7912;
},
{
glyphname = Uhorndotbelow;
lastChange = "2025-07-27 19:43:28 +0000";
layers = (
{
layerId = m01;
shapes = (
{
ref = dotbelowcomb;
},
{
alignment = -1;
pos = (-90,0);
ref = "_part.horn-sm";
},
{
closed = 1;
nodes = (
(80,120,l),
(80,620,l),
(20,620,l),
(20,120,l)
);
},
{
closed = 1;
nodes = (
(267,60,l),
(139,60,l),
(139,0,l),
(267,0,l)
);
},
{
closed = 1;
nodes = (
(386,120,l),
(386,620,l),
(326,620,l),
(326,120,l)
);
},
{
angle = 180;
pos = (436,620);
ref = "_part-rounded-corner";
},
{
pos = (-30,620);
ref = "_part-rounded-corner";
scale = (1,-1);
}
);
width = 536;
},
{
layerId = "BDCBA76E-5474-4BD3-A1CC-9641C626CFE7";
shapes = (
{
ref = dotbelowcomb;
},
{
alignment = -1;
pos = (-110,0);
ref = "_part.horn-sm";
},
{
closed = 1;
nodes = (
(110,120,l),
(110,620,l),
(20,620,l),
(20,120,l)
);
},
{
closed = 1;
nodes = (
(246,90,l),
(140,90,l),
(140,0,l),
(246,0,l)
);
},
{
closed = 1;
nodes = (
(366,120,l),
(366,620,l),
(276,620,l),
(276,120,l)
);
},
{
angle = 180;
pos = (366,620);
ref = "_part-rounded-corner";
},
{
pos = (20,620);
ref = "_part-rounded-corner";
scale = (1,-1);
}
);
width = 536;
},
{
layerId = "D8CC3DFA-F3EA-4C7D-84FB-05FCEA5C6558";
shapes = (
{
ref = dotbelowcomb;
},
{
alignment = -1;
pos = (-90,0);
ref = "_part.horn-sm";
},
{
closed = 1;
nodes = (
(50,120,l),
(50,620,l),
(20,620,l),
(20,120,l)
);
},
{
closed = 1;
nodes = (
(267,30,l),
(139,30,l),
(139,0,l),
(267,0,l)
);
},
{
closed = 1;
nodes = (
(386,114,l),
(386,620,l),
(356,620,l),
(356,114,l)
);
},
{
angle = 180;
pos = (386,570);
ref = "_part-rounded-corner";
},
{
pos = (20,570);
ref = "_part-rounded-corner";
scale = (1,-1);
}
);
width = 536;
}
);
unicode = 7920;
},
{
glyphname = Uhorngrave;
lastChange = "2025-07-27 19:46:16 +0000";
layers = (
{
layerId = m01;
shapes = (
{
closed = 1;
nodes = (
(267,0,ls),
(335,0,o),
(387,52,o),
(386,120,cs),
(386,620,l),
(326,620,l),
(326,120,ls),
(327,86,o),
(301,60,o),
(267,60,cs),
(139,60,ls),
(105,60,o),
(79,86,o),
(80,120,cs),
(80,620,l),
(20,620,l),
(20,120,ls),
(19,52,o),
(71,0,o),
(139,0,cs)
);
},
{
pos = (-101,141);
ref = gravecomb;
},
{
alignment = -1;
pos = (-90,0);
ref = "_part.horn-sm";
}
);
width = 600;
},
{
layerId = "BDCBA76E-5474-4BD3-A1CC-9641C626CFE7";
shapes = (
{
closed = 1;
nodes = (
(287,0,ls),
(355,0,o),
(407,52,o),
(406,120,cs),
(406,620,l),
(316,620,l),
(316,120,ls),
(316,103,o),
(303,90,o),
(286,90,cs),
(140,90,ls),
(123,90,o),
(110,103,o),
(110,120,cs),
(110,620,l),
(20,620,l),
(20,120,ls),
(19,52,o),
(71,0,o),
(139,0,cs)
);
},
{
pos = (-101,141);
ref = gravecomb;
},
{
alignment = -1;
pos = (-70,0);
ref = "_part.horn-sm";
}
);
width = 600;
},
{
layerId = "D8CC3DFA-F3EA-4C7D-84FB-05FCEA5C6558";
shapes = (
{
closed = 1;
nodes = (
(267,0,ls),
(335,0,o),
(387,52,o),
(386,120,cs),
(386,620,l),
(356,620,l),
(356,120,ls),
(357,69,o),
(318,30,o),
(267,30,cs),
(139,30,ls),
(88,30,o),
(49,69,o),
(50,120,cs),
(50,620,l),
(20,620,l),
(20,120,ls),
(19,52,o),
(71,0,o),
(139,0,cs)
);
},
{
pos = (-101,141);
ref = gravecomb;
},
{
alignment = -1;
pos = (-79,0);
ref = "_part.horn-sm";
}
);
width = 600;
}
);
unicode = 7914;
},
{
glyphname = Uhornhookabove;
lastChange = "2025-07-27 19:48:20 +0000";
layers = (
{
layerId = m01;
shapes = (
{
closed = 1;
nodes = (
(267,0,ls),
(335,0,o),
(387,52,o),
(386,120,cs),
(386,620,l),
(326,620,l),
(326,120,ls),
(327,86,o),
(301,60,o),
(267,60,cs),
(139,60,ls),
(105,60,o),
(79,86,o),
(80,120,cs),
(80,620,l),
(20,620,l),
(20,120,ls),
(19,52,o),
(71,0,o),
(139,0,cs)
);
},
{
pos = (-51,141);
ref = hookabovecomb;
},
{
alignment = -1;
pos = (-90,0);
ref = "_part.horn-sm";
}
);
width = 600;
},
{
layerId = "BDCBA76E-5474-4BD3-A1CC-9641C626CFE7";
shapes = (
{
closed = 1;
nodes = (
(287,0,ls),
(355,0,o),
(407,52,o),
(406,120,cs),
(406,620,l),
(316,620,l),
(316,120,ls),
(316,103,o),
(303,90,o),
(286,90,cs),
(140,90,ls),
(123,90,o),
(110,103,o),
(110,120,cs),
(110,620,l),
(20,620,l),
(20,120,ls),
(19,52,o),
(71,0,o),
(139,0,cs)
);
},
{
pos = (-51,141);
ref = hookabovecomb;
},
{
alignment = -1;
pos = (-70,0);
ref = "_part.horn-sm";
}
);
width = 600;
},
{
layerId = "D8CC3DFA-F3EA-4C7D-84FB-05FCEA5C6558";
shapes = (
{
closed = 1;
nodes = (
(267,0,ls),
(335,0,o),
(387,52,o),
(386,120,cs),
(386,620,l),
(356,620,l),
(356,120,ls),
(357,69,o),
(318,30,o),
(267,30,cs),
(139,30,ls),
(88,30,o),
(49,69,o),
(50,120,cs),
(50,620,l),
(20,620,l),
(20,120,ls),
(19,52,o),
(71,0,o),
(139,0,cs)
);
},
{
pos = (-51,141);
ref = hookabovecomb;
},
{
alignment = -1;
pos = (-80,0);
ref = "_part.horn-sm";
}
);
width = 600;
}
);
unicode = 7916;
},
{
glyphname = Uhorntilde;
lastChange = "2025-07-27 19:50:24 +0000";
layers = (
{
layerId = m01;
shapes = (
{
closed = 1;
nodes = (
(267,0,ls),
(335,0,o),
(387,52,o),
(386,120,cs),
(386,620,l),
(326,620,l),
(326,120,ls),
(327,86,o),
(301,60,o),
(267,60,cs),
(139,60,ls),
(105,60,o),
(79,86,o),
(80,120,cs),
(80,620,l),
(20,620,l),
(20,120,ls),
(19,52,o),
(71,0,o),
(139,0,cs)
);
},
{
pos = (-56,139);
ref = tildecomb;
},
{
alignment = -1;
pos = (-90,0);
ref = "_part.horn-sm";
}
);
width = 600;
},
{
layerId = "BDCBA76E-5474-4BD3-A1CC-9641C626CFE7";
shapes = (
{
closed = 1;
nodes = (
(287,0,ls),
(355,0,o),
(407,52,o),
(406,120,cs),
(406,620,l),
(316,620,l),
(316,120,ls),
(316,103,o),
(303,90,o),
(286,90,cs),
(140,90,ls),
(123,90,o),
(110,103,o),
(110,120,cs),
(110,620,l),
(20,620,l),
(20,120,ls),
(19,52,o),
(71,0,o),
(139,0,cs)
);
},
{
pos = (-56,157);
ref = tildecomb;
},
{
alignment = -1;
pos = (-70,0);
ref = "_part.horn-sm";
}
);
width = 600;
},
{
layerId = "D8CC3DFA-F3EA-4C7D-84FB-05FCEA5C6558";
shapes = (
{
closed = 1;
nodes = (
(267,0,ls),
(335,0,o),
(387,52,o),
(386,120,cs),
(386,620,l),
(356,620,l),
(356,120,ls),
(357,69,o),
(318,30,o),
(267,30,cs),
(139,30,ls),
(88,30,o),
(49,69,o),
(50,120,cs),
(50,620,l),
(20,620,l),
(20,120,ls),
(19,52,o),
(71,0,o),
(139,0,cs)
);
},
{
pos = (-56,139);
ref = tildecomb;
},
{
alignment = -1;
pos = (-80,0);
ref = "_part.horn-sm";
}
);
width = 600;
}
);
unicode = 7918;
},
{
glyphname = "Upsilon-latin";
lastChange = "2025-07-27 21:05:06 +0000";
layers = (
{
anchors = (
{
name = bottom;
pos = (268,0);
},
{
name = top;
pos = (268,620);
}
);
layerId = m01;
shapes = (
{
closed = 1;
nodes = (
(169,560,l),
(101,560,o),
(49,508,o),
(50,440,cs),
(50,120,ls),
(49,52,o),
(101,0,o),
(169,0,cs),
(367,0,ls),
(435,0,o),
(487,52,o),
(486,120,cs),
(486,440,ls),
(487,508,o),
(435,560,o),
(367,560,cs),
(511,560,l),
(511,620,l),
(362,620,ls),
(328,620,o),
(302,594,o),
(302,560,cs),
(302,526,o),
(328,500,o),
(362,500,cs),
(367,500,ls),
(401,500,o),
(427,474,o),
(426,440,cs),
(426,120,ls),
(427,86,o),
(401,60,o),
(367,60,cs),
(169,60,ls),
(135,60,o),
(109,86,o),
(110,120,cs),
(110,440,ls),
(109,474,o),
(135,500,o),
(169,500,cs),
(174,500,ls),
(208,500,o),
(234,526,o),
(234,560,cs),
(234,594,o),
(208,620,o),
(174,620,cs),
(25,620,l),
(25,560,l)
);
}
);
width = 536;
},
{
anchors = (
{
name = bottom;
pos = (268,0);
},
{
name = top;
pos = (268,620);
}
);
layerId = "BDCBA76E-5474-4BD3-A1CC-9641C626CFE7";
shapes = (
{
closed = 1;
nodes = (
(149,530,l),
(81,530,o),
(29,478,o),
(30,410,cs),
(30,120,ls),
(29,52,o),
(81,0,o),
(149,0,cs),
(387,0,ls),
(455,0,o),
(507,52,o),
(506,120,cs),
(506,410,ls),
(507,478,o),
(455,530,o),
(387,530,c),
(521,530,l),
(521,620,l),
(382,620,ls),
(331,620,o),
(292,581,o),
(292,530,cs),
(292,479,o),
(331,440,o),
(382,440,cs),
(386,440,ls),
(403,440,o),
(416,427,o),
(416,410,cs),
(416,120,ls),
(416,103,o),
(403,90,o),
(386,90,cs),
(150,90,ls),
(133,90,o),
(120,103,o),
(120,120,cs),
(120,410,ls),
(120,427,o),
(133,440,o),
(150,440,cs),
(154,440,ls),
(205,440,o),
(244,479,o),
(244,530,cs),
(244,581,o),
(205,620,o),
(154,620,cs),
(15,620,l),
(15,530,l)
);
}
);
width = 536;
},
{
anchors = (
{
name = bottom;
pos = (268,0);
},
{
name = top;
pos = (268,620);
}
);
layerId = "D8CC3DFA-F3EA-4C7D-84FB-05FCEA5C6558";
shapes = (
{
closed = 1;
nodes = (
(169,590,l),
(101,590,o),
(49,538,o),
(50,470,cs),
(50,120,ls),
(49,52,o),
(101,0,o),
(169,0,cs),
(367,0,ls),
(435,0,o),
(487,52,o),
(486,120,cs),
(486,470,ls),
(487,538,o),
(435,590,o),
(367,590,cs),
(511,590,l),
(511,620,l),
(332,620,ls),
(315,620,o),
(302,607,o),
(302,590,cs),
(302,573,o),
(315,560,o),
(332,560,cs),
(367,560,ls),
(418,560,o),
(457,521,o),
(456,470,cs),
(456,120,ls),
(457,69,o),
(418,30,o),
(367,30,cs),
(169,30,ls),
(118,30,o),
(79,69,o),
(80,120,cs),
(80,470,ls),
(79,521,o),
(118,560,o),
(169,560,cs),
(204,560,ls),
(221,560,o),
(234,573,o),
(234,590,cs),
(234,607,o),
(221,620,o),
(204,620,cs),
(25,620,l),
(25,590,l)
);
}
);
width = 536;
}
);
unicode = 433;
},
{
color = 4;
glyphname = V;
lastChange = "2025-07-09 22:50:38 +0000";
layers = (
{
anchors = (
{
name = bottom;
pos = (268,0);
},
{
name = top;
pos = (268,620);
}
);
layerId = m01;
shapes = (
{
closed = 1;
nodes = (
(315,0,l),
(486,620,l),
(424,620,l),
(257,17,l),
(279,17,l),
(112,620,l),
(50,620,l),
(221,0,l)
);
}
);
width = 536;
},
{
anchors = (
{
name = bottom;
pos = (268,0);
},
{
name = top;
pos = (268,620);
}
);
layerId = "BDCBA76E-5474-4BD3-A1CC-9641C626CFE7";
shapes = (
{
closed = 1;
nodes = (
(335,0,l),
(506,620,l),
(413,620,l),
(246,17,l),
(290,17,l),
(123,620,l),
(30,620,l),
(201,0,l)
);
}
);
width = 536;
},
{
anchors = (
{
name = bottom;
pos = (268,0);
},
{
name = top;
pos = (268,620);
}
);
layerId = "D8CC3DFA-F3EA-4C7D-84FB-05FCEA5C6558";
shapes = (
{
closed = 1;
nodes = (
(289,0,l),
(502,620,l),
(471,620,l),
(264,19,l),
(272,19,l),
(65,620,l),
(34,620,l),
(247,0,l)
);
}
);
width = 536;
}
);
unicode = 86;
},
{
glyphname = "Gamma-latin";
lastChange = "2025-07-15 01:32:06 +0000";
layers = (
{
layerId = m01;
shapes = (
{
attr = {
lineCapEnd = 4;
lineCapStart = 4;
strokeWidth = 60;
};
closed = 0;
nodes = (
(113,620,l),
(279,326,ls),
(298,293,o),
(374,159,o),
(374,112,cs),
(374,64,o),
(343,30,o),
(300,30,cs),
(257,30,o),
(226,64,o),
(226,112,cs),
(226,159,o),
(302,293,o),
(321,326,cs),
(487,620,l)
);
}
);
width = 600;
},
{
layerId = "BDCBA76E-5474-4BD3-A1CC-9641C626CFE7";
shapes = (
{
attr = {
lineCapEnd = 4;
lineCapStart = 4;
strokeWidth = 90;
};
closed = 0;
nodes = (
(113,620,l),
(279,326,ls),
(299,290,o),
(384,199,o),
(384,132,cs),
(384,69,o),
(352,30,o),
(300,30,cs),
(248,30,o),
(216,69,o),
(216,132,cs),
(216,199,o),
(301,290,o),
(321,326,cs),
(487,620,l)
);
}
);
width = 600;
},
{
layerId = "D8CC3DFA-F3EA-4C7D-84FB-05FCEA5C6558";
shapes = (
{
attr = {
lineCapEnd = 4;
lineCapStart = 4;
strokeWidth = 30;
};
closed = 0;
nodes = (
(113,620,l),
(279,326,ls),
(298,293,o),
(374,159,o),
(374,112,cs),
(374,64,o),
(343,30,o),
(300,30,cs),
(257,30,o),
(226,64,o),
(226,112,cs),
(226,159,o),
(302,293,o),
(321,326,cs),
(487,620,l)
);
}
);
width = 600;
}
);
unicode = 404;
},
{
glyphname = Vhook;
lastChange = "2025-07-22 00:50:29 +0000";
layers = (
{
anchors = (
{
name = bottom;
pos = (268,0);
},
{
name = top;
pos = (268,620);
}
);
layerId = m01;
shapes = (
{
closed = 1;
nodes = (
(315,0,l),
(486,620,l),
(426,620,l),
(259,17,l),
(279,17,l),
(112,620,l),
(50,620,l),
(221,0,l)
);
},
{
alignment = -1;
angle = -90;
pos = (-134,1155);
ref = _part.hook;
}
);
width = 536;
},
{
anchors = (
{
name = bottom;
pos = (268,0);
},
{
name = top;
pos = (268,620);
}
);
layerId = "BDCBA76E-5474-4BD3-A1CC-9641C626CFE7";
shapes = (
{
closed = 1;
nodes = (
(336,0,l),
(507,620,l),
(417,620,l),
(247,17,l),
(290,17,l),
(123,620,l),
(30,620,l),
(201,0,l)
);
},
{
alignment = -1;
angle = -90;
pos = (-113,1155);
ref = _part.hook;
}
);
width = 536;
},
{
anchors = (
{
name = bottom;
pos = (268,0);
},
{
name = top;
pos = (268,620);
}
);
layerId = "D8CC3DFA-F3EA-4C7D-84FB-05FCEA5C6558";
shapes = (
{
closed = 1;
nodes = (
(285,0,l),
(486,620,l),
(456,620,l),
(259,17,l),
(279,17,l),
(82,620,l),
(50,620,l),
(251,0,l)
);
},
{
alignment = -1;
angle = -90;
pos = (-134,1155);
ref = _part.hook;
}
);
width = 536;
}
);
unicode = 434;
},
{
color = 4;
glyphname = W;
lastChange = "2025-07-09 22:50:53 +0000";
layers = (
{
anchors = (
{
name = bottom;
pos = (268,0);
},
{
name = top;
pos = (268,620);
}
);
guides = (
{
pos = (404,132);
}
);
layerId = m01;
shapes = (
{
closed = 1;
nodes = (
(30,0,l),
(110,0,l),
(289,339,l),
(247,339,l),
(426,0,l),
(506,0,l),
(506,620,l),
(446,620,l),
(446,27,l),
(469,46,l),
(302,363,l),
(234,363,l),
(65,44,l),
(90,29,l),
(90,620,l),
(30,620,l)
);
}
);
width = 536;
},
{
anchors = (
{
name = bottom;
pos = (268,0);
},
{
name = top;
pos = (268,620);
}
);
guides = (
{
pos = (404,132);
}
);
layerId = "BDCBA76E-5474-4BD3-A1CC-9641C626CFE7";
shapes = (
{
closed = 1;
nodes = (
(30,0,l),
(135,0,l),
(314,339,l),
(221,339,l),
(400,0,l),
(506,0,l),
(506,620,l),
(416,620,l),
(416,27,l),
(477,46,l),
(310,363,l),
(225,363,l),
(56,44,l),
(120,29,l),
(120,620,l),
(30,620,l)
);
}
);
width = 536;
},
{
anchors = (
{
name = bottom;
pos = (268,0);
},
{
name = top;
pos = (268,620);
}
);
guides = (
{
pos = (404,132);
}
);
layerId = "D8CC3DFA-F3EA-4C7D-84FB-05FCEA5C6558";
shapes = (
{
closed = 1;
nodes = (
(250,340,l),
(51,17,l),
(60,8,l),
(60,620,l),
(30,620,l),
(30,0,l),
(76,0,l),
(276,323,l),
(260,323,l),
(460,0,l),
(506,0,l),
(506,620,l),
(476,620,l),
(476,17,l),
(488,11,l),
(286,340,l)
);
}
);
width = 536;
}
);
unicode = 87;
},
{
glyphname = Whook;
lastChange = "2025-07-27 20:10:55 +0000";
layers = (
{
anchors = (
{
name = bottom;
pos = (268,0);
},
{
name = top;
pos = (268,620);
}
);
layerId = m01;
shapes = (
{
closed = 1;
nodes = (
(98,0,l),
(257,339,l),
(215,339,l),
(373,0,l),
(454,0,l),
(454,620,l),
(394,620,l),
(394,27,l),
(426,27,l),
(270,363,l),
(202,363,l),
(46,29,l),
(78,29,l),
(78,620,l),
(18,620,l),
(18,0,l)
);
},
{
alignment = -1;
pos = (-16,154);
ref = _part.hook;
}
);
width = 536;
},
{
anchors = (
{
name = bottom;
pos = (268,0);
},
{
name = top;
pos = (268,620);
}
);
layerId = "BDCBA76E-5474-4BD3-A1CC-9641C626CFE7";
shapes = (
{
closed = 1;
nodes = (
(123,0,l),
(269,312,l),
(202,312,l),
(348,0,l),
(454,0,l),
(454,620,l),
(364,620,l),
(364,27,l),
(434,27,l),
(278,363,l),
(193,363,l),
(37,29,l),
(108,29,l),
(108,620,l),
(18,620,l),
(18,0,l)
);
},
{
alignment = -1;
pos = (-16,154);
ref = _part.hook;
}
);
width = 536;
},
{
anchors = (
{
name = bottom;
pos = (268,0);
},
{
name = top;
pos = (268,620);
}
);
layerId = "D8CC3DFA-F3EA-4C7D-84FB-05FCEA5C6558";
shapes = (
{
closed = 1;
nodes = (
(83,0,l),
(233,319,l),
(209,319,l),
(359,0,l),
(409,0,l),
(409,620,l),
(379,620,l),
(379,11,l),
(387,11,l),
(237,330,l),
(205,330,l),
(55,11,l),
(63,11,l),
(63,620,l),
(33,620,l),
(33,0,l)
);
},
{
alignment = -1;
pos = (-31,154);
ref = _part.hook;
}
);
width = 536;
}
);
unicode = 11378;
},
{
color = 4;
glyphname = X;
lastChange = "2025-07-09 22:51:46 +0000";
layers = (
{
anchors = (
{
name = bottom;
pos = (268,0);
},
{
name = top;
pos = (268,620);
}
);
layerId = m01;
shapes = (
{
closed = 1;
nodes = (
(45,620,l),
(443,0,l),
(514,0,l),
(116,620,l)
);
},
{
closed = 1;
nodes = (
(305,311,l),
(493,620,l),
(425,620,l),
(237,311,l)
);
},
{
closed = 1;
nodes = (
(244,332,l),
(22,0,l),
(90,0,l),
(299,310,l)
);
}
);
width = 536;
},
{
anchors = (
{
name = bottom;
pos = (268,0);
},
{
name = top;
pos = (268,620);
}
);
layerId = "BDCBA76E-5474-4BD3-A1CC-9641C626CFE7";
shapes = (
{
closed = 1;
nodes = (
(65,620,l),
(399,0,l),
(501,0,l),
(167,620,l)
);
},
{
closed = 1;
nodes = (
(296,267,l),
(487,620,l),
(384,620,l),
(231,337,l)
);
},
{
closed = 1;
nodes = (
(233,367,l),
(21,0,l),
(125,0,l),
(285,276,l)
);
}
);
width = 536;
},
{
anchors = (
{
name = bottom;
pos = (268,0);
},
{
name = top;
pos = (268,620);
}
);
layerId = "D8CC3DFA-F3EA-4C7D-84FB-05FCEA5C6558";
shapes = (
{
closed = 1;
nodes = (
(43,620,l),
(473,0,l),
(509,0,l),
(79,620,l)
);
},
{
closed = 1;
nodes = (
(283,308,l),
(499,620,l),
(463,620,l),
(256,321,l)
);
},
{
closed = 1;
nodes = (
(251,321,l),
(28,0,l),
(64,0,l),
(287,321,l)
);
}
);
width = 536;
}
);
unicode = 88;
},
{
color = 4;
glyphname = Y;
lastChange = "2025-07-26 19:40:53 +0000";
layers = (
{
anchors = (
{
name = bottom;
pos = (268,0);
},
{
name = top;
pos = (268,620);
},
{
name = topleft;
pos = (20,620);
}
);
layerId = m01;
shapes = (
{
closed = 1;
nodes = (
(240,0,l),
(300,0,l),
(300,256,l),
(486,620,l),
(418,620,l),
(249,288,l),
(290,288,l),
(119,620,l),
(50,620,l),
(240,255,l)
);
}
);
width = 536;
},
{
anchors = (
{
name = bottom;
pos = (268,0);
},
{
name = top;
pos = (268,620);
},
{
name = topleft;
pos = (20,620);
}
);
layerId = "BDCBA76E-5474-4BD3-A1CC-9641C626CFE7";
shapes = (
{
closed = 1;
nodes = (
(225,265,l),
(225,0,l),
(315,0,l),
(315,266,l),
(494,620,l),
(393,620,l),
(250,335,l),
(290,335,l),
(145,620,l),
(42,620,l)
);
}
);
width = 536;
},
{
anchors = (
{
name = bottom;
pos = (268,0);
},
{
name = top;
pos = (268,620);
},
{
name = topleft;
pos = (20,620);
}
);
layerId = "D8CC3DFA-F3EA-4C7D-84FB-05FCEA5C6558";
shapes = (
{
closed = 1;
nodes = (
(255,269,l),
(255,0,l),
(285,0,l),
(285,269,l),
(484,620,l),
(449,620,l),
(259,284,l),
(281,284,l),
(88,620,l),
(52,620,l)
);
}
);
width = 536;
}
);
unicode = 89;
},
{
glyphname = Yhook;
lastChange = "2025-07-27 20:12:22 +0000";
layers = (
{
anchors = (
{
name = bottom;
pos = (268,0);
},
{
name = top;
pos = (268,620);
}
);
layerId = m01;
shapes = (
{
closed = 1;
nodes = (
(270,0,l),
(270,256,l),
(454,620,l),
(394,620,l),
(219,273,l),
(259,273,l),
(83,620,l),
(22,620,l),
(210,255,l),
(210,0,l)
);
},
{
alignment = -1;
pos = (-16,154);
ref = _part.hook;
}
);
width = 536;
},
{
anchors = (
{
name = bottom;
pos = (268,0);
},
{
name = top;
pos = (268,620);
}
);
layerId = "BDCBA76E-5474-4BD3-A1CC-9641C626CFE7";
shapes = (
{
closed = 1;
nodes = (
(285,0,l),
(285,266,l),
(464,620,l),
(374,620,l),
(220,314,l),
(260,314,l),
(105,620,l),
(12,620,l),
(195,265,l),
(195,0,l)
);
},
{
alignment = -1;
pos = (-6,154);
ref = _part.hook;
}
);
width = 536;
},
{
anchors = (
{
name = bottom;
pos = (268,0);
},
{
name = top;
pos = (268,620);
}
);
layerId = "D8CC3DFA-F3EA-4C7D-84FB-05FCEA5C6558";
shapes = (
{
closed = 1;
nodes = (
(255,0,l),
(255,283,l),
(424,620,l),
(394,620,l),
(228,291,l),
(250,291,l),
(84,620,l),
(49,620,l),
(225,284,l),
(225,0,l)
);
},
{
alignment = -1;
pos = (-16,154);
ref = _part.hook;
}
);
width = 536;
}
);
unicode = 435;
},
{
color = 4;
glyphname = Z;
lastChange = "2025-07-26 19:39:16 +0000";
layers = (
{
anchors = (
{
name = bottom;
pos = (268,0);
},
{
name = center;
pos = (268,310);
},
{
name = top;
pos = (268,620);
}
);
layerId = m01;
shapes = (
{
closed = 1;
nodes = (
(75,560,l),
(414,560,l),
(413,600,l),
(50,60,l),
(50,0,l),
(486,0,l),
(486,60,l),
(97,60,l),
(96,20,l),
(460,560,l),
(460,620,l),
(75,620,l)
);
}
);
width = 536;
},
{
anchors = (
{
name = bottom;
pos = (268,0);
},
{
name = center;
pos = (268,310);
},
{
name = top;
pos = (268,620);
}
);
layerId = "BDCBA76E-5474-4BD3-A1CC-9641C626CFE7";
shapes = (
{
closed = 1;
nodes = (
(52,0,l),
(486,0,l),
(486,90,l),
(126,90,l),
(109,20,l),
(470,532,l),
(470,620,l),
(75,620,l),
(75,530,l),
(406,530,l),
(408,600,l),
(52,95,l)
);
}
);
width = 536;
},
{
anchors = (
{
name = bottom;
pos = (268,0);
},
{
name = center;
pos = (268,310);
},
{
name = top;
pos = (268,620);
}
);
layerId = "D8CC3DFA-F3EA-4C7D-84FB-05FCEA5C6558";
shapes = (
{
closed = 1;
nodes = (
(460,620,l),
(75,620,l),
(75,590,l),
(442,590,l),
(433,606,l),
(50,31,l),
(50,0,l),
(486,0,l),
(486,30,l),
(68,30,l),
(78,20,l),
(460,591,l)
);
}
);
width = 536;
}
);
unicode = 90;
},
{
glyphname = Saltillo;
lastChange = "2025-07-22 00:52:11 +0000";
layers = (
{
layerId = m01;
shapes = (
{
closed = 1;
nodes = (
(277,415,l),
(327,415,l),
(332,705,l),
(272,705,l)
);
}
);
width = 600;
},
{
layerId = "BDCBA76E-5474-4BD3-A1CC-9641C626CFE7";
shapes = (
{
closed = 1;
nodes = (
(264,415,l),
(344,415,l),
(349,705,l),
(259,705,l)
);
}
);
width = 600;
},
{
layerId = "D8CC3DFA-F3EA-4C7D-84FB-05FCEA5C6558";
shapes = (
{
closed = 1;
nodes = (
(288,415,l),
(315,415,l),
(320,705,l),
(283,705,l)
);
}
);
width = 600;
}
);
unicode = 42891;
},
{
glyphname = Bsmall;
lastChange = "2025-07-27 17:58:03 +0000";
layers = (
{
anchors = (
{
name = bottom;
pos = (268,0);
},
{
name = top;
pos = (268,452);
}
);
layerId = m01;
shapes = (
{
closed = 1;
nodes = (
(50,452,l),
(50,0,l),
(367,0,ls),
(435,0,o),
(487,52,o),
(486,120,cs),
(486,145,ls),
(487,182,o),
(471,214,o),
(448,235,c),
(471,256,o),
(487,288,o),
(486,325,cs),
(486,332,ls),
(487,400,o),
(435,452,o),
(367,452,cs)
);
},
{
closed = 1;
nodes = (
(80,205,l),
(367,205,ls),
(401,205,o),
(427,179,o),
(426,145,cs),
(426,120,ls),
(427,86,o),
(401,60,o),
(367,60,cs),
(80,60,l),
(110,32,l),
(110,420,l),
(80,392,l),
(367,392,ls),
(401,392,o),
(427,366,o),
(426,332,cs),
(426,325,ls),
(427,291,o),
(401,265,o),
(367,265,cs),
(80,265,l)
);
}
);
width = 536;
},
{
anchors = (
{
name = bottom;
pos = (268,0);
},
{
name = top;
pos = (268,452);
}
);
layerId = "BDCBA76E-5474-4BD3-A1CC-9641C626CFE7";
shapes = (
{
closed = 1;
nodes = (
(50,452,l),
(50,0,l),
(367,0,ls),
(435,0,o),
(487,52,o),
(486,120,cs),
(486,165,ls),
(486,193,o),
(478,219,o),
(462,240,c),
(477,260,o),
(486,287,o),
(486,315,cs),
(486,332,ls),
(486,400,o),
(435,452,o),
(367,452,cs)
);
},
{
closed = 1;
nodes = (
(95,195,l),
(366,195,ls),
(383,195,o),
(396,182,o),
(396,165,cs),
(396,120,ls),
(396,103,o),
(383,90,o),
(366,90,cs),
(95,90,l),
(140,45,l),
(140,407,l),
(95,362,l),
(366,362,ls),
(383,362,o),
(396,349,o),
(396,332,cs),
(396,315,ls),
(396,298,o),
(383,285,o),
(366,285,cs),
(95,285,l)
);
}
);
width = 536;
},
{
anchors = (
{
name = bottom;
pos = (268,0);
},
{
name = top;
pos = (268,452);
}
);
layerId = "D8CC3DFA-F3EA-4C7D-84FB-05FCEA5C6558";
shapes = (
{
closed = 1;
nodes = (
(50,452,l),
(50,0,l),
(367,0,ls),
(435,0,o),
(487,52,o),
(486,120,cs),
(486,121,ls),
(487,168,o),
(463,206,o),
(427,226,c),
(463,246,o),
(487,284,o),
(486,331,cs),
(486,332,ls),
(487,400,o),
(435,452,o),
(367,452,cs)
);
},
{
closed = 1;
nodes = (
(65,211,l),
(367,211,ls),
(418,211,o),
(457,172,o),
(456,121,cs),
(456,120,ls),
(457,69,o),
(418,30,o),
(367,30,cs),
(65,30,l),
(80,15,l),
(80,437,l),
(65,422,l),
(367,422,ls),
(418,422,o),
(457,383,o),
(456,332,cs),
(456,331,ls),
(457,280,o),
(418,241,o),
(367,241,cs),
(65,241,l)
);
}
);
width = 536;
}
);
unicode = 665;
},
{
glyphname = Gsmall;
lastChange = "2025-07-27 00:35:43 +0000";
layers = (
{
anchors = (
{
name = bottom;
pos = (268,0);
},
{
name = top;
pos = (268,452);
}
);
layerId = m01;
shapes = (
{
closed = 1;
nodes = (
(446,452,l),
(169,452,ls),
(101,452,o),
(49,400,o),
(50,332,cs),
(50,120,ls),
(49,52,o),
(101,0,o),
(169,0,cs),
(367,0,ls),
(435,0,o),
(487,52,o),
(486,120,cs),
(486,145,ls),
(487,213,o),
(435,265,o),
(367,265,cs),
(221,265,l),
(221,205,l),
(367,205,ls),
(401,205,o),
(427,179,o),
(426,145,cs),
(426,120,ls),
(427,86,o),
(401,60,o),
(367,60,cs),
(169,60,ls),
(135,60,o),
(109,86,o),
(110,120,cs),
(110,332,ls),
(109,366,o),
(135,392,o),
(169,392,cs),
(446,392,l)
);
}
);
width = 536;
},
{
anchors = (
{
name = bottom;
pos = (268,0);
},
{
name = top;
pos = (268,452);
}
);
layerId = "BDCBA76E-5474-4BD3-A1CC-9641C626CFE7";
shapes = (
{
closed = 1;
nodes = (
(446,452,l),
(169,452,ls),
(101,452,o),
(49,400,o),
(50,332,cs),
(50,120,ls),
(49,52,o),
(101,0,o),
(169,0,cs),
(367,0,ls),
(435,0,o),
(487,52,o),
(486,120,cs),
(486,165,ls),
(487,233,o),
(435,285,o),
(367,285,cs),
(221,285,l),
(221,195,l),
(366,195,ls),
(383,195,o),
(396,182,o),
(396,165,cs),
(396,120,ls),
(396,103,o),
(383,90,o),
(366,90,cs),
(170,90,ls),
(153,90,o),
(140,103,o),
(140,120,cs),
(140,332,ls),
(140,349,o),
(153,362,o),
(170,362,cs),
(446,362,l)
);
}
);
width = 536;
},
{
anchors = (
{
name = bottom;
pos = (268,0);
},
{
name = top;
pos = (268,452);
}
);
layerId = "D8CC3DFA-F3EA-4C7D-84FB-05FCEA5C6558";
shapes = (
{
closed = 1;
nodes = (
(446,452,l),
(169,452,ls),
(101,452,o),
(49,400,o),
(50,332,cs),
(50,120,ls),
(49,52,o),
(101,0,o),
(169,0,cs),
(367,0,ls),
(435,0,o),
(487,52,o),
(486,120,cs),
(486,150,ls),
(487,218,o),
(435,270,o),
(367,270,cs),
(221,270,l),
(221,240,l),
(367,240,ls),
(418,240,o),
(457,201,o),
(456,150,cs),
(456,120,ls),
(457,69,o),
(418,30,o),
(367,30,cs),
(169,30,ls),
(118,30,o),
(79,69,o),
(80,120,cs),
(80,332,ls),
(79,383,o),
(118,422,o),
(169,422,cs),
(446,422,l)
);
}
);
width = 536;
}
);
unicode = 610;
},
{
glyphname = Gsmallhook;
lastChange = "2025-07-27 20:13:43 +0000";
layers = (
{
layerId = m01;
shapes = (
{
closed = 1;
nodes = (
(367,0,ls),
(435,0,o),
(487,52,o),
(486,120,cs),
(486,145,ls),
(487,213,o),
(435,265,o),
(367,265,cs),
(221,265,l),
(221,205,l),
(367,205,ls),
(401,205,o),
(427,179,o),
(426,145,cs),
(426,120,ls),
(427,86,o),
(401,60,o),
(367,60,cs),
(169,60,ls),
(135,60,o),
(109,86,o),
(110,120,cs),
(110,332,ls),
(109,366,o),
(135,392,o),
(169,392,cs),
(446,392,l),
(446,452,l),
(169,452,ls),
(101,452,o),
(49,400,o),
(50,332,cs),
(50,120,ls),
(49,52,o),
(101,0,o),
(169,0,cs)
);
},
{
alignment = -1;
pos = (-24,-14);
ref = _part.hook;
}
);
width = 536;
},
{
layerId = "BDCBA76E-5474-4BD3-A1CC-9641C626CFE7";
shapes = (
{
closed = 1;
nodes = (
(367,0,ls),
(435,0,o),
(487,52,o),
(486,120,cs),
(486,165,ls),
(487,233,o),
(435,285,o),
(367,285,cs),
(221,285,l),
(221,195,l),
(366,195,ls),
(383,195,o),
(396,182,o),
(396,165,cs),
(396,120,ls),
(396,103,o),
(383,90,o),
(366,90,cs),
(170,90,ls),
(153,90,o),
(140,103,o),
(140,120,cs),
(140,332,ls),
(140,349,o),
(153,362,o),
(170,362,cs),
(446,362,l),
(446,452,l),
(169,452,ls),
(101,452,o),
(49,400,o),
(50,332,cs),
(50,120,ls),
(49,52,o),
(101,0,o),
(169,0,cs)
);
},
{
alignment = -1;
pos = (-24,-14);
ref = _part.hook;
}
);
width = 536;
},
{
layerId = "D8CC3DFA-F3EA-4C7D-84FB-05FCEA5C6558";
shapes = (
{
closed = 1;
nodes = (
(367,0,ls),
(435,0,o),
(487,52,o),
(486,120,cs),
(486,150,ls),
(487,218,o),
(435,270,o),
(367,270,cs),
(221,270,l),
(221,240,l),
(367,240,ls),
(418,240,o),
(457,201,o),
(456,150,cs),
(456,120,ls),
(457,69,o),
(418,30,o),
(367,30,cs),
(169,30,ls),
(118,30,o),
(79,69,o),
(80,120,cs),
(80,332,ls),
(79,383,o),
(118,422,o),
(169,422,cs),
(416,422,l),
(416,452,l),
(169,452,ls),
(101,452,o),
(49,400,o),
(50,332,cs),
(50,120,ls),
(49,52,o),
(101,0,o),
(169,0,cs)
);
},
{
alignment = -1;
pos = (-24,-14);
ref = _part.hook;
}
);
width = 536;
}
);
unicode = 667;
},
{
glyphname = Hsmall;
lastChange = "2025-07-23 20:04:33 +0000";
layers = (
{
anchors = (
{
name = bottom;
pos = (268,0);
},
{
name = center;
pos = (268,465);
},
{
name = top;
pos = (268,620);
},
{
name = topleft;
pos = (20,620);
}
);
layerId = m01;
shapes = (
{
closed = 1;
nodes = (
(50,0,l),
(110,0,l),
(110,450,l),
(50,450,l)
);
},
{
closed = 1;
nodes = (
(426,0,l),
(486,0,l),
(486,450,l),
(426,450,l)
);
},
{
closed = 1;
nodes = (
(95,205,l),
(440,205,l),
(440,265,l),
(95,265,l)
);
}
);
width = 536;
},
{
anchors = (
{
name = bottom;
pos = (268,0);
},
{
name = center;
pos = (268,465);
},
{
name = top;
pos = (268,620);
},
{
name = topleft;
pos = (20,620);
}
);
layerId = "BDCBA76E-5474-4BD3-A1CC-9641C626CFE7";
shapes = (
{
closed = 1;
nodes = (
(50,0,l),
(140,0,l),
(140,450,l),
(50,450,l)
);
},
{
closed = 1;
nodes = (
(396,0,l),
(486,0,l),
(486,450,l),
(396,450,l)
);
},
{
closed = 1;
nodes = (
(95,197,l),
(440,197,l),
(440,287,l),
(95,287,l)
);
}
);
width = 536;
},
{
anchors = (
{
name = bottom;
pos = (268,0);
},
{
name = center;
pos = (268,465);
},
{
name = top;
pos = (268,620);
},
{
name = topleft;
pos = (20,620);
}
);
layerId = "D8CC3DFA-F3EA-4C7D-84FB-05FCEA5C6558";
shapes = (
{
closed = 1;
nodes = (
(50,0,l),
(80,0,l),
(80,450,l),
(50,450,l)
);
},
{
closed = 1;
nodes = (
(456,0,l),
(486,0,l),
(486,450,l),
(456,450,l)
);
},
{
closed = 1;
nodes = (
(65,220,l),
(470,220,l),
(470,250,l),
(65,250,l)
);
}
);
width = 536;
}
);
unicode = 668;
},
{
glyphname = Ismall;
lastChange = "2025-07-26 23:59:35 +0000";
layers = (
{
anchors = (
{
name = bottom;
pos = (268,0);
},
{
name = top;
pos = (268,452);
}
);
layerId = m01;
shapes = (
{
closed = 1;
nodes = (
(486,392,l),
(486,452,l),
(50,452,l),
(50,392,l)
);
},
{
closed = 1;
nodes = (
(298,30,l),
(298,420,l),
(238,420,l),
(238,30,l)
);
},
{
closed = 1;
nodes = (
(50,60,l),
(50,0,l),
(486,0,l),
(486,60,l)
);
}
);
width = 536;
},
{
anchors = (
{
name = bottom;
pos = (268,0);
},
{
name = top;
pos = (268,452);
}
);
layerId = "BDCBA76E-5474-4BD3-A1CC-9641C626CFE7";
shapes = (
{
closed = 1;
nodes = (
(486,362,l),
(486,452,l),
(50,452,l),
(50,362,l)
);
},
{
closed = 1;
nodes = (
(313,44,l),
(313,405,l),
(223,405,l),
(223,44,l)
);
},
{
closed = 1;
nodes = (
(50,90,l),
(50,0,l),
(486,0,l),
(486,90,l)
);
}
);
width = 536;
},
{
anchors = (
{
name = bottom;
pos = (268,0);
},
{
name = top;
pos = (268,452);
}
);
layerId = "D8CC3DFA-F3EA-4C7D-84FB-05FCEA5C6558";
shapes = (
{
closed = 1;
nodes = (
(486,422,l),
(486,452,l),
(50,452,l),
(50,422,l)
);
},
{
closed = 1;
nodes = (
(283,15,l),
(283,435,l),
(253,435,l),
(253,15,l)
);
},
{
closed = 1;
nodes = (
(50,30,l),
(50,0,l),
(486,0,l),
(486,30,l)
);
}
);
width = 536;
}
);
unicode = 618;
},
{
glyphname = Lsmall;
lastChange = "2025-07-23 20:04:33 +0000";
layers = (
{
anchors = (
{
name = bottom;
pos = (268,0);
},
{
name = center;
pos = (268,310);
},
{
name = top;
pos = (268,620);
},
{
name = topright;
pos = (516,620);
}
);
layerId = m01;
shapes = (
{
closed = 1;
nodes = (
(50,450,l),
(50,0,l),
(486,0,l),
(486,60,l),
(83,60,l),
(110,31,l),
(110,450,l)
);
}
);
width = 536;
},
{
anchors = (
{
name = bottom;
pos = (268,0);
},
{
name = center;
pos = (268,310);
},
{
name = top;
pos = (268,620);
},
{
name = topright;
pos = (516,620);
}
);
layerId = "BDCBA76E-5474-4BD3-A1CC-9641C626CFE7";
shapes = (
{
closed = 1;
nodes = (
(50,450,l),
(50,0,l),
(486,0,l),
(486,90,l),
(83,90,l),
(140,31,l),
(140,450,l)
);
}
);
width = 536;
},
{
anchors = (
{
name = bottom;
pos = (268,0);
},
{
name = center;
pos = (268,310);
},
{
name = top;
pos = (268,620);
},
{
name = topright;
pos = (516,620);
}
);
layerId = "D8CC3DFA-F3EA-4C7D-84FB-05FCEA5C6558";
shapes = (
{
closed = 1;
nodes = (
(50,450,l),
(50,0,l),
(486,0,l),
(486,30,l),
(69,30,l),
(80,11,l),
(80,450,l)
);
}
);
width = 536;
}
);
unicode = 671;
},
{
glyphname = Nsmall;
lastChange = "2025-07-23 20:04:33 +0000";
layers = (
{
anchors = (
{
name = bottom;
pos = (268,0);
},
{
name = top;
pos = (268,620);
}
);
layerId = m01;
shapes = (
{
closed = 1;
nodes = (
(145,450,l),
(81,450,l),
(392,0,l),
(456,0,l)
);
},
{
closed = 1;
nodes = (
(54,450,l),
(50,0,l),
(110,0,l),
(110,450,l)
);
},
{
closed = 1;
nodes = (
(486,0,l),
(486,450,l),
(426,450,l),
(426,0,l)
);
}
);
width = 536;
},
{
anchors = (
{
name = bottom;
pos = (268,0);
},
{
name = top;
pos = (268,620);
}
);
layerId = "BDCBA76E-5474-4BD3-A1CC-9641C626CFE7";
shapes = (
{
closed = 1;
nodes = (
(170,450,l),
(61,450,l),
(372,0,l),
(481,0,l)
);
},
{
closed = 1;
nodes = (
(54,450,l),
(50,0,l),
(141,0,l),
(141,450,l)
);
},
{
closed = 1;
nodes = (
(486,0,l),
(486,450,l),
(396,450,l),
(396,0,l)
);
}
);
width = 536;
},
{
anchors = (
{
name = bottom;
pos = (268,0);
},
{
name = top;
pos = (268,620);
}
);
layerId = "D8CC3DFA-F3EA-4C7D-84FB-05FCEA5C6558";
shapes = (
{
closed = 1;
nodes = (
(96,450,l),
(58,450,l),
(447,0,l),
(485,0,l)
);
},
{
closed = 1;
nodes = (
(54,450,l),
(50,0,l),
(80,0,l),
(84,450,l)
);
},
{
closed = 1;
nodes = (
(486,0,l),
(486,450,l),
(456,450,l),
(456,0,l)
);
}
);
width = 536;
}
);
unicode = 628;
},
{
glyphname = OEsmall;
lastChange = "2025-07-27 20:19:43 +0000";
layers = (
{
anchors = (
{
name = bottom;
pos = (268,0);
},
{
name = top;
pos = (268,452);
}
);
layerId = m01;
shapes = (
{
closed = 1;
nodes = (
(491,0,l),
(491,60,l),
(316,60,l),
(326,77,o),
(331,99,o),
(331,120,cs),
(331,332,ls),
(331,353,o),
(326,374,o),
(316,392,c),
(491,392,l),
(491,452,l),
(164,452,ls),
(96,452,o),
(44,400,o),
(45,332,cs),
(45,120,ls),
(44,52,o),
(96,0,o),
(164,0,cs)
);
},
{
closed = 1;
nodes = (
(130,60,o),
(104,86,o),
(105,120,cs),
(105,332,ls),
(104,366,o),
(130,392,o),
(164,392,cs),
(212,392,ls),
(246,392,o),
(272,366,o),
(271,332,cs),
(271,120,ls),
(272,86,o),
(246,60,o),
(212,60,cs),
(164,60,ls)
);
},
{
closed = 1;
nodes = (
(445,210,l),
(445,270,l),
(291,270,l),
(291,210,l)
);
}
);
width = 536;
},
{
anchors = (
{
name = bottom;
pos = (268,0);
},
{
name = top;
pos = (268,452);
}
);
layerId = "BDCBA76E-5474-4BD3-A1CC-9641C626CFE7";
shapes = (
{
closed = 1;
nodes = (
(491,0,l),
(491,90,l),
(343,90,l),
(345,99,o),
(346,110,o),
(346,120,cs),
(346,332,ls),
(346,342,o),
(345,353,o),
(343,362,c),
(491,362,l),
(491,452,l),
(164,452,ls),
(96,452,o),
(44,400,o),
(45,332,cs),
(45,120,ls),
(44,52,o),
(96,0,o),
(164,0,cs)
);
},
{
closed = 1;
nodes = (
(148,90,o),
(135,103,o),
(135,120,cs),
(135,332,ls),
(135,349,o),
(148,362,o),
(165,362,cs),
(226,362,ls),
(243,362,o),
(256,349,o),
(256,332,cs),
(256,120,ls),
(256,103,o),
(243,90,o),
(226,90,cs),
(165,90,ls)
);
},
{
closed = 1;
nodes = (
(445,195,l),
(445,285,l),
(299,285,l),
(299,195,l)
);
}
);
width = 536;
},
{
anchors = (
{
name = bottom;
pos = (268,0);
},
{
name = top;
pos = (268,452);
}
);
layerId = "D8CC3DFA-F3EA-4C7D-84FB-05FCEA5C6558";
shapes = (
{
closed = 1;
nodes = (
(491,0,l),
(491,30,l),
(278,30,l),
(301,51,o),
(317,83,o),
(316,120,cs),
(316,332,ls),
(317,369,o),
(301,401,o),
(278,422,c),
(491,422,l),
(491,452,l),
(164,452,ls),
(96,452,o),
(44,400,o),
(45,332,cs),
(45,120,ls),
(44,52,o),
(96,0,o),
(164,0,cs)
);
},
{
closed = 1;
nodes = (
(113,30,o),
(74,69,o),
(75,120,cs),
(75,332,ls),
(74,383,o),
(113,422,o),
(164,422,cs),
(197,422,ls),
(248,422,o),
(287,383,o),
(286,332,cs),
(286,120,ls),
(287,69,o),
(248,30,o),
(197,30,cs),
(164,30,ls)
);
},
{
closed = 1;
nodes = (
(445,225,l),
(445,255,l),
(301,255,l),
(301,225,l)
);
}
);
width = 536;
}
);
unicode = 630;
},
{
glyphname = Rsmall;
lastChange = "2025-07-27 18:02:06 +0000";
layers = (
{
anchors = (
{
name = bottom;
pos = (268,0);
},
{
name = top;
pos = (268,452);
}
);
layerId = m01;
shapes = (
{
closed = 1;
nodes = (
(110,422,l),
(80,392,l),
(367,392,ls),
(401,392,o),
(427,366,o),
(426,332,cs),
(426,315,ls),
(427,281,o),
(401,255,o),
(367,255,cs),
(80,255,l),
(80,195,l),
(367,195,ls),
(401,195,o),
(427,169,o),
(426,135,cs),
(426,0,l),
(486,0,l),
(486,135,ls),
(487,172,o),
(471,204,o),
(448,225,c),
(471,246,o),
(487,278,o),
(486,315,cs),
(486,332,ls),
(487,400,o),
(435,452,o),
(367,452,cs),
(50,452,l),
(50,0,l),
(110,0,l)
);
}
);
width = 536;
},
{
anchors = (
{
name = bottom;
pos = (268,0);
},
{
name = top;
pos = (268,452);
}
);
layerId = "BDCBA76E-5474-4BD3-A1CC-9641C626CFE7";
shapes = (
{
closed = 1;
nodes = (
(140,407,l),
(95,362,l),
(366,362,ls),
(383,362,o),
(396,349,o),
(396,332,cs),
(396,315,ls),
(396,298,o),
(383,285,o),
(366,285,cs),
(95,285,l),
(95,195,l),
(366,195,ls),
(383,195,o),
(396,182,o),
(396,165,cs),
(396,0,l),
(486,0,l),
(486,165,ls),
(486,193,o),
(478,219,o),
(462,240,c),
(477,260,o),
(486,287,o),
(486,315,cs),
(486,332,ls),
(487,400,o),
(435,452,o),
(367,452,cs),
(50,452,l),
(50,0,l),
(140,0,l)
);
}
);
width = 536;
},
{
anchors = (
{
name = bottom;
pos = (268,0);
},
{
name = top;
pos = (268,452);
}
);
layerId = "D8CC3DFA-F3EA-4C7D-84FB-05FCEA5C6558";
shapes = (
{
closed = 1;
nodes = (
(80,436,l),
(65,422,l),
(366,422,ls),
(417,422,o),
(456,384,o),
(456,333,cs),
(456,331,ls),
(456,281,o),
(420,242,o),
(370,242,cs),
(65,242,l),
(65,212,l),
(370,212,ls),
(420,212,o),
(456,173,o),
(456,123,cs),
(456,0,l),
(486,0,l),
(486,123,ls),
(486,169,o),
(463,207,o),
(427,227,c),
(463,247,o),
(486,285,o),
(486,331,cs),
(486,333,ls),
(486,401,o),
(434,453,o),
(366,452,cs),
(50,452,l),
(50,0,l),
(80,0,l)
);
}
);
width = 536;
}
);
unicode = 640;
},
{
glyphname = Ysmall;
lastChange = "2025-07-23 20:04:33 +0000";
layers = (
{
anchors = (
{
name = bottom;
pos = (268,0);
},
{
name = top;
pos = (268,620);
},
{
name = topleft;
pos = (20,620);
}
);
layerId = m01;
shapes = (
{
closed = 1;
nodes = (
(240,0,l),
(300,0,l),
(300,204,l),
(240,204,l)
);
},
{
closed = 1;
nodes = (
(295,188,l),
(121,450,l),
(52,450,l),
(240,165,l)
);
},
{
closed = 1;
nodes = (
(300,166,l),
(484,450,l),
(416,450,l),
(245,190,l)
);
}
);
width = 536;
},
{
anchors = (
{
name = bottom;
pos = (268,0);
},
{
name = top;
pos = (268,620);
},
{
name = topleft;
pos = (20,620);
}
);
layerId = "BDCBA76E-5474-4BD3-A1CC-9641C626CFE7";
shapes = (
{
closed = 1;
nodes = (
(225,0,l),
(315,0,l),
(315,204,l),
(225,204,l)
);
},
{
closed = 1;
nodes = (
(310,188,l),
(136,450,l),
(36,450,l),
(233,151,l)
);
},
{
closed = 1;
nodes = (
(306,152,l),
(499,450,l),
(399,450,l),
(230,190,l)
);
}
);
width = 536;
},
{
anchors = (
{
name = bottom;
pos = (268,0);
},
{
name = top;
pos = (268,620);
},
{
name = topleft;
pos = (20,620);
}
);
layerId = "D8CC3DFA-F3EA-4C7D-84FB-05FCEA5C6558";
shapes = (
{
closed = 1;
nodes = (
(255,0,l),
(285,0,l),
(285,204,l),
(255,204,l)
);
},
{
closed = 1;
nodes = (
(281,188,l),
(107,450,l),
(72,450,l),
(260,165,l)
);
},
{
closed = 1;
nodes = (
(280,166,l),
(464,450,l),
(430,450,l),
(259,190,l)
);
}
);
width = 536;
}
);
unicode = 655;
},
{
color = 4;
glyphname = a;
lastChange = "2025-07-26 16:49:15 +0000";
layers = (
{
anchors = (
{
name = bottom;
pos = (268,0);
},
{
name = ogonek;
pos = (482,10);
},
{
name = top;
pos = (268,450);
}
);
layerId = m01;
shapes = (
{
closed = 1;
nodes = (
(456,270,l),
(169,270,ls),
(101,270,o),
(49,218,o),
(50,150,cs),
(50,120,ls),
(49,52,o),
(101,0,o),
(169,0,cs),
(486,0,l),
(486,332,ls),
(486,400,o),
(435,452,o),
(367,452,cs),
(80,452,l),
(80,392,l),
(367,392,ls),
(401,392,o),
(426,366,o),
(426,332,cs),
(426,30,l),
(456,60,l),
(169,60,ls),
(135,60,o),
(109,86,o),
(110,120,cs),
(110,150,ls),
(109,184,o),
(135,210,o),
(169,210,cs),
(456,210,l)
);
}
);
width = 536;
},
{
associatedMasterId = "D8CC3DFA-F3EA-4C7D-84FB-05FCEA5C6558";
layerId = "50B656A0-B421-4AE1-84BE-0758F485499E";
width = 600;
},
{
anchors = (
{
name = bottom;
pos = (268,0);
},
{
name = ogonek;
pos = (482,10);
},
{
name = top;
pos = (268,450);
}
);
layerId = "BDCBA76E-5474-4BD3-A1CC-9641C626CFE7";
shapes = (
{
closed = 1;
nodes = (
(440,285,l),
(169,285,ls),
(101,285,o),
(49,233,o),
(50,165,cs),
(50,119,ls),
(50,51,o),
(102,-1,o),
(170,0,cs),
(486,0,l),
(486,333,ls),
(486,401,o),
(434,453,o),
(366,452,cs),
(80,452,l),
(80,362,l),
(366,362,ls),
(383,362,o),
(396,349,o),
(396,332,cs),
(396,45,l),
(441,90,l),
(170,90,ls),
(153,90,o),
(140,103,o),
(140,120,cs),
(140,165,ls),
(140,182,o),
(153,195,o),
(170,195,cs),
(440,195,l)
);
}
);
width = 536;
},
{
anchors = (
{
name = bottom;
pos = (268,0);
},
{
name = ogonek;
pos = (486,0);
},
{
name = top;
pos = (268,450);
}
);
layerId = "D8CC3DFA-F3EA-4C7D-84FB-05FCEA5C6558";
shapes = (
{
closed = 1;
nodes = (
(470,270,l),
(169,270,ls),
(101,270,o),
(49,218,o),
(50,150,cs),
(50,120,ls),
(49,52,o),
(101,0,o),
(169,0,cs),
(486,0,l),
(486,333,ls),
(486,401,o),
(434,453,o),
(366,452,cs),
(80,452,l),
(80,422,l),
(366,422,ls),
(417,423,o),
(456,384,o),
(456,333,cs),
(456,15,l),
(470,30,l),
(169,30,ls),
(118,30,o),
(79,69,o),
(80,120,cs),
(80,150,ls),
(79,201,o),
(118,240,o),
(169,240,cs),
(470,240,l)
);
}
);
width = 536;
}
);
unicode = 97;
},
{
glyphname = "alpha-latin";
lastChange = "2025-07-27 20:25:19 +0000";
layers = (
{
anchors = (
{
name = bottom;
pos = (268,0);
},
{
name = top;
pos = (268,452);
}
);
layerId = m01;
shapes = (
{
closed = 1;
nodes = (
(279,0,ls),
(315,0,o),
(347,15,o),
(368,38,c),
(390,14,o),
(421,0,o),
(457,0,cs),
(521,0,l),
(521,60,l),
(457,60,ls),
(424,60,o),
(398,83,o),
(398,116,cs),
(398,336,ls),
(398,369,o),
(424,392,o),
(457,392,cs),
(521,392,l),
(521,452,l),
(457,452,ls),
(421,452,o),
(389,437,o),
(368,414,c),
(346,438,o),
(315,452,o),
(279,452,cs),
(131,452,ls),
(63,452,o),
(11,400,o),
(12,332,cs),
(12,120,ls),
(11,52,o),
(63,0,o),
(131,0,cs)
);
},
{
closed = 1;
nodes = (
(97,60,o),
(71,86,o),
(72,120,cs),
(72,332,ls),
(71,366,o),
(97,392,o),
(131,392,cs),
(279,392,ls),
(312,392,o),
(338,369,o),
(338,336,cs),
(338,116,ls),
(338,83,o),
(312,60,o),
(279,60,cs),
(131,60,ls)
);
}
);
width = 536;
},
{
anchors = (
{
name = bottom;
pos = (268,0);
},
{
name = top;
pos = (268,452);
}
);
layerId = "BDCBA76E-5474-4BD3-A1CC-9641C626CFE7";
shapes = (
{
closed = 1;
nodes = (
(279,0,ls),
(307,0,o),
(333,9,o),
(353,24,c),
(373,9,o),
(399,0,o),
(427,0,cs),
(521,0,l),
(521,90,l),
(428,90,ls),
(411,90,o),
(398,103,o),
(398,120,cs),
(398,332,ls),
(398,349,o),
(411,362,o),
(428,362,cs),
(521,362,l),
(521,452,l),
(427,452,ls),
(399,452,o),
(373,443,o),
(353,428,c),
(333,443,o),
(307,452,o),
(279,452,cs),
(131,452,ls),
(63,452,o),
(11,400,o),
(12,332,cs),
(12,120,ls),
(11,52,o),
(63,0,o),
(131,0,cs)
);
},
{
closed = 1;
nodes = (
(115,90,o),
(102,103,o),
(102,120,cs),
(102,332,ls),
(102,349,o),
(115,362,o),
(132,362,cs),
(278,362,ls),
(295,362,o),
(308,349,o),
(308,332,cs),
(308,120,ls),
(308,103,o),
(295,90,o),
(278,90,cs),
(132,90,ls)
);
}
);
width = 536;
},
{
anchors = (
{
name = bottom;
pos = (268,0);
},
{
name = top;
pos = (268,452);
}
);
layerId = "D8CC3DFA-F3EA-4C7D-84FB-05FCEA5C6558";
shapes = (
{
closed = 1;
nodes = (
(264,0,ls),
(310,0,o),
(348,23,o),
(368,59,c),
(388,23,o),
(426,0,o),
(472,0,cs),
(521,0,l),
(521,30,l),
(472,30,ls),
(422,30,o),
(383,66,o),
(383,116,cs),
(383,336,l),
(383,386,o),
(422,422,o),
(472,422,cs),
(521,422,l),
(521,452,l),
(472,452,ls),
(426,452,o),
(388,429,o),
(368,393,c),
(348,429,o),
(310,452,o),
(264,452,cs),
(131,452,ls),
(63,452,o),
(11,400,o),
(12,332,cs),
(12,120,ls),
(11,52,o),
(63,0,o),
(131,0,cs)
);
},
{
closed = 1;
nodes = (
(80,30,o),
(41,69,o),
(42,120,cs),
(42,332,ls),
(41,383,o),
(80,422,o),
(131,422,cs),
(264,422,ls),
(314,422,o),
(353,386,o),
(353,336,c),
(353,116,ls),
(353,66,o),
(314,30,o),
(264,30,cs),
(131,30,ls)
);
}
);
width = 536;
}
);
unicode = 593;
},
{
glyphname = ae;
lastChange = "2025-07-27 21:20:52 +0000";
layers = (
{
anchors = (
{
name = bottom;
pos = (268,0);
},
{
name = top;
pos = (268,452);
}
);
layerId = m01;
shapes = (
{
closed = 1;
nodes = (
(50,392,l),
(177,392,ls),
(210,392,o),
(236,369,o),
(236,336,c),
(236,116,ls),
(236,83,o),
(210,60,o),
(177,60,cs),
(139,60,ls),
(105,60,o),
(79,86,o),
(80,120,cs),
(80,140,ls),
(79,174,o),
(105,200,o),
(139,200,cs),
(256,200,l),
(256,260,l),
(139,260,ls),
(71,260,o),
(19,208,o),
(20,140,cs),
(20,120,ls),
(19,52,o),
(71,0,o),
(139,0,cs),
(177,0,ls),
(213,0,o),
(245,15,o),
(266,38,c),
(288,14,o),
(319,0,o),
(355,0,cs),
(515,0,l),
(515,60,l),
(355,60,ls),
(322,60,o),
(296,83,o),
(296,116,cs),
(296,336,l),
(296,369,o),
(322,392,o),
(355,392,cs),
(393,392,ls),
(427,392,o),
(453,366,o),
(452,332,cs),
(452,320,ls),
(453,286,o),
(427,260,o),
(393,260,cs),
(276,260,l),
(276,200,l),
(393,200,ls),
(461,200,o),
(513,252,o),
(512,320,cs),
(512,332,ls),
(513,400,o),
(461,452,o),
(393,452,cs),
(355,452,ls),
(319,452,o),
(287,437,o),
(266,414,c),
(244,438,o),
(213,452,o),
(177,452,cs),
(50,452,l)
);
}
);
width = 536;
},
{
anchors = (
{
name = bottom;
pos = (268,0);
},
{
name = top;
pos = (268,452);
}
);
layerId = "BDCBA76E-5474-4BD3-A1CC-9641C626CFE7";
shapes = (
{
closed = 1;
nodes = (
(60,362,l),
(193,362,ls),
(210,362,o),
(223,349,o),
(223,332,cs),
(223,120,ls),
(223,103,o),
(210,90,o),
(193,90,cs),
(140,90,ls),
(123,90,o),
(110,103,o),
(110,120,cs),
(110,165,ls),
(110,182,o),
(123,195,o),
(140,195,cs),
(259,195,l),
(259,285,l),
(139,285,ls),
(71,285,o),
(19,233,o),
(20,165,cs),
(20,120,ls),
(19,52,o),
(71,0,o),
(139,0,cs),
(194,0,ls),
(222,0,o),
(248,9,o),
(268,24,c),
(288,9,o),
(314,0,o),
(342,0,cs),
(516,0,l),
(516,90,l),
(343,90,ls),
(326,90,o),
(313,103,o),
(313,120,cs),
(313,332,ls),
(313,349,o),
(326,362,o),
(343,362,cs),
(396,362,ls),
(413,362,o),
(426,349,o),
(426,332,cs),
(426,315,ls),
(426,298,o),
(413,285,o),
(396,285,cs),
(277,285,l),
(277,195,l),
(397,195,ls),
(465,195,o),
(517,247,o),
(516,315,cs),
(516,332,ls),
(517,400,o),
(465,452,o),
(397,452,cs),
(342,452,ls),
(314,452,o),
(288,443,o),
(268,428,c),
(248,443,o),
(222,452,o),
(194,452,cs),
(60,452,l)
);
}
);
width = 536;
},
{
anchors = (
{
name = bottom;
pos = (268,0);
},
{
name = top;
pos = (268,452);
}
);
layerId = "D8CC3DFA-F3EA-4C7D-84FB-05FCEA5C6558";
shapes = (
{
closed = 1;
nodes = (
(60,422,l),
(169,422,ls),
(219,422,o),
(258,386,o),
(258,336,c),
(258,116,ls),
(258,66,o),
(219,30,o),
(169,30,cs),
(139,30,ls),
(88,30,o),
(49,69,o),
(50,120,cs),
(50,121,ls),
(49,172,o),
(88,211,o),
(139,211,cs),
(268,211,l),
(268,241,l),
(139,241,ls),
(71,241,o),
(19,189,o),
(20,121,cs),
(20,120,ls),
(19,52,o),
(71,0,o),
(139,0,cs),
(169,0,ls),
(215,0,o),
(253,23,o),
(273,59,c),
(293,23,o),
(331,0,o),
(377,0,cs),
(516,0,l),
(516,30,l),
(377,30,ls),
(327,30,o),
(288,66,o),
(288,116,cs),
(288,336,l),
(288,386,o),
(327,422,o),
(377,422,cs),
(397,422,ls),
(448,422,o),
(487,383,o),
(486,332,cs),
(486,331,ls),
(487,280,o),
(448,241,o),
(397,241,cs),
(278,241,l),
(278,211,l),
(397,211,ls),
(465,211,o),
(517,263,o),
(516,331,cs),
(516,332,ls),
(517,400,o),
(465,452,o),
(397,452,cs),
(377,452,ls),
(331,452,o),
(293,429,o),
(273,393,c),
(253,429,o),
(215,452,o),
(169,452,cs),
(60,452,l)
);
}
);
width = 536;
}
);
unicode = 230;
},
{
color = 4;
glyphname = b;
lastChange = "2025-07-26 16:50:15 +0000";
layers = (
{
anchors = (
{
name = bottom;
pos = (268,0);
},
{
name = center;
pos = (268,225);
},
{
name = top;
pos = (268,450);
}
);
layerId = m01;
shapes = (
{
closed = 1;
nodes = (
(367,392,ls),
(401,392,o),
(426,366,o),
(426,332,cs),
(426,120,ls),
(426,86,o),
(401,60,o),
(367,60,cs),
(80,60,l),
(110,30,l),
(110,620,l),
(50,620,l),
(50,0,l),
(367,0,ls),
(435,0,o),
(486,52,o),
(486,120,cs),
(486,332,ls),
(486,400,o),
(435,452,o),
(367,452,cs),
(80,452,l),
(80,392,l)
);
}
);
width = 536;
},
{
anchors = (
{
name = bottom;
pos = (268,0);
},
{
name = center;
pos = (268,225);
},
{
name = top;
pos = (268,450);
}
);
layerId = "BDCBA76E-5474-4BD3-A1CC-9641C626CFE7";
shapes = (
{
closed = 1;
nodes = (
(366,362,ls),
(383,362,o),
(396,349,o),
(396,332,cs),
(396,120,ls),
(396,103,o),
(383,90,o),
(366,90,cs),
(95,90,l),
(140,45,l),
(140,620,l),
(50,620,l),
(50,0,l),
(367,0,ls),
(435,0,o),
(486,52,o),
(486,120,cs),
(486,333,ls),
(486,401,o),
(434,452,o),
(366,452,cs),
(95,452,l),
(95,362,l)
);
}
);
width = 536;
},
{
anchors = (
{
name = bottom;
pos = (268,0);
},
{
name = center;
pos = (268,225);
},
{
name = top;
pos = (268,450);
}
);
layerId = "D8CC3DFA-F3EA-4C7D-84FB-05FCEA5C6558";
shapes = (
{
closed = 1;
nodes = (
(366,422,ls),
(417,422,o),
(456,384,o),
(456,333,cs),
(456,120,ls),
(456,69,o),
(418,30,o),
(367,30,cs),
(65,30,l),
(80,15,l),
(80,620,l),
(50,620,l),
(50,0,l),
(367,0,ls),
(435,0,o),
(486,52,o),
(486,120,cs),
(486,333,ls),
(486,401,o),
(434,452,o),
(366,452,cs),
(65,452,l),
(65,422,l)
);
}
);
width = 536;
}
);
unicode = 98;
},
{
glyphname = bilabialpercussive;
lastChange = "2025-07-23 20:15:14 +0000";
layers = (
{
hints = (
{
name = _corner.round;
origin = (0,1);
scale = (0.5,0.5);
type = Corner;
},
{
name = _corner.round;
origin = (0,2);
scale = (0.5,0.5);
type = Corner;
},
{
name = _corner.round;
origin = (0,3);
scale = (0.5,0.5);
type = Corner;
},
{
name = _corner.round;
origin = (1,1);
scale = (0.5,0.5);
type = Corner;
},
{
name = _corner.round;
origin = (1,2);
scale = (0.5,0.5);
type = Corner;
},
{
name = _corner.round;
origin = (1,3);
scale = (0.5,0.5);
type = Corner;
}
);
layerId = m01;
shapes = (
{
attr = {
lineCapEnd = "4";
lineCapStart = "4";
strokeWidth = 50;
};
closed = 0;
nodes = (
(63,269,l),
(178,15,l),
(268,232,l),
(358,15,l),
(473,269,l)
);
},
{
attr = {
lineCapEnd = "4";
lineCapStart = "4";
strokeWidth = 50;
};
closed = 0;
nodes = (
(63,620,l),
(178,366,l),
(268,583,l),
(358,366,l),
(473,620,l)
);
}
);
width = 536;
},
{
hints = (
{
name = _corner.round;
origin = (0,1);
scale = (0.5,0.5);
type = Corner;
},
{
name = _corner.round;
origin = (0,2);
scale = (0.5,0.5);
type = Corner;
},
{
name = _corner.round;
origin = (0,3);
scale = (0.5,0.5);
type = Corner;
},
{
name = _corner.round;
origin = (1,1);
scale = (0.5,0.5);
type = Corner;
},
{
name = _corner.round;
origin = (1,2);
scale = (0.5,0.5);
type = Corner;
},
{
name = _corner.round;
origin = (1,3);
scale = (0.5,0.5);
type = Corner;
}
);
layerId = "BDCBA76E-5474-4BD3-A1CC-9641C626CFE7";
shapes = (
{
attr = {
lineCapEnd = "4";
lineCapStart = "4";
strokeWidth = 80;
};
closed = 0;
nodes = (
(63,279,l),
(178,25,l),
(268,242,l),
(358,25,l),
(473,279,l)
);
},
{
attr = {
lineCapEnd = "4";
lineCapStart = "4";
strokeWidth = 80;
};
closed = 0;
nodes = (
(63,620,l),
(178,366,l),
(268,583,l),
(358,366,l),
(473,620,l)
);
}
);
width = 536;
},
{
hints = (
{
name = _corner.round;
origin = (0,1);
scale = (0.5,0.5);
type = Corner;
},
{
name = _corner.round;
origin = (0,2);
scale = (0.5,0.5);
type = Corner;
},
{
name = _corner.round;
origin = (0,3);
scale = (0.5,0.5);
type = Corner;
},
{
name = _corner.round;
origin = (1,1);
scale = (0.5,0.5);
type = Corner;
},
{
name = _corner.round;
origin = (1,2);
scale = (0.5,0.5);
type = Corner;
},
{
name = _corner.round;
origin = (1,3);
scale = (0.5,0.5);
type = Corner;
}
);
layerId = "D8CC3DFA-F3EA-4C7D-84FB-05FCEA5C6558";
shapes = (
{
attr = {
lineCapEnd = "4";
lineCapStart = "4";
strokeWidth = 30;
};
closed = 0;
nodes = (
(63,269,l),
(178,15,l),
(268,232,l),
(358,15,l),
(473,269,l)
);
},
{
attr = {
lineCapEnd = "4";
lineCapStart = "4";
strokeWidth = 30;
};
closed = 0;
nodes = (
(63,620,l),
(178,366,l),
(268,583,l),
(358,366,l),
(473,620,l)
);
}
);
width = 536;
}
);
unicode = 684;
},
{
glyphname = bmiddletilde;
lastChange = "2025-07-27 21:24:42 +0000";
layers = (
{
layerId = m01;
shapes = (
{
closed = 1;
nodes = (
(162,392,l),
(407,392,ls),
(441,392,o),
(467,366,o),
(466,332,cs),
(466,120,ls),
(467,86,o),
(441,60,o),
(407,60,cs),
(162,60,l),
(190,33,l),
(190,620,l),
(130,620,l),
(130,0,l),
(407,0,ls),
(475,0,o),
(527,52,o),
(526,120,cs),
(526,332,ls),
(527,400,o),
(475,452,o),
(407,452,cs),
(162,452,l)
);
},
{
attr = {
identifier = ID0x330147af0;
};
closed = 1;
nodes = (
(260,538,o),
(254,529,o),
(228,529,cs),
(183,529,o),
(178,600,o),
(105,600,cs),
(65,600,o),
(12,576,o),
(12,479,c),
(72,479,l),
(72,530,o),
(88,540,o),
(105,540,cs),
(142,540,o),
(155,469,o),
(228,469,cs),
(274,469,o),
(320,486,o),
(320,590,c),
(260,590,l)
);
}
);
width = 536;
},
{
layerId = "BDCBA76E-5474-4BD3-A1CC-9641C626CFE7";
shapes = (
{
closed = 1;
nodes = (
(175,362,l),
(406,362,ls),
(423,362,o),
(436,349,o),
(436,332,cs),
(436,120,ls),
(436,103,o),
(423,90,o),
(406,90,cs),
(175,90,l),
(220,45,l),
(220,620,l),
(130,620,l),
(130,0,l),
(407,0,ls),
(475,0,o),
(527,52,o),
(526,120,cs),
(526,332,ls),
(527,400,o),
(475,452,o),
(407,452,cs),
(175,452,l)
);
},
{
attr = {
identifier = ID0x330147af0;
};
closed = 1;
nodes = (
(313,575,o),
(298,556,o),
(270,556,c),
(222,556,o),
(219,620,o),
(138,620,c),
(61,620,o),
(10,567,o),
(10,489,c),
(90,489,l),
(90,523,o),
(107,540,o),
(138,540,c),
(173,540,o),
(187,476,o),
(270,476,c),
(345,476,o),
(393,534,o),
(393,614,c),
(313,614,l)
);
}
);
width = 536;
},
{
layerId = "D8CC3DFA-F3EA-4C7D-84FB-05FCEA5C6558";
shapes = (
{
closed = 1;
nodes = (
(145,422,l),
(407,422,ls),
(458,422,o),
(497,383,o),
(496,332,cs),
(496,120,ls),
(497,69,o),
(458,30,o),
(407,30,cs),
(142,30,l),
(160,15,l),
(160,620,l),
(130,620,l),
(130,0,l),
(407,0,ls),
(475,0,o),
(527,52,o),
(526,120,cs),
(526,332,ls),
(527,400,o),
(475,452,o),
(407,452,cs),
(145,452,l)
);
},
{
attr = {
identifier = ID0x330147af0;
};
closed = 1;
nodes = (
(258,526,o),
(242,518,o),
(211,518,cs),
(155,518,o),
(156,589,o),
(88,589,cs),
(53,589,o),
(10,568,o),
(10,483,c),
(40,483,l),
(40,546,o),
(65,559,o),
(88,559,cs),
(137,559,o),
(138,488,o),
(211,488,cs),
(252,488,o),
(288,502,o),
(288,594,c),
(258,594,l)
);
}
);
width = 536;
}
);
unicode = 7532;
},
{
color = 4;
glyphname = c;
lastChange = "2025-07-26 16:50:35 +0000";
layers = (
{
anchors = (
{
name = bottom;
pos = (268,0);
},
{
name = center;
pos = (268,225);
},
{
name = top;
pos = (268,450);
}
);
layerId = m01;
shapes = (
{
closed = 1;
nodes = (
(486,452,l),
(169,452,ls),
(101,452,o),
(50,400,o),
(50,332,cs),
(50,120,ls),
(50,52,o),
(101,0,o),
(169,0,cs),
(486,0,l),
(486,60,l),
(169,60,ls),
(135,60,o),
(110,86,o),
(110,120,cs),
(110,332,ls),
(110,366,o),
(135,392,o),
(169,392,cs),
(486,392,l)
);
}
);
width = 536;
},
{
anchors = (
{
name = bottom;
pos = (268,0);
},
{
name = center;
pos = (268,225);
},
{
name = top;
pos = (268,450);
}
);
layerId = "BDCBA76E-5474-4BD3-A1CC-9641C626CFE7";
shapes = (
{
closed = 1;
nodes = (
(486,452,l),
(169,452,ls),
(101,452,o),
(50,400,o),
(50,332,cs),
(50,119,ls),
(50,51,o),
(102,-1,o),
(170,0,cs),
(486,0,l),
(486,90,l),
(170,90,ls),
(153,90,o),
(140,103,o),
(140,120,cs),
(140,332,ls),
(140,349,o),
(153,362,o),
(170,362,cs),
(486,362,l)
);
}
);
width = 536;
},
{
anchors = (
{
name = bottom;
pos = (268,0);
},
{
name = center;
pos = (268,225);
},
{
name = top;
pos = (268,450);
}
);
layerId = "D8CC3DFA-F3EA-4C7D-84FB-05FCEA5C6558";
shapes = (
{
closed = 1;
nodes = (
(486,452,l),
(169,452,ls),
(101,452,o),
(50,400,o),
(50,332,cs),
(50,120,ls),
(50,52,o),
(101,0,o),
(169,0,cs),
(486,0,l),
(486,30,l),
(169,30,ls),
(118,30,o),
(80,69,o),
(80,120,cs),
(80,332,ls),
(80,383,o),
(118,422,o),
(169,422,cs),
(486,422,l)
);
}
);
width = 536;
}
);
unicode = 99;
},
{
glyphname = ccurl;
lastChange = "2025-07-27 21:27:40 +0000";
layers = (
{
anchors = (
{
name = bottom;
pos = (268,0);
},
{
name = top;
pos = (268,452);
}
);
layerId = m01;
shapes = (
{
closed = 1;
nodes = (
(407,0,l),
(407,60,l),
(154,60,ls),
(120,60,o),
(95,86,o),
(95,119,cs),
(95,332,ls),
(94,366,o),
(120,392,o),
(154,392,cs),
(471,392,l),
(471,452,l),
(154,452,ls),
(86,452,o),
(34,400,o),
(35,332,cs),
(35,120,ls),
(34,52,o),
(86,0,o),
(154,0,cs)
);
},
{
ref = _part.curl;
}
);
width = 536;
},
{
anchors = (
{
name = bottom;
pos = (268,0);
},
{
name = top;
pos = (268,452);
}
);
layerId = "BDCBA76E-5474-4BD3-A1CC-9641C626CFE7";
shapes = (
{
closed = 1;
nodes = (
(407,0,l),
(407,90,l),
(170,90,ls),
(153,90,o),
(140,103,o),
(140,120,cs),
(140,332,ls),
(140,349,o),
(153,362,o),
(170,362,cs),
(486,362,l),
(486,452,l),
(169,452,ls),
(101,452,o),
(49,400,o),
(50,332,cs),
(50,120,ls),
(49,52,o),
(101,0,o),
(169,0,cs)
);
},
{
pos = (0,15);
ref = _part.curl;
}
);
width = 536;
},
{
anchors = (
{
name = bottom;
pos = (268,0);
},
{
name = top;
pos = (268,452);
}
);
layerId = "D8CC3DFA-F3EA-4C7D-84FB-05FCEA5C6558";
shapes = (
{
closed = 1;
nodes = (
(407,0,l),
(407,30,l),
(169,30,ls),
(118,30,o),
(79,69,o),
(80,120,cs),
(80,332,ls),
(79,383,o),
(118,422,o),
(169,422,cs),
(486,422,l),
(486,452,l),
(169,452,ls),
(101,452,o),
(49,400,o),
(50,332,cs),
(50,120,ls),
(49,52,o),
(101,0,o),
(169,0,cs)
);
},
{
pos = (0,-15);
ref = _part.curl;
}
);
width = 536;
}
);
unicode = 597;
},
{
glyphname = "chi-latin";
lastChange = "2025-07-23 20:20:57 +0000";
layers = (
{
layerId = m01;
shapes = (
{
attr = {
lineCapEnd = 4;
lineCapStart = 4;
strokeWidth = 60;
};
closed = 0;
nodes = (
(556,-157,l),
(491,-181,o),
(447,-170,o),
(422,-136,cs),
(388,-89,o),
(195,293,o),
(160,355,cs),
(126,415,o),
(82,424,o),
(36,419,cs)
);
},
{
closed = 1;
nodes = (
(68,-200,l),
(128,-200,l),
(525,450,l),
(465,450,l)
);
}
);
width = 600;
},
{
layerId = "BDCBA76E-5474-4BD3-A1CC-9641C626CFE7";
shapes = (
{
attr = {
lineCapEnd = 4;
lineCapStart = 4;
strokeWidth = 80;
};
closed = 0;
nodes = (
(556,-147,l),
(491,-171,o),
(447,-160,o),
(422,-128,cs),
(388,-82,o),
(195,287,o),
(160,347,cs),
(126,404,o),
(82,413,o),
(36,408,cs)
);
},
{
closed = 1;
nodes = (
(48,-200,l),
(148,-200,l),
(545,450,l),
(445,450,l)
);
}
);
width = 600;
},
{
layerId = "D8CC3DFA-F3EA-4C7D-84FB-05FCEA5C6558";
shapes = (
{
attr = {
lineCapEnd = 4;
lineCapStart = 4;
strokeWidth = 30;
};
closed = 0;
nodes = (
(556,-157,l),
(491,-181,o),
(447,-170,o),
(422,-136,cs),
(388,-89,o),
(195,293,o),
(160,355,cs),
(126,415,o),
(82,424,o),
(36,419,cs)
);
},
{
closed = 1;
nodes = (
(83,-200,l),
(118,-200,l),
(515,450,l),
(480,450,l)
);
}
);
width = 600;
}
);
unicode = 43859;
},
{
glyphname = chook;
lastChange = "2025-07-27 21:29:45 +0000";
layers = (
{
anchors = (
{
name = bottom;
pos = (268,0);
},
{
name = top;
pos = (268,800);
}
);
layerId = m01;
shapes = (
{
closed = 1;
nodes = (
(454,0,l),
(454,60,l),
(137,60,ls),
(103,60,o),
(78,86,o),
(78,120,cs),
(78,332,ls),
(78,366,o),
(103,392,o),
(137,392,cs),
(454,392,l),
(454,452,l),
(137,452,ls),
(69,452,o),
(18,400,o),
(18,332,cs),
(18,120,ls),
(18,52,o),
(69,0,o),
(137,0,cs)
);
},
{
alignment = -1;
pos = (-16,-14);
ref = _part.hook;
}
);
width = 536;
},
{
anchors = (
{
name = bottom;
pos = (268,0);
},
{
name = top;
pos = (268,800);
}
);
layerId = "BDCBA76E-5474-4BD3-A1CC-9641C626CFE7";
shapes = (
{
closed = 1;
nodes = (
(454,0,l),
(454,90,l),
(138,90,ls),
(121,90,o),
(108,103,o),
(108,120,cs),
(108,332,ls),
(108,349,o),
(121,362,o),
(138,362,cs),
(454,362,l),
(454,452,l),
(137,452,ls),
(69,452,o),
(18,400,o),
(18,332,cs),
(18,119,ls),
(18,51,o),
(70,-1,o),
(138,0,cs)
);
},
{
alignment = -1;
pos = (-16,-14);
ref = _part.hook;
}
);
width = 536;
},
{
anchors = (
{
name = bottom;
pos = (268,0);
},
{
name = top;
pos = (268,800);
}
);
layerId = "D8CC3DFA-F3EA-4C7D-84FB-05FCEA5C6558";
shapes = (
{
closed = 1;
nodes = (
(454,0,l),
(454,30,l),
(137,30,ls),
(86,30,o),
(47,69,o),
(48,120,cs),
(48,332,ls),
(47,383,o),
(86,422,o),
(137,422,cs),
(424,422,l),
(424,452,l),
(137,452,ls),
(69,452,o),
(17,400,o),
(18,332,cs),
(18,120,ls),
(17,52,o),
(69,0,o),
(137,0,cs)
);
},
{
alignment = -1;
pos = (-16,-14);
ref = _part.hook;
}
);
width = 536;
}
);
unicode = 392;
},
{
color = 4;
glyphname = d;
lastChange = "2025-07-26 16:50:52 +0000";
layers = (
{
anchors = (
{
name = bottom;
pos = (268,0);
},
{
name = center;
pos = (268,225);
},
{
name = top;
pos = (268,450);
},
{
name = topright;
pos = (516,800);
}
);
layerId = m01;
shapes = (
{
closed = 1;
nodes = (
(455,452,l),
(169,452,ls),
(101,452,o),
(50,400,o),
(50,332,cs),
(50,120,ls),
(50,52,o),
(101,0,o),
(169,0,cs),
(486,0,l),
(486,620,l),
(426,620,l),
(426,30,l),
(455,60,l),
(169,60,ls),
(135,60,o),
(110,86,o),
(110,120,cs),
(110,332,ls),
(110,366,o),
(135,392,o),
(169,392,cs),
(455,392,l)
);
}
);
width = 536;
},
{
anchors = (
{
name = bottom;
pos = (268,0);
},
{
name = center;
pos = (268,225);
},
{
name = top;
pos = (268,450);
},
{
name = topright;
pos = (516,800);
}
);
layerId = "BDCBA76E-5474-4BD3-A1CC-9641C626CFE7";
shapes = (
{
closed = 1;
nodes = (
(445,452,l),
(169,452,ls),
(101,452,o),
(50,400,o),
(50,332,cs),
(50,119,ls),
(50,51,o),
(102,-1,o),
(170,0,cs),
(486,0,l),
(486,620,l),
(396,620,l),
(396,45,l),
(441,90,l),
(170,90,ls),
(153,90,o),
(140,103,o),
(140,120,cs),
(140,332,ls),
(140,349,o),
(153,362,o),
(170,362,cs),
(445,362,l)
);
}
);
width = 536;
},
{
anchors = (
{
name = bottom;
pos = (268,0);
},
{
name = center;
pos = (268,225);
},
{
name = top;
pos = (268,450);
},
{
name = topright;
pos = (516,800);
}
);
layerId = "D8CC3DFA-F3EA-4C7D-84FB-05FCEA5C6558";
shapes = (
{
closed = 1;
nodes = (
(470,452,l),
(169,452,ls),
(101,452,o),
(50,400,o),
(50,332,cs),
(50,120,ls),
(50,52,o),
(101,0,o),
(169,0,cs),
(486,0,l),
(486,620,l),
(456,620,l),
(456,15,l),
(470,30,l),
(169,30,ls),
(118,30,o),
(80,69,o),
(80,120,cs),
(80,332,ls),
(80,383,o),
(118,422,o),
(169,422,cs),
(470,422,l)
);
}
);
width = 536;
}
);
unicode = 100;
},
{
glyphname = dcaron;
lastChange = "2025-07-27 21:38:10 +0000";
layers = (
{
layerId = m01;
shapes = (
{
closed = 1;
nodes = (
(406,0,l),
(406,620,l),
(346,620,l),
(346,15,l),
(391,60,l),
(159,60,ls),
(125,60,o),
(99,86,o),
(100,120,cs),
(100,332,ls),
(99,366,o),
(125,392,o),
(159,392,cs),
(376,392,l),
(376,452,l),
(159,452,ls),
(91,452,o),
(39,400,o),
(40,332,cs),
(40,120,ls),
(39,52,o),
(91,0,o),
(159,0,cs)
);
},
{
closed = 1;
nodes = (
(526,617,l),
(477,627,l),
(449,472,l),
(498,462,l)
);
},
{
closed = 1;
nodes = (
(508,581,o),
(526,599,o),
(526,621,cs),
(526,643,o),
(508,661,o),
(486,661,cs),
(464,661,o),
(446,643,o),
(446,621,cs),
(446,599,o),
(464,581,o),
(486,581,cs)
);
}
);
width = 536;
},
{
layerId = "BDCBA76E-5474-4BD3-A1CC-9641C626CFE7";
shapes = (
{
closed = 1;
nodes = (
(380,0,l),
(380,620,l),
(290,620,l),
(290,45,l),
(335,90,l),
(140,90,ls),
(123,90,o),
(110,103,o),
(110,120,cs),
(110,332,ls),
(110,349,o),
(123,362,o),
(140,362,cs),
(337,362,l),
(337,452,l),
(139,452,ls),
(71,452,o),
(19,400,o),
(20,332,cs),
(20,120,ls),
(19,52,o),
(71,0,o),
(139,0,cs)
);
},
{
closed = 1;
nodes = (
(519,589,l),
(447,598,l),
(419,443,l),
(491,434,l)
);
},
{
closed = 1;
nodes = (
(496,549,o),
(521,574,o),
(521,605,cs),
(521,633,o),
(496,661,o),
(465,661,cs),
(434,661,o),
(409,636,o),
(409,605,cs),
(409,574,o),
(434,549,o),
(465,549,cs)
);
}
);
width = 536;
},
{
layerId = "D8CC3DFA-F3EA-4C7D-84FB-05FCEA5C6558";
shapes = (
{
closed = 1;
nodes = (
(406,0,l),
(406,620,l),
(376,620,l),
(376,14,l),
(391,30,l),
(169,30,ls),
(118,30,o),
(79,69,o),
(80,120,cs),
(80,332,ls),
(79,383,o),
(118,422,o),
(169,422,cs),
(391,422,l),
(391,452,l),
(169,452,ls),
(101,452,o),
(49,400,o),
(50,332,cs),
(50,120,ls),
(49,52,o),
(101,0,o),
(169,0,cs)
);
},
{
closed = 1;
nodes = (
(517,616,l),
(488,623,l),
(465,498,l),
(494,491,l)
);
},
{
closed = 1;
nodes = (
(504,591,o),
(517,605,o),
(517,621,cs),
(517,638,o),
(504,651,o),
(487,651,cs),
(471,651,o),
(457,638,o),
(457,621,cs),
(457,605,o),
(471,591,o),
(487,591,cs)
);
}
);
width = 536;
}
);
unicode = 271;
},
{
glyphname = dcroat;
lastChange = "2025-07-22 00:53:08 +0000";
layers = (
{
layerId = m01;
shapes = (
{
ref = d;
},
{
closed = 1;
nodes = (
(184,665,l),
(184,615,l),
(526,615,l),
(526,665,l)
);
}
);
width = 536;
},
{
layerId = "BDCBA76E-5474-4BD3-A1CC-9641C626CFE7";
shapes = (
{
ref = d;
},
{
closed = 1;
nodes = (
(184,705,l),
(184,615,l),
(526,615,l),
(526,705,l)
);
}
);
width = 536;
},
{
layerId = "D8CC3DFA-F3EA-4C7D-84FB-05FCEA5C6558";
shapes = (
{
ref = d;
},
{
closed = 1;
nodes = (
(184,645,l),
(184,615,l),
(526,615,l),
(526,645,l)
);
}
);
width = 536;
}
);
unicode = 273;
},
{
color = 6;
glyphname = dezh;
lastChange = "2025-07-29 17:21:32 +0000";
layers = (
{
layerId = m01;
shapes = (
{
closed = 1;
nodes = (
(403,-110,ls),
(471,-110,o),
(523,-58,o),
(522,10,cs),
(522,60,ls),
(523,128,o),
(471,180,o),
(403,180,cs),
(381,180,l),
(516,380,ls),
(540,414,o),
(519,452,o),
(478,452,cs),
(139,452,ls),
(71,452,o),
(19,400,o),
(20,332,cs),
(20,120,ls),
(19,52,o),
(71,0,o),
(139,0,cs),
(278,0,l),
(278,620,l),
(218,620,l),
(218,29,l),
(248,60,l),
(139,60,ls),
(105,60,o),
(79,86,o),
(80,120,cs),
(80,332,ls),
(79,366,o),
(105,392,o),
(139,392,cs),
(451,392,l),
(308,180,l),
(308,120,l),
(403,120,ls),
(437,120,o),
(463,94,o),
(462,60,cs),
(462,10,ls),
(463,-24,o),
(437,-50,o),
(403,-50,cs),
(286,-50,l),
(286,-110,l)
);
}
);
width = 536;
},
{
layerId = "BDCBA76E-5474-4BD3-A1CC-9641C626CFE7";
shapes = (
{
closed = 1;
nodes = (
(403,-110,ls),
(471,-110,o),
(523,-58,o),
(522,10,cs),
(522,65,ls),
(523,119,o),
(493,168,o),
(444,178,cs),
(411,185,l),
(510,358,ls),
(537,402,o),
(510,452,o),
(458,452,cs),
(129,452,ls),
(61,452,o),
(9,400,o),
(10,332,cs),
(10,120,ls),
(9,52,o),
(61,0,o),
(129,0,cs),
(276,0,l),
(276,620,l),
(186,620,l),
(186,45,l),
(231,90,l),
(130,90,ls),
(113,90,o),
(100,103,o),
(100,120,cs),
(100,332,ls),
(100,349,o),
(113,362,o),
(130,362,cs),
(410,362,l),
(308,185,l),
(308,95,l),
(402,95,ls),
(419,95,o),
(432,82,o),
(432,65,cs),
(432,10,ls),
(432,-7,o),
(419,-20,o),
(402,-20,cs),
(286,-20,l),
(286,-110,l)
);
}
);
width = 536;
},
{
layerId = "D8CC3DFA-F3EA-4C7D-84FB-05FCEA5C6558";
shapes = (
{
closed = 1;
nodes = (
(403,-110,ls),
(471,-110,o),
(523,-58,o),
(522,10,cs),
(522,60,ls),
(523,128,o),
(471,180,o),
(403,180,cs),
(345,180,l),
(503,404,ls),
(519,427,o),
(507,452,o),
(478,452,cs),
(139,452,ls),
(71,452,o),
(19,400,o),
(20,332,cs),
(20,120,ls),
(19,52,o),
(71,0,o),
(139,0,cs),
(263,0,l),
(263,620,l),
(233,620,l),
(233,15,l),
(248,30,l),
(139,30,ls),
(88,30,o),
(49,69,o),
(50,120,cs),
(50,332,ls),
(49,383,o),
(88,422,o),
(139,422,cs),
(479,422,l),
(308,180,l),
(308,150,l),
(403,150,ls),
(454,150,o),
(493,111,o),
(492,60,cs),
(492,10,ls),
(493,-41,o),
(454,-80,o),
(403,-80,cs),
(286,-80,l),
(286,-110,l)
);
}
);
width = 536;
}
);
unicode = 676;
},
{
glyphname = dhook;
lastChange = "2025-07-27 23:12:34 +0000";
layers = (
{
anchors = (
{
name = bottom;
pos = (268,0);
},
{
name = top;
pos = (268,800);
}
);
layerId = m01;
shapes = (
{
closed = 1;
nodes = (
(456,0,l),
(456,620,l),
(396,620,l),
(396,30,l),
(425,60,l),
(139,60,ls),
(105,60,o),
(80,86,o),
(80,120,cs),
(80,332,ls),
(80,366,o),
(105,392,o),
(139,392,cs),
(425,392,l),
(425,452,l),
(139,452,ls),
(71,452,o),
(20,400,o),
(20,332,cs),
(20,120,ls),
(20,52,o),
(71,0,o),
(139,0,cs)
);
},
{
alignment = -1;
pos = (-14,154);
ref = _part.hook;
}
);
width = 536;
},
{
anchors = (
{
name = bottom;
pos = (268,0);
},
{
name = top;
pos = (268,800);
}
);
layerId = "BDCBA76E-5474-4BD3-A1CC-9641C626CFE7";
shapes = (
{
closed = 1;
nodes = (
(456,0,l),
(456,620,l),
(366,620,l),
(366,45,l),
(411,90,l),
(140,90,ls),
(123,90,o),
(110,103,o),
(110,120,cs),
(110,332,ls),
(110,349,o),
(123,362,o),
(140,362,cs),
(415,362,l),
(415,452,l),
(139,452,ls),
(71,452,o),
(20,400,o),
(20,332,cs),
(20,119,ls),
(20,51,o),
(72,-1,o),
(140,0,cs)
);
},
{
alignment = -1;
pos = (-14,154);
ref = _part.hook;
}
);
width = 536;
},
{
anchors = (
{
name = bottom;
pos = (268,0);
},
{
name = top;
pos = (268,800);
}
);
layerId = "D8CC3DFA-F3EA-4C7D-84FB-05FCEA5C6558";
shapes = (
{
closed = 1;
nodes = (
(426,0,l),
(426,620,l),
(396,620,l),
(396,13,l),
(411,30,l),
(139,30,ls),
(88,30,o),
(49,69,o),
(50,120,cs),
(50,332,ls),
(49,383,o),
(88,422,o),
(139,422,cs),
(411,422,l),
(411,452,l),
(139,452,ls),
(71,452,o),
(19,400,o),
(20,332,cs),
(20,120,ls),
(19,52,o),
(71,0,o),
(139,0,cs)
);
},
{
alignment = -1;
pos = (-14,154);
ref = _part.hook;
}
);
width = 536;
}
);
unicode = 599;
},
{
glyphname = dmiddletilde;
lastChange = "2025-07-27 23:21:22 +0000";
layers = (
{
layerId = m01;
shapes = (
{
closed = 1;
nodes = (
(406,0,l),
(406,620,l),
(346,620,l),
(346,28,l),
(376,60,l),
(129,60,ls),
(95,60,o),
(69,86,o),
(70,120,cs),
(70,332,ls),
(69,366,o),
(95,392,o),
(129,392,cs),
(376,392,l),
(376,452,l),
(129,452,ls),
(61,452,o),
(9,400,o),
(10,332,cs),
(10,120,ls),
(9,52,o),
(61,0,o),
(129,0,cs)
);
},
{
attr = {
identifier = ID0x330147af0;
};
closed = 1;
nodes = (
(524,479,l),
(524,576,o),
(471,600,o),
(431,600,c),
(358,600,o),
(353,529,o),
(308,529,c),
(282,529,o),
(276,538,o),
(276,590,c),
(216,590,l),
(216,486,o),
(262,469,o),
(308,469,c),
(381,469,o),
(394,540,o),
(431,540,c),
(448,540,o),
(464,530,o),
(464,479,c)
);
}
);
width = 536;
},
{
layerId = "BDCBA76E-5474-4BD3-A1CC-9641C626CFE7";
shapes = (
{
closed = 1;
nodes = (
(412,0,l),
(412,620,l),
(322,620,l),
(322,45,l),
(367,90,l),
(136,90,ls),
(119,90,o),
(106,103,o),
(106,120,cs),
(106,332,ls),
(106,349,o),
(119,362,o),
(136,362,cs),
(367,362,l),
(367,452,l),
(135,452,ls),
(67,452,o),
(15,400,o),
(16,332,cs),
(16,120,ls),
(15,52,o),
(67,0,o),
(135,0,cs)
);
},
{
attr = {
identifier = ID0x330147af0;
};
closed = 1;
nodes = (
(520,489,l),
(520,593,o),
(461,620,o),
(417,620,cs),
(343,620,o),
(334,559,o),
(294,559,cs),
(270,559,o),
(272,569,o),
(272,610,c),
(192,610,l),
(192,497,o),
(246,479,o),
(294,479,cs),
(369,479,o),
(387,540,o),
(417,540,cs),
(430,540,o),
(440,532,o),
(440,489,c)
);
}
);
width = 536;
},
{
layerId = "D8CC3DFA-F3EA-4C7D-84FB-05FCEA5C6558";
shapes = (
{
closed = 1;
nodes = (
(411,0,l),
(411,620,l),
(381,620,l),
(381,14,l),
(396,30,l),
(134,30,ls),
(83,30,o),
(44,69,o),
(45,120,cs),
(45,332,ls),
(44,383,o),
(83,422,o),
(134,422,cs),
(396,422,l),
(396,452,l),
(134,452,ls),
(66,452,o),
(14,400,o),
(15,332,cs),
(15,120,ls),
(14,52,o),
(66,0,o),
(134,0,cs)
);
},
{
attr = {
identifier = ID0x330147af0;
};
closed = 1;
nodes = (
(521,489,l),
(521,574,o),
(478,595,o),
(443,595,c),
(375,595,o),
(376,524,o),
(320,524,c),
(289,524,o),
(273,532,o),
(273,600,c),
(243,600,l),
(243,508,o),
(279,494,o),
(320,494,c),
(393,494,o),
(394,565,o),
(443,565,c),
(466,565,o),
(491,552,o),
(491,489,c)
);
}
);
width = 536;
}
);
unicode = 7533;
},
{
glyphname = dtail;
lastChange = "2025-07-27 23:26:42 +0000";
layers = (
{
anchors = (
{
name = bottom;
pos = (268,0);
},
{
name = top;
pos = (268,452);
}
);
layerId = m01;
shapes = (
{
closed = 1;
nodes = (
(456,0,l),
(456,620,l),
(396,620,l),
(396,30,l),
(425,60,l),
(139,60,ls),
(105,60,o),
(80,86,o),
(80,120,cs),
(80,332,ls),
(80,366,o),
(105,392,o),
(139,392,cs),
(426,392,l),
(426,452,l),
(139,452,ls),
(71,452,o),
(20,400,o),
(20,332,cs),
(20,120,ls),
(20,52,o),
(71,0,o),
(139,0,cs)
);
},
{
alignment = -1;
pos = (-14,466);
ref = _part.hook;
scale = (1,-1);
}
);
width = 536;
},
{
anchors = (
{
name = bottom;
pos = (268,0);
},
{
name = top;
pos = (268,452);
}
);
layerId = "BDCBA76E-5474-4BD3-A1CC-9641C626CFE7";
shapes = (
{
closed = 1;
nodes = (
(456,0,l),
(456,620,l),
(366,620,l),
(366,45,l),
(411,90,l),
(140,90,ls),
(123,90,o),
(110,103,o),
(110,120,cs),
(110,332,ls),
(110,349,o),
(123,362,o),
(140,362,cs),
(411,362,l),
(411,452,l),
(139,452,ls),
(71,452,o),
(20,400,o),
(20,332,cs),
(20,119,ls),
(20,51,o),
(72,-1,o),
(140,0,cs)
);
},
{
alignment = -1;
pos = (-14,466);
ref = _part.hook;
scale = (1,-1);
}
);
width = 536;
},
{
anchors = (
{
name = bottom;
pos = (268,0);
},
{
name = top;
pos = (268,452);
}
);
layerId = "D8CC3DFA-F3EA-4C7D-84FB-05FCEA5C6558";
shapes = (
{
closed = 1;
nodes = (
(426,0,l),
(426,620,l),
(396,620,l),
(396,13,l),
(411,30,l),
(139,30,ls),
(88,30,o),
(49,69,o),
(50,120,cs),
(50,332,ls),
(49,383,o),
(88,422,o),
(139,422,cs),
(411,422,l),
(411,452,l),
(139,452,ls),
(71,452,o),
(19,400,o),
(20,332,cs),
(20,120,ls),
(19,52,o),
(71,0,o),
(139,0,cs)
);
},
{
alignment = -1;
pos = (-14,466);
ref = _part.hook;
scale = (1,-1);
}
);
width = 536;
}
);
unicode = 598;
},
{
glyphname = dzaltone;
lastChange = "2025-07-27 23:33:19 +0000";
layers = (
{
layerId = m01;
shapes = (
{
closed = 1;
nodes = (
(266,0,l),
(266,620,l),
(206,620,l),
(206,30,l),
(235,60,l),
(139,60,ls),
(105,60,o),
(79,86,o),
(80,120,cs),
(80,332,ls),
(79,366,o),
(105,392,o),
(139,392,cs),
(500,392,l),
(474,433,l),
(296,60,l),
(296,0,l),
(520,0,l),
(520,60,l),
(335,60,l),
(343,19,l),
(520,390,l),
(520,452,l),
(139,452,ls),
(71,452,o),
(19,400,o),
(20,332,cs),
(20,120,ls),
(19,52,o),
(71,0,o),
(139,0,cs)
);
}
);
width = 536;
},
{
layerId = "BDCBA76E-5474-4BD3-A1CC-9641C626CFE7";
shapes = (
{
closed = 1;
nodes = (
(266,0,l),
(266,620,l),
(176,620,l),
(176,45,l),
(221,90,l),
(140,90,ls),
(123,90,o),
(110,103,o),
(110,120,cs),
(110,332,ls),
(110,349,o),
(123,362,o),
(140,362,cs),
(457,362,l),
(430,403,l),
(289,88,l),
(289,0,l),
(520,0,l),
(520,90,l),
(339,90,l),
(365,49,l),
(507,362,l),
(507,452,l),
(139,452,ls),
(71,452,o),
(20,400,o),
(20,332,cs),
(20,120,ls),
(20,52,o),
(71,0,o),
(139,0,cs)
);
}
);
width = 536;
},
{
layerId = "D8CC3DFA-F3EA-4C7D-84FB-05FCEA5C6558";
shapes = (
{
closed = 1;
nodes = (
(261,0,l),
(261,620,l),
(231,620,l),
(231,13,l),
(248,30,l),
(139,30,ls),
(88,30,o),
(49,69,o),
(50,120,cs),
(50,330,ls),
(49,381,o),
(88,420,o),
(139,420,cs),
(506,420,l),
(499,442,l),
(291,30,l),
(291,0,l),
(520,0,l),
(520,30,l),
(314,30,l),
(314,10,l),
(521,420,l),
(521,450,l),
(139,450,ls),
(71,450,o),
(19,398,o),
(20,330,cs),
(20,120,ls),
(19,52,o),
(71,0,o),
(139,0,cs)
);
}
);
width = 536;
}
);
unicode = 675;
},
{
glyphname = eth;
lastChange = "2025-07-23 20:34:44 +0000";
layers = (
{
layerId = m01;
shapes = (
{
attr = {
strokeWidth = 60;
};
closed = 0;
nodes = (
(243,703,l),
(369,601,o),
(452,430,o),
(452,258,cs),
(452,132,o),
(375,43,o),
(267,44,cs),
(159,44,o),
(83,131,o),
(84,259,cs),
(85,373,o),
(163,455,o),
(275,455,cs),
(377,455,o),
(450,373,o),
(452,258,cs)
);
},
{
closed = 1;
nodes = (
(216,534,l),
(451,619,l),
(434,666,l),
(199,581,l)
);
}
);
width = 536;
},
{
layerId = "BDCBA76E-5474-4BD3-A1CC-9641C626CFE7";
shapes = (
{
attr = {
strokeWidth = 90;
};
closed = 0;
nodes = (
(243,703,l),
(369,601,o),
(452,430,o),
(452,258,cs),
(452,132,o),
(375,43,o),
(267,44,cs),
(159,44,o),
(83,131,o),
(84,259,cs),
(85,373,o),
(163,455,o),
(275,455,cs),
(377,455,o),
(450,373,o),
(452,258,cs)
);
},
{
closed = 1;
nodes = (
(234,525,l),
(469,610,l),
(438,695,l),
(203,610,l)
);
}
);
width = 536;
},
{
layerId = "D8CC3DFA-F3EA-4C7D-84FB-05FCEA5C6558";
shapes = (
{
attr = {
strokeWidth = 30;
};
closed = 0;
nodes = (
(243,703,l),
(369,601,o),
(452,430,o),
(452,258,cs),
(452,132,o),
(375,43,o),
(267,44,cs),
(159,44,o),
(83,131,o),
(84,259,cs),
(85,373,o),
(163,455,o),
(275,455,cs),
(377,455,o),
(450,373,o),
(452,258,cs)
);
},
{
closed = 1;
nodes = (
(209,553,l),
(444,638,l),
(434,666,l),
(199,581,l)
);
}
);
width = 536;
}
);
unicode = 240;
},
{
color = 4;
glyphname = e;
lastChange = "2025-07-26 16:52:34 +0000";
layers = (
{
anchors = (
{
name = bottom;
pos = (268,0);
},
{
name = ogonek;
pos = (486,0);
},
{
name = top;
pos = (268,450);
}
);
layerId = m01;
shapes = (
{
closed = 1;
nodes = (
(367,211,ls),
(435,211,o),
(487,263,o),
(486,331,cs),
(486,332,ls),
(487,400,o),
(435,452,o),
(367,452,cs),
(169,452,ls),
(101,452,o),
(50,400,o),
(50,332,cs),
(50,120,ls),
(50,52,o),
(101,0,o),
(169,0,cs),
(486,0,l),
(486,60,l),
(169,60,ls),
(135,60,o),
(110,86,o),
(110,120,cs),
(110,332,ls),
(110,366,o),
(135,392,o),
(169,392,cs),
(367,392,ls),
(401,392,o),
(427,366,o),
(426,332,cs),
(426,331,ls),
(427,297,o),
(401,271,o),
(367,271,cs),
(80,271,l),
(80,211,l)
);
}
);
width = 536;
},
{
anchors = (
{
name = bottom;
pos = (268,0);
},
{
name = ogonek;
pos = (486,0);
},
{
name = top;
pos = (268,450);
}
);
layerId = "BDCBA76E-5474-4BD3-A1CC-9641C626CFE7";
shapes = (
{
closed = 1;
nodes = (
(367,195,ls),
(435,195,o),
(486,247,o),
(486,315,cs),
(486,332,ls),
(486,400,o),
(435,452,o),
(367,452,cs),
(169,452,ls),
(101,452,o),
(50,400,o),
(50,332,cs),
(50,119,ls),
(50,51,o),
(102,-1,o),
(170,0,cs),
(486,0,l),
(486,90,l),
(170,90,ls),
(153,90,o),
(140,103,o),
(140,120,cs),
(140,332,ls),
(140,349,o),
(153,362,o),
(170,362,cs),
(366,362,ls),
(383,362,o),
(396,349,o),
(396,332,cs),
(396,315,ls),
(396,298,o),
(383,285,o),
(366,285,cs),
(100,285,l),
(100,195,l)
);
}
);
width = 536;
},
{
anchors = (
{
name = bottom;
pos = (268,0);
},
{
name = ogonek;
pos = (486,0);
},
{
name = top;
pos = (268,450);
}
);
layerId = "D8CC3DFA-F3EA-4C7D-84FB-05FCEA5C6558";
shapes = (
{
closed = 1;
nodes = (
(367,211,ls),
(435,211,o),
(486,263,o),
(486,331,cs),
(486,333,ls),
(486,401,o),
(434,453,o),
(366,452,cs),
(169,452,ls),
(101,452,o),
(50,400,o),
(50,332,cs),
(50,120,ls),
(50,52,o),
(101,0,o),
(169,0,cs),
(486,0,l),
(486,30,l),
(169,30,ls),
(118,30,o),
(80,69,o),
(80,120,cs),
(80,332,ls),
(80,383,o),
(118,422,o),
(169,422,cs),
(366,422,ls),
(417,423,o),
(456,384,o),
(456,333,cs),
(456,331,ls),
(456,280,o),
(418,241,o),
(367,241,cs),
(65,241,l),
(65,211,l)
);
}
);
width = 536;
}
);
unicode = 101;
},
{
glyphname = eopen;
lastChange = "2025-07-27 00:42:51 +0000";
layers = (
{
anchors = (
{
name = bottom;
pos = (268,0);
},
{
name = top;
pos = (268,452);
}
);
layerId = m01;
shapes = (
{
closed = 1;
nodes = (
(481,452,l),
(164,452,ls),
(96,452,o),
(44,400,o),
(45,332,cs),
(45,325,ls),
(44,288,o),
(60,256,o),
(83,235,c),
(60,214,o),
(44,182,o),
(45,145,cs),
(45,120,ls),
(44,52,o),
(96,0,o),
(164,0,cs),
(481,0,l),
(481,60,l),
(164,60,ls),
(130,60,o),
(104,86,o),
(105,120,cs),
(105,145,ls),
(104,179,o),
(130,205,o),
(164,205,cs),
(405,205,l),
(405,265,l),
(164,265,ls),
(130,265,o),
(104,291,o),
(105,325,cs),
(105,332,ls),
(104,366,o),
(130,392,o),
(164,392,cs),
(481,392,l)
);
}
);
width = 536;
},
{
anchors = (
{
name = bottom;
pos = (268,0);
},
{
name = top;
pos = (268,452);
}
);
layerId = "BDCBA76E-5474-4BD3-A1CC-9641C626CFE7";
shapes = (
{
closed = 1;
nodes = (
(481,450,l),
(164,450,ls),
(96,450,o),
(44,398,o),
(45,330,cs),
(45,315,ls),
(45,287,o),
(53,261,o),
(69,240,c),
(54,220,o),
(45,193,o),
(45,165,cs),
(45,120,ls),
(44,52,o),
(96,0,o),
(164,0,cs),
(481,0,l),
(481,90,l),
(165,90,ls),
(148,90,o),
(135,103,o),
(135,120,cs),
(135,165,ls),
(135,182,o),
(148,195,o),
(165,195,cs),
(405,195,l),
(405,285,l),
(165,285,ls),
(148,285,o),
(135,298,o),
(135,315,cs),
(135,330,ls),
(135,347,o),
(148,360,o),
(165,360,cs),
(481,360,l)
);
}
);
width = 536;
},
{
anchors = (
{
name = bottom;
pos = (268,0);
},
{
name = top;
pos = (268,452);
}
);
layerId = "D8CC3DFA-F3EA-4C7D-84FB-05FCEA5C6558";
shapes = (
{
closed = 1;
nodes = (
(481,452,l),
(164,452,ls),
(96,452,o),
(44,400,o),
(45,332,cs),
(45,331,ls),
(44,284,o),
(68,246,o),
(104,226,c),
(68,206,o),
(44,168,o),
(45,121,cs),
(45,120,ls),
(44,52,o),
(96,0,o),
(164,0,cs),
(481,0,l),
(481,30,l),
(164,30,ls),
(113,30,o),
(74,69,o),
(75,120,cs),
(75,121,ls),
(74,172,o),
(113,211,o),
(164,211,cs),
(405,211,l),
(405,241,l),
(164,241,ls),
(113,241,o),
(74,280,o),
(75,331,cs),
(75,332,ls),
(74,383,o),
(113,422,o),
(164,422,cs),
(481,422,l)
);
}
);
width = 536;
}
);
unicode = 603;
},
{
glyphname = eopenreversedclosed;
lastChange = "2025-07-28 01:12:04 +0000";
layers = (
{
anchors = (
{
name = bottom;
pos = (263,0);
},
{
name = top;
pos = (263,452);
}
);
layerId = m01;
shapes = (
{
closed = 1;
nodes = (
(362,0,ls),
(430,0,o),
(482,52,o),
(481,120,cs),
(481,145,ls),
(482,182,o),
(466,214,o),
(443,235,c),
(466,256,o),
(482,288,o),
(481,325,cs),
(481,332,ls),
(482,400,o),
(430,452,o),
(362,452,cs),
(164,452,ls),
(96,452,o),
(44,400,o),
(45,332,cs),
(45,120,ls),
(44,52,o),
(96,0,o),
(164,0,cs)
);
},
{
closed = 1;
nodes = (
(130,60,o),
(104,86,o),
(105,120,cs),
(105,332,ls),
(104,366,o),
(130,392,o),
(164,392,cs),
(362,392,ls),
(396,392,o),
(422,366,o),
(421,332,cs),
(421,325,ls),
(422,291,o),
(396,265,o),
(362,265,cs),
(175,265,l),
(175,205,l),
(362,205,ls),
(396,205,o),
(422,179,o),
(421,145,cs),
(421,120,ls),
(422,86,o),
(396,60,o),
(362,60,cs),
(164,60,ls)
);
}
);
width = 526;
},
{
anchors = (
{
name = bottom;
pos = (263,0);
},
{
name = top;
pos = (263,452);
}
);
layerId = "BDCBA76E-5474-4BD3-A1CC-9641C626CFE7";
shapes = (
{
closed = 1;
nodes = (
(362,0,ls),
(430,0,o),
(482,52,o),
(481,120,cs),
(481,165,ls),
(481,193,o),
(473,219,o),
(457,240,c),
(472,260,o),
(481,287,o),
(481,315,cs),
(481,332,ls),
(482,400,o),
(430,452,o),
(362,452,cs),
(164,452,ls),
(96,452,o),
(44,400,o),
(45,332,cs),
(45,120,ls),
(44,52,o),
(96,0,o),
(164,0,cs)
);
},
{
closed = 1;
nodes = (
(148,90,o),
(135,103,o),
(135,120,cs),
(135,332,ls),
(135,349,o),
(148,362,o),
(165,362,cs),
(361,362,ls),
(378,362,o),
(391,349,o),
(391,332,cs),
(391,315,ls),
(391,298,o),
(378,285,o),
(361,285,cs),
(185,285,l),
(185,195,l),
(361,195,ls),
(378,195,o),
(391,182,o),
(391,165,cs),
(391,120,ls),
(391,103,o),
(378,90,o),
(361,90,cs),
(165,90,ls)
);
}
);
width = 526;
},
{
anchors = (
{
name = bottom;
pos = (263,0);
},
{
name = top;
pos = (263,452);
}
);
layerId = "D8CC3DFA-F3EA-4C7D-84FB-05FCEA5C6558";
shapes = (
{
closed = 1;
nodes = (
(362,0,ls),
(430,0,o),
(482,52,o),
(481,120,cs),
(481,121,ls),
(482,168,o),
(458,206,o),
(422,226,c),
(458,246,o),
(482,284,o),
(481,331,cs),
(481,332,ls),
(482,400,o),
(430,452,o),
(362,452,cs),
(164,452,ls),
(96,452,o),
(45,400,o),
(45,332,cs),
(45,120,ls),
(44,52,o),
(96,0,o),
(164,0,cs)
);
},
{
closed = 1;
nodes = (
(113,30,o),
(74,69,o),
(75,120,cs),
(75,332,ls),
(74,383,o),
(113,422,o),
(164,422,cs),
(362,422,ls),
(413,422,o),
(452,383,o),
(451,332,cs),
(451,331,ls),
(452,280,o),
(413,241,o),
(362,241,cs),
(155,241,l),
(155,211,l),
(362,211,ls),
(413,211,o),
(452,172,o),
(451,121,cs),
(451,120,ls),
(452,69,o),
(413,30,o),
(362,30,cs),
(164,30,ls)
);
}
);
width = 526;
}
);
unicode = 606;
},
{
glyphname = eopenreversedhook;
lastChange = "2025-07-28 01:17:32 +0000";
layers = (
{
anchors = (
{
name = bottom;
pos = (268,0);
},
{
name = top;
pos = (268,452);
}
);
layerId = m01;
shapes = (
{
closed = 1;
nodes = (
(237,0,ls),
(305,0,o),
(357,52,o),
(356,120,cs),
(356,145,ls),
(356,166,o),
(351,187,o),
(341,205,c),
(461,205,l),
(461,265,l),
(341,265,l),
(351,282,o),
(356,304,o),
(356,325,cs),
(356,332,ls),
(357,400,o),
(305,452,o),
(237,452,cs),
(20,452,l),
(20,392,l),
(237,392,ls),
(271,392,o),
(297,366,o),
(296,332,cs),
(296,325,ls),
(297,291,o),
(271,265,o),
(237,265,cs),
(96,265,l),
(96,205,l),
(237,205,ls),
(271,205,o),
(297,179,o),
(296,145,cs),
(296,120,ls),
(297,86,o),
(271,60,o),
(237,60,cs),
(20,60,l),
(20,0,l)
);
},
{
alignment = -1;
pos = (-9,671);
ref = _part.hook;
scale = (1,-1);
}
);
width = 536;
},
{
anchors = (
{
name = bottom;
pos = (268,0);
},
{
name = top;
pos = (268,452);
}
);
layerId = "BDCBA76E-5474-4BD3-A1CC-9641C626CFE7";
shapes = (
{
closed = 1;
nodes = (
(237,0,ls),
(305,0,o),
(357,52,o),
(356,120,cs),
(356,165,ls),
(356,175,o),
(355,186,o),
(353,195,c),
(461,195,l),
(461,285,l),
(353,285,l),
(355,294,o),
(356,305,o),
(356,315,cs),
(356,332,ls),
(357,400,o),
(305,452,o),
(237,452,cs),
(20,452,l),
(20,362,l),
(236,362,ls),
(253,362,o),
(266,349,o),
(266,332,cs),
(266,315,ls),
(266,298,o),
(253,285,o),
(236,285,cs),
(96,285,l),
(96,195,l),
(236,195,ls),
(253,195,o),
(266,182,o),
(266,165,cs),
(266,120,ls),
(266,103,o),
(253,90,o),
(236,90,cs),
(20,90,l),
(20,0,l)
);
},
{
alignment = -1;
pos = (-9,661);
ref = _part.hook;
scale = (1,-1);
}
);
width = 536;
},
{
anchors = (
{
name = bottom;
pos = (268,0);
},
{
name = top;
pos = (268,452);
}
);
layerId = "D8CC3DFA-F3EA-4C7D-84FB-05FCEA5C6558";
shapes = (
{
closed = 1;
nodes = (
(237,0,ls),
(305,0,o),
(357,52,o),
(356,120,cs),
(356,121,ls),
(357,158,o),
(341,190,o),
(318,211,c),
(431,211,l),
(431,241,l),
(318,241,l),
(341,262,o),
(357,294,o),
(356,331,cs),
(356,332,ls),
(357,400,o),
(305,452,o),
(237,452,cs),
(20,452,l),
(20,422,l),
(237,422,ls),
(288,422,o),
(327,383,o),
(326,332,cs),
(326,331,ls),
(327,280,o),
(288,241,o),
(237,241,cs),
(96,241,l),
(96,211,l),
(237,211,ls),
(288,211,o),
(327,172,o),
(326,121,cs),
(326,120,ls),
(327,69,o),
(288,30,o),
(237,30,cs),
(20,30,l),
(20,0,l)
);
},
{
alignment = -1;
pos = (-9,677);
ref = _part.hook;
scale = (1,-1);
}
);
width = 536;
}
);
unicode = 605;
},
{
glyphname = esh;
lastChange = "2025-07-23 20:44:41 +0000";
layers = (
{
layerId = m01;
shapes = (
{
alignment = -1;
angle = 180;
pos = (705,466);
ref = _part.hook;
},
{
closed = 1;
nodes = (
(235,0,l),
(295,0,l),
(295,466,l),
(235,466,l)
);
},
{
alignment = -1;
pos = (-175,0);
ref = _part.hook;
}
);
width = 536;
},
{
layerId = "BDCBA76E-5474-4BD3-A1CC-9641C626CFE7";
shapes = (
{
alignment = -1;
angle = 180;
pos = (693,466);
ref = _part.hook;
},
{
closed = 1;
nodes = (
(223,0,l),
(313,0,l),
(313,466,l),
(223,466,l)
);
},
{
alignment = -1;
pos = (-157,0);
ref = _part.hook;
}
);
width = 536;
},
{
layerId = "D8CC3DFA-F3EA-4C7D-84FB-05FCEA5C6558";
shapes = (
{
alignment = -1;
angle = 180;
pos = (690,466);
ref = _part.hook;
},
{
closed = 1;
nodes = (
(250,0,l),
(280,0,l),
(280,466,l),
(250,466,l)
);
},
{
alignment = -1;
pos = (-160,0);
ref = _part.hook;
}
);
width = 536;
}
);
unicode = 643;
},
{
glyphname = schwahook;
lastChange = "2025-07-28 01:23:42 +0000";
layers = (
{
anchors = (
{
name = bottom;
pos = (268,0);
},
{
name = top;
pos = (268,452);
}
);
layerId = m01;
shapes = (
{
alignment = -1;
pos = (-4,647);
ref = _part.hook;
scale = (1,-1);
},
{
closed = 1;
nodes = (
(386,332,ls),
(387,400,o),
(335,452,o),
(267,452,cs),
(10,452,l),
(10,392,l),
(267,392,ls),
(301,392,o),
(326,366,o),
(326,332,cs),
(326,120,ls),
(326,86,o),
(301,60,o),
(267,60,cs),
(129,60,ls),
(95,60,o),
(69,86,o),
(70,120,cs),
(70,121,ls),
(69,155,o),
(95,181,o),
(129,181,cs),
(466,181,l),
(466,241,l),
(129,241,ls),
(61,241,o),
(9,189,o),
(10,121,cs),
(10,120,ls),
(9,52,o),
(61,0,o),
(129,0,cs),
(267,0,ls),
(335,0,o),
(386,52,o),
(386,120,cs)
);
}
);
width = 536;
},
{
anchors = (
{
name = bottom;
pos = (268,0);
},
{
name = top;
pos = (268,452);
}
);
layerId = "BDCBA76E-5474-4BD3-A1CC-9641C626CFE7";
shapes = (
{
alignment = -1;
pos = (-4,631);
ref = _part.hook;
scale = (1,-1);
},
{
closed = 1;
nodes = (
(346,333,ls),
(346,401,o),
(294,453,o),
(226,452,cs),
(10,452,l),
(10,362,l),
(226,362,ls),
(243,362,o),
(256,349,o),
(256,332,cs),
(256,120,ls),
(256,103,o),
(243,90,o),
(226,90,cs),
(130,90,ls),
(113,90,o),
(100,103,o),
(100,120,cs),
(100,135,ls),
(100,152,o),
(113,165,o),
(130,165,cs),
(466,165,l),
(466,255,l),
(129,255,ls),
(61,255,o),
(9,203,o),
(10,135,cs),
(10,120,ls),
(9,52,o),
(61,0,o),
(129,0,cs),
(227,0,ls),
(295,0,o),
(346,52,o),
(346,120,cs)
);
}
);
width = 536;
},
{
anchors = (
{
name = bottom;
pos = (268,0);
},
{
name = top;
pos = (268,452);
}
);
layerId = "D8CC3DFA-F3EA-4C7D-84FB-05FCEA5C6558";
shapes = (
{
alignment = -1;
pos = (-4,678);
ref = _part.hook;
scale = (1,-1);
},
{
closed = 1;
nodes = (
(356,332,ls),
(357,400,o),
(305,452,o),
(237,452,cs),
(10,452,l),
(10,422,l),
(237,422,ls),
(288,422,o),
(326,383,o),
(326,332,cs),
(326,120,ls),
(326,69,o),
(288,30,o),
(237,30,cs),
(129,30,ls),
(78,30,o),
(39,69,o),
(40,120,cs),
(40,122,ls),
(39,173,o),
(78,212,o),
(129,212,cs),
(436,212,l),
(436,242,l),
(129,242,ls),
(61,242,o),
(9,190,o),
(10,122,cs),
(10,120,ls),
(9,52,o),
(61,0,o),
(129,0,cs),
(237,0,ls),
(305,0,o),
(356,52,o),
(356,120,cs)
);
}
);
width = 536;
}
);
unicode = 602;
},
{
glyphname = ezh;
lastChange = "2025-07-28 01:26:30 +0000";
layers = (
{
anchors = (
{
name = bottom;
pos = (268,0);
},
{
name = top;
pos = (268,452);
}
);
layerId = m01;
shapes = (
{
closed = 1;
nodes = (
(401,200,o),
(427,174,o),
(426,140,cs),
(426,120,ls),
(427,86,o),
(401,60,o),
(367,60,cs),
(50,60,l),
(50,0,l),
(367,0,ls),
(435,0,o),
(487,52,o),
(486,120,cs),
(486,140,ls),
(487,208,o),
(435,260,o),
(367,260,cs),
(304,260,l),
(475,391,ls),
(503,414,o),
(488,452,o),
(453,452,cs),
(41,452,l),
(41,392,l),
(376,392,l),
(206,260,l),
(206,200,l),
(367,200,ls)
);
}
);
width = 536;
},
{
anchors = (
{
name = bottom;
pos = (268,0);
},
{
name = top;
pos = (268,452);
}
);
layerId = "BDCBA76E-5474-4BD3-A1CC-9641C626CFE7";
shapes = (
{
closed = 1;
nodes = (
(383,205,o),
(396,192,o),
(396,175,cs),
(396,120,ls),
(396,103,o),
(383,90,o),
(366,90,cs),
(50,90,l),
(50,0,l),
(367,0,ls),
(435,0,o),
(487,52,o),
(486,120,cs),
(486,175,ls),
(487,243,o),
(435,295,o),
(367,295,cs),
(345,295,l),
(453,370,ls),
(496,397,o),
(479,452,o),
(430,452,cs),
(41,452,l),
(41,372,l),
(316,372,l),
(206,295,l),
(206,205,l),
(366,205,ls)
);
}
);
width = 536;
},
{
anchors = (
{
name = bottom;
pos = (268,0);
},
{
name = top;
pos = (268,452);
}
);
layerId = "D8CC3DFA-F3EA-4C7D-84FB-05FCEA5C6558";
shapes = (
{
closed = 1;
nodes = (
(417,231,o),
(456,192,o),
(456,141,cs),
(456,119,ls),
(456,68,o),
(417,29,o),
(366,30,cs),
(50,30,l),
(50,0,l),
(366,0,ls),
(434,-1,o),
(486,51,o),
(486,119,cs),
(486,141,ls),
(486,209,o),
(434,261,o),
(366,260,cs),
(256,260,l),
(450,407,ls),
(475,425,o),
(467,452,o),
(435,452,cs),
(41,452,l),
(41,422,l),
(420,422,l),
(206,260,l),
(206,230,l),
(366,230,ls)
);
}
);
width = 536;
}
);
unicode = 658;
},
{
color = 4;
glyphname = f;
lastChange = "2025-07-26 16:52:54 +0000";
layers = (
{
anchors = (
{
name = bottom;
pos = (268,0);
},
{
name = top;
pos = (268,800);
}
);
layerId = m01;
shapes = (
{
closed = 1;
nodes = (
(486,452,l),
(30,452,l),
(30,392,l),
(486,392,l)
);
},
{
closed = 1;
nodes = (
(486,620,l),
(335,620,ls),
(267,620,o),
(215,568,o),
(216,500,cs),
(216,0,l),
(276,0,l),
(276,500,ls),
(275,534,o),
(301,560,o),
(335,560,cs),
(486,560,l)
);
}
);
width = 536;
},
{
anchors = (
{
name = bottom;
pos = (268,0);
},
{
name = top;
pos = (268,800);
}
);
layerId = "BDCBA76E-5474-4BD3-A1CC-9641C626CFE7";
shapes = (
{
closed = 1;
nodes = (
(486,452,l),
(30,452,l),
(30,362,l),
(486,362,l)
);
},
{
closed = 1;
nodes = (
(486,620,l),
(320,620,ls),
(252,620,o),
(200,568,o),
(201,500,cs),
(201,0,l),
(291,0,l),
(291,500,ls),
(291,517,o),
(304,530,o),
(321,530,cs),
(486,530,l)
);
}
);
width = 536;
},
{
anchors = (
{
name = bottom;
pos = (268,0);
},
{
name = top;
pos = (268,800);
}
);
layerId = "D8CC3DFA-F3EA-4C7D-84FB-05FCEA5C6558";
shapes = (
{
closed = 1;
nodes = (
(486,452,l),
(30,452,l),
(30,422,l),
(486,422,l)
);
},
{
closed = 1;
nodes = (
(486,620,l),
(350,620,ls),
(282,620,o),
(230,568,o),
(231,500,cs),
(231,0,l),
(261,0,l),
(261,500,ls),
(260,551,o),
(299,590,o),
(350,590,cs),
(486,590,l)
);
}
);
width = 536;
}
);
unicode = 102;
},
{
glyphname = fengdigraph;
lastChange = "2025-07-28 01:41:31 +0000";
layers = (
{
layerId = m01;
shapes = (
{
closed = 1;
nodes = (
(518,0,l),
(518,332,ls),
(519,400,o),
(467,452,o),
(399,452,cs),
(20,452,l),
(20,392,l),
(399,392,ls),
(433,392,o),
(459,366,o),
(458,332,cs),
(458,0,l)
);
},
{
alignment = -1;
angle = 180;
pos = (928,466);
ref = _part.hook;
},
{
closed = 1;
nodes = (
(316,0,l),
(316,422,l),
(256,422,l),
(256,0,l)
);
},
{
closed = 1;
nodes = (
(156,0,l),
(156,499,ls),
(155,533,o),
(181,559,o),
(215,559,cs),
(286,559,l),
(286,619,l),
(215,619,ls),
(147,619,o),
(95,567,o),
(96,499,cs),
(96,0,l)
);
}
);
width = 536;
},
{
layerId = "BDCBA76E-5474-4BD3-A1CC-9641C626CFE7";
shapes = (
{
closed = 1;
nodes = (
(518,0,l),
(518,332,ls),
(519,400,o),
(467,452,o),
(399,452,cs),
(20,452,l),
(20,362,l),
(398,362,ls),
(415,362,o),
(428,349,o),
(428,332,cs),
(428,0,l)
);
},
{
alignment = -1;
angle = 180;
pos = (898,466);
ref = _part.hook;
},
{
closed = 1;
nodes = (
(331,0,l),
(331,409,l),
(241,409,l),
(241,0,l)
);
},
{
closed = 1;
nodes = (
(171,0,l),
(171,500,ls),
(171,517,o),
(184,530,o),
(201,530,cs),
(286,530,l),
(286,620,l),
(200,620,ls),
(132,620,o),
(80,568,o),
(81,500,cs),
(81,0,l)
);
}
);
width = 536;
},
{
layerId = "D8CC3DFA-F3EA-4C7D-84FB-05FCEA5C6558";
shapes = (
{
closed = 1;
nodes = (
(518,0,l),
(518,332,ls),
(519,400,o),
(467,452,o),
(399,452,cs),
(20,452,l),
(20,422,l),
(399,422,ls),
(450,422,o),
(489,383,o),
(488,332,cs),
(488,0,l)
);
},
{
alignment = -1;
angle = 180;
pos = (928,466);
ref = _part.hook;
},
{
closed = 1;
nodes = (
(301,0,l),
(301,438,l),
(271,438,l),
(271,0,l)
);
},
{
closed = 1;
nodes = (
(141,0,l),
(141,499,ls),
(140,550,o),
(179,589,o),
(230,589,cs),
(286,589,l),
(286,619,l),
(230,619,ls),
(162,619,o),
(110,567,o),
(111,499,cs),
(111,0,l)
);
}
);
width = 536;
}
);
unicode = 681;
},
{
color = 4;
glyphname = g;
lastChange = "2025-07-26 16:53:17 +0000";
layers = (
{
anchors = (
{
name = bottom;
pos = (268,-200);
},
{
name = center;
pos = (268,225);
},
{
name = top;
pos = (268,450);
}
);
layerId = m01;
shapes = (
{
closed = 1;
nodes = (
(169,60,ls),
(135,60,o),
(110,86,o),
(110,120,cs),
(110,332,ls),
(110,366,o),
(135,392,o),
(169,392,cs),
(455,392,l),
(426,422,l),
(426,-80,ls),
(426,-114,o),
(401,-140,o),
(367,-140,cs),
(50,-140,l),
(50,-200,l),
(367,-200,ls),
(435,-200,o),
(486,-148,o),
(486,-80,cs),
(486,452,l),
(169,452,ls),
(101,452,o),
(50,400,o),
(50,332,cs),
(50,120,ls),
(50,52,o),
(101,0,o),
(169,0,cs),
(455,0,l),
(455,60,l)
);
}
);
width = 536;
},
{
anchors = (
{
name = bottom;
pos = (268,-200);
},
{
name = center;
pos = (268,225);
},
{
name = top;
pos = (268,450);
}
);
layerId = "BDCBA76E-5474-4BD3-A1CC-9641C626CFE7";
shapes = (
{
closed = 1;
nodes = (
(170,90,ls),
(153,90,o),
(140,103,o),
(140,120,cs),
(140,332,ls),
(140,349,o),
(153,362,o),
(170,362,cs),
(441,362,l),
(396,407,l),
(396,-80,ls),
(396,-97,o),
(383,-110,o),
(366,-110,cs),
(50,-110,l),
(50,-200,l),
(367,-200,ls),
(435,-200,o),
(486,-148,o),
(486,-80,cs),
(486,452,l),
(169,452,ls),
(101,452,o),
(50,400,o),
(50,332,cs),
(50,119,ls),
(50,51,o),
(102,0,o),
(170,0,cs),
(441,0,l),
(441,90,l)
);
}
);
width = 536;
},
{
anchors = (
{
name = bottom;
pos = (268,-200);
},
{
name = center;
pos = (268,225);
},
{
name = top;
pos = (268,450);
}
);
layerId = "D8CC3DFA-F3EA-4C7D-84FB-05FCEA5C6558";
shapes = (
{
closed = 1;
nodes = (
(169,30,ls),
(118,30,o),
(80,69,o),
(80,120,cs),
(80,332,ls),
(80,383,o),
(118,422,o),
(169,422,cs),
(470,422,l),
(456,437,l),
(456,-81,ls),
(456,-132,o),
(417,-171,o),
(366,-170,cs),
(50,-170,l),
(50,-200,l),
(366,-200,ls),
(434,-201,o),
(486,-149,o),
(486,-81,cs),
(486,452,l),
(169,452,ls),
(101,452,o),
(50,400,o),
(50,332,cs),
(50,120,ls),
(50,52,o),
(101,0,o),
(169,0,cs),
(470,0,l),
(470,30,l)
);
}
);
width = 536;
}
);
unicode = 103;
},
{
glyphname = "gamma-latin";
lastChange = "2025-07-23 20:52:16 +0000";
layers = (
{
layerId = m01;
shapes = (
{
attr = {
lineCapEnd = "4";
lineCapStart = "4";
strokeWidth = 60;
};
closed = 0;
nodes = (
(124,450,l),
(261,262,ls),
(305,202,o),
(359,130,o),
(360,96,cs),
(361,59,o),
(335,30,o),
(300,30,cs),
(265,30,o),
(239,59,o),
(240,96,cs),
(241,130,o),
(295,202,o),
(339,262,cs),
(476,450,l)
);
}
);
width = 600;
},
{
layerId = "BDCBA76E-5474-4BD3-A1CC-9641C626CFE7";
shapes = (
{
attr = {
lineCapEnd = "4";
lineCapStart = "4";
strokeWidth = 80;
};
closed = 0;
nodes = (
(124,450,l),
(261,266,ls),
(305,208,o),
(359,137,o),
(360,104,cs),
(361,68,o),
(335,40,o),
(300,40,cs),
(265,40,o),
(239,68,o),
(240,104,cs),
(241,137,o),
(295,208,o),
(339,266,cs),
(476,450,l)
);
}
);
width = 600;
},
{
layerId = "D8CC3DFA-F3EA-4C7D-84FB-05FCEA5C6558";
shapes = (
{
attr = {
lineCapEnd = "4";
lineCapStart = "4";
strokeWidth = 30;
};
closed = 0;
nodes = (
(124,450,l),
(261,262,ls),
(305,202,o),
(359,130,o),
(360,96,cs),
(361,59,o),
(335,30,o),
(300,30,cs),
(265,30,o),
(239,59,o),
(240,96,cs),
(241,130,o),
(295,202,o),
(339,262,cs),
(476,450,l)
);
}
);
width = 600;
}
);
unicode = 611;
},
{
glyphname = ghook;
lastChange = "2025-07-28 00:36:11 +0000";
layers = (
{
anchors = (
{
name = bottom;
pos = (268,0);
},
{
name = top;
pos = (268,800);
}
);
layerId = m01;
shapes = (
{
closed = 1;
nodes = (
(337,-200,ls),
(405,-200,o),
(456,-148,o),
(456,-80,cs),
(456,452,l),
(139,452,ls),
(71,452,o),
(20,400,o),
(20,332,cs),
(20,120,ls),
(20,52,o),
(71,0,o),
(139,0,cs),
(425,0,l),
(425,60,l),
(139,60,ls),
(105,60,o),
(80,86,o),
(80,120,cs),
(80,332,ls),
(80,366,o),
(105,392,o),
(139,392,cs),
(425,392,l),
(396,422,l),
(396,-80,ls),
(396,-114,o),
(371,-140,o),
(337,-140,cs),
(20,-140,l),
(20,-200,l)
);
},
{
alignment = -1;
pos = (-14,-14);
ref = _part.hook;
}
);
width = 536;
},
{
anchors = (
{
name = bottom;
pos = (268,0);
},
{
name = top;
pos = (268,800);
}
);
layerId = "BDCBA76E-5474-4BD3-A1CC-9641C626CFE7";
shapes = (
{
closed = 1;
nodes = (
(337,-200,ls),
(405,-200,o),
(456,-148,o),
(456,-80,cs),
(456,452,l),
(139,452,ls),
(71,452,o),
(20,400,o),
(20,332,cs),
(20,119,ls),
(20,51,o),
(72,0,o),
(140,0,cs),
(411,0,l),
(411,90,l),
(140,90,ls),
(123,90,o),
(110,103,o),
(110,120,cs),
(110,332,ls),
(110,349,o),
(123,362,o),
(140,362,cs),
(411,362,l),
(366,407,l),
(366,-80,ls),
(366,-97,o),
(353,-110,o),
(336,-110,cs),
(20,-110,l),
(20,-200,l)
);
},
{
alignment = -1;
pos = (-14,-14);
ref = _part.hook;
}
);
width = 536;
},
{
anchors = (
{
name = bottom;
pos = (268,0);
},
{
name = top;
pos = (268,800);
}
);
layerId = "D8CC3DFA-F3EA-4C7D-84FB-05FCEA5C6558";
shapes = (
{
closed = 1;
nodes = (
(306,-200,ls),
(374,-201,o),
(426,-149,o),
(426,-81,cs),
(426,452,l),
(139,452,ls),
(71,452,o),
(19,400,o),
(20,332,cs),
(20,120,ls),
(19,52,o),
(71,0,o),
(139,0,cs),
(411,0,l),
(411,30,l),
(139,30,ls),
(88,30,o),
(49,69,o),
(50,120,cs),
(50,332,ls),
(49,383,o),
(88,422,o),
(139,422,cs),
(412,422,l),
(396,439,l),
(396,-81,ls),
(396,-132,o),
(357,-171,o),
(306,-170,cs),
(20,-170,l),
(20,-200,l)
);
},
{
alignment = -1;
pos = (-14,-14);
ref = _part.hook;
}
);
width = 536;
}
);
unicode = 608;
},
{
glyphname = glottalstop;
lastChange = "2025-07-28 00:14:58 +0000";
layers = (
{
layerId = m01;
shapes = (
{
closed = 1;
nodes = (
(368,560,o),
(394,534,o),
(393,500,cs),
(393,403,ls),
(394,369,o),
(368,343,o),
(334,343,cs),
(327,343,ls),
(259,343,o),
(207,291,o),
(208,223,cs),
(208,0,l),
(268,0,l),
(268,223,ls),
(267,257,o),
(293,283,o),
(327,283,cs),
(334,283,ls),
(402,283,o),
(454,335,o),
(453,403,cs),
(453,500,ls),
(454,568,o),
(402,620,o),
(334,620,cs),
(84,620,l),
(84,560,l),
(334,560,ls)
);
}
);
width = 536;
},
{
layerId = "BDCBA76E-5474-4BD3-A1CC-9641C626CFE7";
shapes = (
{
closed = 1;
nodes = (
(350,530,o),
(363,517,o),
(363,500,cs),
(363,403,ls),
(363,386,o),
(350,373,o),
(333,373,cs),
(314,373,ls),
(246,373,o),
(194,321,o),
(195,253,cs),
(195,0,l),
(285,0,l),
(285,253,ls),
(285,270,o),
(298,283,o),
(315,283,cs),
(334,283,ls),
(402,283,o),
(454,335,o),
(453,403,cs),
(453,500,ls),
(454,568,o),
(402,620,o),
(334,620,cs),
(84,620,l),
(84,530,l),
(333,530,ls)
);
}
);
width = 536;
},
{
layerId = "D8CC3DFA-F3EA-4C7D-84FB-05FCEA5C6558";
shapes = (
{
closed = 1;
nodes = (
(385,590,o),
(424,551,o),
(423,500,cs),
(423,403,ls),
(424,352,o),
(385,313,o),
(334,313,cs),
(332,313,ls),
(264,313,o),
(212,261,o),
(213,193,cs),
(213,0,l),
(243,0,l),
(243,193,ls),
(242,244,o),
(281,283,o),
(332,283,cs),
(334,283,ls),
(402,283,o),
(454,335,o),
(453,403,cs),
(453,500,ls),
(454,568,o),
(402,620,o),
(334,620,cs),
(84,620,l),
(84,590,l),
(334,590,ls)
);
}
);
width = 536;
}
);
unicode = 660;
},
{
glyphname = glottalstopreversed;
lastChange = "2025-07-28 00:12:15 +0000";
layers = (
{
layerId = m01;
shapes = (
{
closed = 1;
nodes = (
(327,0,l),
(327,223,ls),
(328,291,o),
(276,343,o),
(208,343,cs),
(203,343,ls),
(169,343,o),
(143,369,o),
(144,403,cs),
(144,500,ls),
(143,534,o),
(169,560,o),
(203,560,cs),
(453,560,l),
(453,620,l),
(203,620,ls),
(135,620,o),
(83,568,o),
(84,500,cs),
(84,403,ls),
(83,335,o),
(135,283,o),
(203,283,cs),
(208,283,ls),
(242,283,o),
(268,257,o),
(267,223,cs),
(267,0,l)
);
}
);
width = 536;
},
{
layerId = "BDCBA76E-5474-4BD3-A1CC-9641C626CFE7";
shapes = (
{
closed = 1;
nodes = (
(342,0,l),
(342,253,ls),
(343,321,o),
(291,373,o),
(223,373,cs),
(204,373,ls),
(187,373,o),
(174,386,o),
(174,403,cs),
(174,500,ls),
(174,517,o),
(187,530,o),
(204,530,cs),
(453,530,l),
(453,620,l),
(203,620,ls),
(135,620,o),
(83,568,o),
(84,500,cs),
(84,403,ls),
(83,335,o),
(135,283,o),
(203,283,cs),
(222,283,ls),
(239,283,o),
(252,270,o),
(252,253,cs),
(252,0,l)
);
}
);
width = 536;
},
{
layerId = "D8CC3DFA-F3EA-4C7D-84FB-05FCEA5C6558";
shapes = (
{
closed = 1;
nodes = (
(324,0,l),
(324,193,ls),
(325,261,o),
(273,313,o),
(205,313,cs),
(203,313,ls),
(152,313,o),
(113,352,o),
(114,403,cs),
(114,500,ls),
(113,551,o),
(152,590,o),
(203,590,cs),
(453,590,l),
(453,620,l),
(203,620,ls),
(135,620,o),
(83,568,o),
(84,500,cs),
(84,403,ls),
(83,335,o),
(135,283,o),
(203,283,cs),
(205,283,ls),
(256,283,o),
(295,244,o),
(294,193,cs),
(294,0,l)
);
}
);
width = 536;
}
);
unicode = 661;
},
{
glyphname = glottalstopsmall;
lastChange = "2025-07-28 00:24:01 +0000";
layers = (
{
layerId = m01;
shapes = (
{
closed = 1;
nodes = (
(270,0,l),
(270,53,ls),
(269,87,o),
(295,113,o),
(329,113,cs),
(334,113,ls),
(402,113,o),
(454,165,o),
(453,233,cs),
(453,332,ls),
(454,400,o),
(402,452,o),
(334,452,cs),
(84,452,l),
(84,392,l),
(334,392,ls),
(368,392,o),
(394,366,o),
(393,332,cs),
(393,233,ls),
(394,199,o),
(368,173,o),
(334,173,cs),
(329,173,ls),
(261,173,o),
(209,121,o),
(210,53,cs),
(210,0,l)
);
}
);
width = 600;
},
{
layerId = "BDCBA76E-5474-4BD3-A1CC-9641C626CFE7";
shapes = (
{
closed = 1;
nodes = (
(285,0,l),
(285,83,ls),
(285,100,o),
(298,113,o),
(315,113,cs),
(334,113,ls),
(402,113,o),
(454,165,o),
(453,233,cs),
(453,332,ls),
(454,400,o),
(402,452,o),
(334,452,cs),
(84,452,l),
(84,362,l),
(333,362,ls),
(350,362,o),
(363,349,o),
(363,332,cs),
(363,233,ls),
(363,216,o),
(350,203,o),
(333,203,cs),
(314,203,ls),
(246,203,o),
(194,151,o),
(195,83,cs),
(195,0,l)
);
}
);
width = 600;
},
{
layerId = "D8CC3DFA-F3EA-4C7D-84FB-05FCEA5C6558";
shapes = (
{
closed = 1;
nodes = (
(243,0,l),
(243,23,ls),
(242,74,o),
(281,113,o),
(332,113,cs),
(334,113,ls),
(402,113,o),
(454,165,o),
(453,233,cs),
(453,332,ls),
(454,400,o),
(402,452,o),
(334,452,cs),
(84,452,l),
(84,422,l),
(334,422,ls),
(385,422,o),
(424,383,o),
(423,332,cs),
(423,233,ls),
(424,182,o),
(385,143,o),
(334,143,cs),
(332,143,ls),
(264,143,o),
(212,91,o),
(213,23,cs),
(213,0,l)
);
}
);
width = 600;
}
);
unicode = 578;
},
{
glyphname = glottalstopstroke;
lastChange = "2025-07-23 20:56:34 +0000";
layers = (
{
layerId = m01;
shapes = (
{
ref = glottalstop;
},
{
closed = 1;
nodes = (
(115,127,l),
(365,127,l),
(365,177,l),
(115,177,l)
);
}
);
width = 536;
},
{
layerId = "BDCBA76E-5474-4BD3-A1CC-9641C626CFE7";
shapes = (
{
ref = glottalstop;
},
{
closed = 1;
nodes = (
(115,107,l),
(365,107,l),
(365,197,l),
(115,197,l)
);
}
);
width = 536;
},
{
layerId = "D8CC3DFA-F3EA-4C7D-84FB-05FCEA5C6558";
shapes = (
{
ref = glottalstop;
},
{
closed = 1;
nodes = (
(115,137,l),
(365,137,l),
(365,162,l),
(115,162,l)
);
}
);
width = 536;
}
);
unicode = 673;
},
{
glyphname = glottalstopstrokereversed;
lastChange = "2025-07-23 20:56:34 +0000";
layers = (
{
layerId = m01;
shapes = (
{
ref = glottalstopreversed;
},
{
closed = 1;
nodes = (
(172,127,l),
(422,127,l),
(422,177,l),
(172,177,l)
);
}
);
width = 536;
},
{
layerId = "BDCBA76E-5474-4BD3-A1CC-9641C626CFE7";
shapes = (
{
ref = glottalstopreversed;
},
{
closed = 1;
nodes = (
(172,107,l),
(422,107,l),
(422,197,l),
(172,197,l)
);
}
);
width = 536;
},
{
layerId = "D8CC3DFA-F3EA-4C7D-84FB-05FCEA5C6558";
shapes = (
{
ref = glottalstopreversed;
},
{
closed = 1;
nodes = (
(172,137,l),
(422,137,l),
(422,162,l),
(172,162,l)
);
}
);
width = 536;
}
);
unicode = 674;
},
{
glyphname = gstroke;
lastChange = "2025-07-22 00:54:21 +0000";
layers = (
{
layerId = m01;
shapes = (
{
ref = g;
},
{
closed = 1;
nodes = (
(306,153,l),
(526,153,l),
(526,213,l),
(306,213,l)
);
}
);
width = 536;
},
{
layerId = "BDCBA76E-5474-4BD3-A1CC-9641C626CFE7";
shapes = (
{
ref = g;
},
{
closed = 1;
nodes = (
(306,153,l),
(526,153,l),
(526,243,l),
(306,243,l)
);
}
);
width = 536;
},
{
layerId = "D8CC3DFA-F3EA-4C7D-84FB-05FCEA5C6558";
shapes = (
{
ref = g;
},
{
closed = 1;
nodes = (
(306,168,l),
(526,168,l),
(526,198,l),
(306,198,l)
);
}
);
width = 536;
}
);
unicode = 485;
},
{
color = 4;
glyphname = h;
lastChange = "2025-07-26 16:53:32 +0000";
layers = (
{
anchors = (
{
name = bottom;
pos = (268,0);
},
{
name = center;
pos = (268,225);
},
{
name = top;
pos = (268,800);
}
);
layerId = m01;
shapes = (
{
closed = 1;
nodes = (
(50,620,l),
(50,0,l),
(110,0,l),
(110,620,l)
);
},
{
closed = 1;
nodes = (
(367,392,ls),
(401,392,o),
(426,366,o),
(426,332,cs),
(426,0,l),
(486,0,l),
(486,332,ls),
(486,400,o),
(435,452,o),
(367,452,cs),
(80,452,l),
(80,392,l)
);
}
);
width = 536;
},
{
anchors = (
{
name = bottom;
pos = (268,0);
},
{
name = center;
pos = (268,225);
},
{
name = top;
pos = (268,800);
}
);
layerId = "BDCBA76E-5474-4BD3-A1CC-9641C626CFE7";
shapes = (
{
closed = 1;
nodes = (
(50,620,l),
(50,0,l),
(140,0,l),
(140,620,l)
);
},
{
closed = 1;
nodes = (
(366,362,ls),
(383,362,o),
(396,349,o),
(396,332,cs),
(396,0,l),
(486,0,l),
(486,333,ls),
(486,401,o),
(434,452,o),
(366,452,cs),
(95,452,l),
(95,362,l)
);
}
);
width = 536;
},
{
anchors = (
{
name = bottom;
pos = (268,0);
},
{
name = center;
pos = (268,225);
},
{
name = top;
pos = (268,800);
}
);
layerId = "D8CC3DFA-F3EA-4C7D-84FB-05FCEA5C6558";
shapes = (
{
closed = 1;
nodes = (
(50,620,l),
(50,0,l),
(80,0,l),
(80,620,l)
);
},
{
closed = 1;
nodes = (
(366,422,ls),
(417,423,o),
(456,384,o),
(456,333,cs),
(456,0,l),
(486,0,l),
(486,333,ls),
(486,401,o),
(434,453,o),
(366,452,cs),
(65,452,l),
(65,422,l)
);
}
);
width = 536;
}
);
unicode = 104;
},
{
glyphname = hbar;
lastChange = "2025-07-22 00:54:39 +0000";
layers = (
{
layerId = m01;
shapes = (
{
ref = h;
},
{
closed = 1;
nodes = (
(20,564,l),
(20,514,l),
(270,514,l),
(270,564,l)
);
}
);
width = 536;
},
{
layerId = "BDCBA76E-5474-4BD3-A1CC-9641C626CFE7";
shapes = (
{
ref = h;
},
{
closed = 1;
nodes = (
(20,574,l),
(20,484,l),
(270,484,l),
(270,574,l)
);
}
);
width = 536;
},
{
layerId = "D8CC3DFA-F3EA-4C7D-84FB-05FCEA5C6558";
shapes = (
{
ref = h;
},
{
closed = 1;
nodes = (
(20,554,l),
(20,524,l),
(270,524,l),
(270,554,l)
);
}
);
width = 536;
}
);
unicode = 295;
},
{
color = 4;
glyphname = i;
lastChange = "2025-07-26 18:11:20 +0000";
layers = (
{
anchors = (
{
name = bottom;
pos = (268,0);
}
);
layerId = m01;
shapes = (
{
closed = 1;
nodes = (
(298,25,l),
(298,452,l),
(83,452,l),
(83,392,l),
(270,392,l),
(238,427,l),
(238,25,l)
);
},
{
closed = 1;
nodes = (
(283,520,o),
(301,538,o),
(301,560,cs),
(301,582,o),
(283,600,o),
(261,600,cs),
(239,600,o),
(221,582,o),
(221,560,cs),
(221,538,o),
(239,520,o),
(261,520,cs)
);
},
{
closed = 1;
nodes = (
(50,60,l),
(50,0,l),
(486,0,l),
(486,60,l)
);
}
);
width = 536;
},
{
anchors = (
{
name = bottom;
pos = (268,0);
}
);
layerId = "BDCBA76E-5474-4BD3-A1CC-9641C626CFE7";
shapes = (
{
closed = 1;
nodes = (
(313,45,l),
(313,452,l),
(83,452,l),
(83,362,l),
(268,362,l),
(223,409,l),
(223,45,l)
);
},
{
closed = 1;
nodes = (
(290,499,o),
(315,525,o),
(315,555,cs),
(315,586,o),
(290,611,o),
(259,611,cs),
(229,611,o),
(203,586,o),
(203,555,cs),
(203,525,o),
(229,499,o),
(259,499,cs)
);
},
{
closed = 1;
nodes = (
(50,90,l),
(50,0,l),
(486,0,l),
(486,90,l)
);
}
);
width = 536;
},
{
anchors = (
{
name = bottom;
pos = (268,0);
}
);
layerId = "D8CC3DFA-F3EA-4C7D-84FB-05FCEA5C6558";
shapes = (
{
closed = 1;
nodes = (
(283,15,l),
(283,452,l),
(83,452,l),
(83,422,l),
(270,422,l),
(253,440,l),
(253,15,l)
);
},
{
closed = 1;
nodes = (
(279,513,o),
(292,525,o),
(292,541,cs),
(292,556,o),
(279,568,o),
(264,568,cs),
(249,568,o),
(237,556,o),
(237,541,cs),
(237,525,o),
(249,513,o),
(264,513,cs)
);
},
{
closed = 1;
nodes = (
(50,30,l),
(50,0,l),
(486,0,l),
(486,30,l)
);
}
);
width = 536;
}
);
unicode = 105;
},
{
glyphname = idotless;
lastChange = "2025-07-27 01:03:18 +0000";
layers = (
{
anchors = (
{
name = bottom;
pos = (268,0);
},
{
name = ogonek;
pos = (486,0);
},
{
name = top;
pos = (268,452);
}
);
layerId = m01;
shapes = (
{
closed = 1;
nodes = (
(298,30,l),
(298,452,l),
(83,452,l),
(83,392,l),
(253,392,l),
(238,427,l),
(238,30,l)
);
},
{
closed = 1;
nodes = (
(50,60,l),
(50,0,l),
(486,0,l),
(486,60,l)
);
}
);
width = 536;
},
{
anchors = (
{
name = bottom;
pos = (268,0);
},
{
name = ogonek;
pos = (486,0);
},
{
name = top;
pos = (268,452);
}
);
layerId = "BDCBA76E-5474-4BD3-A1CC-9641C626CFE7";
shapes = (
{
closed = 1;
nodes = (
(313,34,l),
(313,452,l),
(83,452,l),
(83,362,l),
(253,362,l),
(223,427,l),
(223,34,l)
);
},
{
closed = 1;
nodes = (
(50,90,l),
(50,0,l),
(486,0,l),
(486,90,l)
);
}
);
width = 536;
},
{
anchors = (
{
name = bottom;
pos = (268,0);
},
{
name = ogonek;
pos = (486,0);
},
{
name = top;
pos = (268,452);
}
);
layerId = "D8CC3DFA-F3EA-4C7D-84FB-05FCEA5C6558";
shapes = (
{
closed = 1;
nodes = (
(283,13,l),
(283,452,l),
(83,452,l),
(83,422,l),
(271,422,l),
(253,438,l),
(253,13,l)
);
},
{
closed = 1;
nodes = (
(50,30,l),
(50,0,l),
(486,0,l),
(486,30,l)
);
}
);
width = 536;
}
);
unicode = 305;
},
{
glyphname = iacute;
lastChange = "2025-07-27 01:03:49 +0000";
layers = (
{
anchors = (
{
name = bottom;
pos = (268,0);
}
);
layerId = m01;
shapes = (
{
pos = (44,-25);
ref = acutecomb;
},
{
closed = 1;
nodes = (
(298,30,l),
(298,452,l),
(83,452,l),
(83,392,l),
(253,392,l),
(238,427,l),
(238,30,l)
);
},
{
closed = 1;
nodes = (
(50,60,l),
(50,0,l),
(486,0,l),
(486,60,l)
);
}
);
width = 536;
},
{
anchors = (
{
name = bottom;
pos = (268,0);
}
);
layerId = "BDCBA76E-5474-4BD3-A1CC-9641C626CFE7";
shapes = (
{
pos = (44,-25);
ref = acutecomb;
},
{
closed = 1;
nodes = (
(313,45,l),
(313,452,l),
(83,452,l),
(83,362,l),
(253,362,l),
(223,427,l),
(223,45,l)
);
},
{
closed = 1;
nodes = (
(50,90,l),
(50,0,l),
(486,0,l),
(486,90,l)
);
}
);
width = 536;
},
{
anchors = (
{
name = bottom;
pos = (268,0);
}
);
layerId = "D8CC3DFA-F3EA-4C7D-84FB-05FCEA5C6558";
shapes = (
{
pos = (44,-25);
ref = acutecomb;
},
{
closed = 1;
nodes = (
(283,15,l),
(283,452,l),
(83,452,l),
(83,422,l),
(272,422,l),
(253,441,l),
(253,15,l)
);
},
{
closed = 1;
nodes = (
(50,30,l),
(50,0,l),
(486,0,l),
(486,30,l)
);
}
);
width = 536;
}
);
unicode = 237;
},
{
glyphname = icircumflex;
lastChange = "2025-07-27 01:04:39 +0000";
layers = (
{
layerId = m01;
shapes = (
{
pos = (0,12);
ref = circumflexcomb;
},
{
closed = 1;
nodes = (
(298,30,l),
(298,452,l),
(83,452,l),
(83,392,l),
(253,392,l),
(238,427,l),
(238,30,l)
);
},
{
closed = 1;
nodes = (
(50,60,l),
(50,0,l),
(486,0,l),
(486,60,l)
);
}
);
width = 536;
},
{
layerId = "BDCBA76E-5474-4BD3-A1CC-9641C626CFE7";
shapes = (
{
pos = (0,12);
ref = circumflexcomb;
},
{
closed = 1;
nodes = (
(313,45,l),
(313,452,l),
(83,452,l),
(83,362,l),
(253,362,l),
(223,427,l),
(223,45,l)
);
},
{
closed = 1;
nodes = (
(50,90,l),
(50,0,l),
(486,0,l),
(486,90,l)
);
}
);
width = 536;
},
{
layerId = "D8CC3DFA-F3EA-4C7D-84FB-05FCEA5C6558";
shapes = (
{
pos = (0,12);
ref = circumflexcomb;
},
{
closed = 1;
nodes = (
(283,15,l),
(283,452,l),
(83,452,l),
(83,422,l),
(272,422,l),
(253,438,l),
(253,15,l)
);
},
{
closed = 1;
nodes = (
(50,30,l),
(50,0,l),
(486,0,l),
(486,30,l)
);
}
);
width = 536;
}
);
unicode = 238;
},
{
glyphname = idieresis;
lastChange = "2025-07-27 01:05:31 +0000";
layers = (
{
layerId = m01;
shapes = (
{
pos = (0,-6);
ref = dieresiscomb;
},
{
closed = 1;
nodes = (
(298,30,l),
(298,452,l),
(83,452,l),
(83,392,l),
(253,392,l),
(238,427,l),
(238,30,l)
);
},
{
closed = 1;
nodes = (
(50,60,l),
(50,0,l),
(486,0,l),
(486,60,l)
);
}
);
width = 536;
},
{
layerId = "BDCBA76E-5474-4BD3-A1CC-9641C626CFE7";
shapes = (
{
pos = (0,-6);
ref = dieresiscomb;
},
{
closed = 1;
nodes = (
(313,45,l),
(313,452,l),
(83,452,l),
(83,362,l),
(253,362,l),
(223,427,l),
(223,45,l)
);
},
{
closed = 1;
nodes = (
(50,90,l),
(50,0,l),
(486,0,l),
(486,90,l)
);
}
);
width = 536;
},
{
layerId = "D8CC3DFA-F3EA-4C7D-84FB-05FCEA5C6558";
shapes = (
{
pos = (0,-6);
ref = dieresiscomb;
},
{
closed = 1;
nodes = (
(283,15,l),
(283,452,l),
(83,452,l),
(83,422,l),
(268,422,l),
(253,438,l),
(253,15,l)
);
},
{
closed = 1;
nodes = (
(50,30,l),
(50,0,l),
(486,0,l),
(486,30,l)
);
}
);
width = 536;
}
);
unicode = 239;
},
{
glyphname = igrave;
lastChange = "2025-07-28 00:24:27 +0000";
layers = (
{
layerId = m01;
shapes = (
{
closed = 1;
nodes = (
(298,30,l),
(298,452,l),
(83,452,l),
(83,392,l),
(253,392,l),
(238,427,l),
(238,30,l)
);
},
{
closed = 1;
nodes = (
(486,0,l),
(486,60,l),
(50,60,l),
(50,0,l)
);
},
{
pos = (-50,1);
ref = gravecomb;
}
);
width = 536;
},
{
layerId = "BDCBA76E-5474-4BD3-A1CC-9641C626CFE7";
shapes = (
{
closed = 1;
nodes = (
(313,45,l),
(313,452,l),
(83,452,l),
(83,362,l),
(253,362,l),
(223,427,l),
(223,45,l)
);
},
{
closed = 1;
nodes = (
(486,0,l),
(486,90,l),
(50,90,l),
(50,0,l)
);
},
{
pos = (-50,1);
ref = gravecomb;
}
);
width = 536;
},
{
layerId = "D8CC3DFA-F3EA-4C7D-84FB-05FCEA5C6558";
shapes = (
{
closed = 1;
nodes = (
(283,15,l),
(283,452,l),
(83,452,l),
(83,422,l),
(273,422,l),
(253,437,l),
(253,15,l)
);
},
{
closed = 1;
nodes = (
(486,0,l),
(486,30,l),
(50,30,l),
(50,0,l)
);
},
{
pos = (-50,1);
ref = gravecomb;
}
);
width = 536;
}
);
unicode = 236;
},
{
glyphname = imacron;
lastChange = "2025-07-28 00:25:22 +0000";
layers = (
{
layerId = m01;
shapes = (
{
closed = 1;
nodes = (
(298,25,l),
(298,452,l),
(83,452,l),
(83,392,l),
(253,392,l),
(238,427,l),
(238,25,l)
);
},
{
closed = 1;
nodes = (
(486,0,l),
(486,60,l),
(50,60,l),
(50,0,l)
);
},
{
pos = (0,-51);
ref = macroncomb;
}
);
width = 536;
},
{
layerId = "BDCBA76E-5474-4BD3-A1CC-9641C626CFE7";
shapes = (
{
closed = 1;
nodes = (
(313,35,l),
(313,452,l),
(83,452,l),
(83,362,l),
(253,362,l),
(223,427,l),
(223,35,l)
);
},
{
closed = 1;
nodes = (
(486,0,l),
(486,90,l),
(50,90,l),
(50,0,l)
);
},
{
pos = (0,-51);
ref = macroncomb;
}
);
width = 536;
},
{
layerId = "D8CC3DFA-F3EA-4C7D-84FB-05FCEA5C6558";
shapes = (
{
closed = 1;
nodes = (
(283,15,l),
(283,452,l),
(83,452,l),
(83,422,l),
(268,422,l),
(253,441,l),
(253,15,l)
);
},
{
closed = 1;
nodes = (
(486,0,l),
(486,30,l),
(50,30,l),
(50,0,l)
);
},
{
pos = (0,-51);
ref = macroncomb;
}
);
width = 536;
}
);
unicode = 299;
},
{
glyphname = istroke;
lastChange = "2025-07-22 00:55:13 +0000";
layers = (
{
layerId = m01;
shapes = (
{
ref = idotless;
},
{
ref = dotaccentcomb;
},
{
closed = 1;
nodes = (
(140,317,l),
(140,267,l),
(396,267,l),
(396,317,l)
);
}
);
width = 536;
},
{
layerId = "BDCBA76E-5474-4BD3-A1CC-9641C626CFE7";
shapes = (
{
ref = idotless;
},
{
ref = dotaccentcomb;
},
{
closed = 1;
nodes = (
(140,307,l),
(140,217,l),
(396,217,l),
(396,307,l)
);
}
);
width = 536;
},
{
layerId = "D8CC3DFA-F3EA-4C7D-84FB-05FCEA5C6558";
shapes = (
{
ref = idotless;
},
{
ref = dotaccentcomb;
},
{
closed = 1;
nodes = (
(140,307,l),
(140,277,l),
(396,277,l),
(396,307,l)
);
}
);
width = 536;
}
);
unicode = 616;
},
